/* XPM */
static char *dcb68fcdfba54b5bcba90d0e0911151af3bCo5UhIoOJ4q7m[] = {
/* columns rows colors chars-per-pixel */
"150 38 7 1 ",
"  c black",
". c #5E491C",
"X c #654E1E",
"o c #98762D",
"O c #9D7A2E",
"+ c #C29739",
"@ c #C79B3B",
/* pixels */
"                                                                                                                                                      ",
" o++++++++++++++++++++++++++++++++++++++++++++++++++++++++++++++++++++++++++++++++++++++++++++++++++++++++++++++++++++++++++++++++++++++++++++++++++o ",
" @OXXXXXXXXXXXXXXXXXXXXXXXXXXXXXXXXXXXXXXXXXXXXXXXXXXXXXXXXXXXXXXXXXXXXXXXXXXXXXXXXXXXXXXXXXXXXXXXXXXXXXXXXXXXXXXXXXXXXXXXXXXXXXXXXXXXXXXXXXXXXXXXXO@ ",
" @.                                                                                                                                                .@ ",
" @.                                                                                                                                                .@ ",
" @.                                                                                                                                                .@ ",
" @.                                                                                                                                                .@ ",
" @.                                                                                                                                                .@ ",
" @.                                                                                                                                                .@ ",
" @.                                                                                                                                                .@ ",
" @.                                                                                                                                                .@ ",
" @.                                                                                                                                                .@ ",
" @.                                                                                                                                                .@ ",
" @.                                                                                                                                                .@ ",
" @.                                                                                                                                                .@ ",
" @.                                                                                                                                                .@ ",
" @.                                                                                                                                                .@ ",
" @.                                                                                                                                                .@ ",
" @.                                                                                                                                                .@ ",
" @.                                                                                                                                                .@ ",
" @.                                                                                                                                                .@ ",
" @.                                                                                                                                                .@ ",
" @.                                                                                                                                                .@ ",
" @.                                                                                                                                                .@ ",
" @.                                                                                                                                                .@ ",
" @.                                                                                                                                                .@ ",
" @.                                                                                                                                                .@ ",
" @.                                                                                                                                                .@ ",
" @.                                                                                                                                                .@ ",
" @.                                                                                                                                                .@ ",
" @.                                                                                                                                                .@ ",
" @.                                                                                                                                                .@ ",
" @.                                                                                                                                                .@ ",
" @.                                                                                                                                                .@ ",
" @.                                                                                                                                                .@ ",
" @OXXXXXXXXXXXXXXXXXXXXXXXXXXXXXXXXXXXXXXXXXXXXXXXXXXXXXXXXXXXXXXXXXXXXXXXXXXXXXXXXXXXXXXXXXXXXXXXXXXXXXXXXXXXXXXXXXXXXXXXXXXXXXXXXXXXXXXXXXXXXXXXXO@ ",
" o++++++++++++++++++++++++++++++++++++++++++++++++++++++++++++++++++++++++++++++++++++++++++++++++++++++++++++++++++++++++++++++++++++++++++++++++++o ",
"                                                                                                                                                      "
};
