/* XPM */
static char *fa88f5b9bd5c44799f482018fe90b63c[] = {
/* columns rows colors chars-per-pixel */
"64 64 196 2 ",
"   c #15274F",
".  c #3E354F",
"X  c #3E3B53",
"o  c #3E3A54",
"O  c #483E56",
"+  c #523D54",
"@  c #3F4557",
"#  c #2B4963",
"$  c #364C65",
"%  c #3D5C64",
"&  c #3E6A6B",
"*  c #2A6979",
"=  c #336576",
"-  c #366C77",
";  c #316778",
":  c #28747C",
">  c #33747E",
",  c #3B7C7A",
"<  c #4A4057",
"1  c #43455B",
"2  c #4D4359",
"3  c #45495E",
"4  c #4E4A5D",
"5  c #5C4357",
"6  c #54465B",
"7  c #56485C",
"8  c #5D4B5C",
"9  c #455B5C",
"0  c #65465A",
"q  c #644B5C",
"w  c #6F4D5F",
"e  c #68515D",
"r  c #795959",
"t  c #41615D",
"y  c #52695F",
"u  c #464C61",
"i  c #494C61",
"p  c #475967",
"a  c #515262",
"s  c #525B6B",
"d  c #5A5D6D",
"f  c #4C5B71",
"g  c #5D5B70",
"h  c #665362",
"j  c #695564",
"k  c #6E5967",
"l  c #6A5C65",
"z  c #705A64",
"x  c #795E68",
"c  c #456A67",
"v  c #566168",
"b  c #417366",
"n  c #417668",
"m  c #5D6A78",
"M  c #487374",
"N  c #527C76",
"B  c #69646A",
"V  c #776566",
"C  c #7C7466",
"Z  c #666A77",
"A  c #70707B",
"S  c #863949",
"D  c #9A4955",
"F  c #A7504C",
"G  c #BF5249",
"H  c #956D5A",
"J  c #8B715F",
"K  c #AB6D58",
"L  c #AD755B",
"P  c #8A5B6B",
"I  c #915F6E",
"U  c #8C636F",
"Y  c #91616D",
"T  c #967760",
"R  c #8A6E73",
"E  c #926475",
"W  c #9C6573",
"Q  c #916C71",
"!  c #996D76",
"~  c #827776",
"^  c #957276",
"/  c #93787A",
"(  c #A37C66",
")  c #A46B77",
"_  c #A76C78",
"`  c #A96E79",
"'  c #A7747B",
"]  c #AD707B",
"[  c #C46D54",
"{  c #EC724D",
"}  c #35877D",
"|  c #458A76",
" . c #508B7A",
".. c #459876",
"X. c #459D76",
"o. c #45A57C",
"O. c #54A47A",
"+. c #63AC7D",
"@. c #6AB07E",
"#. c #72B37F",
"$. c #8F806A",
"%. c #AC8564",
"&. c #AE8A65",
"*. c #AF8E69",
"=. c #B48C67",
"-. c #AF956F",
";. c #AA9977",
":. c #B39C75",
">. c #B2A17A",
",. c #F08457",
"<. c #DC9566",
"1. c #E99A66",
"2. c #F19863",
"3. c #CDA978",
"4. c #DBAB72",
"5. c #E7B678",
"6. c #F2BC7A",
"7. c #2E7680",
"8. c #2F7E86",
"9. c #307782",
"0. c #566C82",
"q. c #5B7989",
"w. c #667787",
"e. c #737B83",
"r. c #B77F83",
"t. c #2B868E",
"y. c #358886",
"u. c #389689",
"i. c #349E8D",
"p. c #2A8F94",
"a. c #2E9795",
"s. c #349C92",
"d. c #3BA48E",
"f. c #3AAB8F",
"g. c #3FB586",
"h. c #38A494",
"j. c #3BAB93",
"k. c #3CB294",
"l. c #3EB697",
"z. c #4B8B85",
"x. c #578383",
"c. c #64818C",
"v. c #70818D",
"b. c #619182",
"n. c #7A929D",
"m. c #41A082",
"M. c #46AE81",
"N. c #5DA484",
"B. c #48B283",
"V. c #47BD87",
"C. c #48BF87",
"Z. c #43B58C",
"A. c #45BC8C",
"S. c #42BC92",
"D. c #76BA83",
"F. c #47C18B",
"G. c #49C38A",
"H. c #59C78B",
"J. c #63D191",
"K. c #6CD492",
"L. c #7BDB95",
"P. c #83878D",
"I. c #859499",
"U. c #96989C",
"Y. c #A68486",
"T. c #B38786",
"R. c #B68B89",
"E. c #B98C8A",
"W. c #BE918D",
"Q. c #879FAA",
"!. c #949DA2",
"~. c #A09CA1",
"^. c #98A7A8",
"/. c #94AAB0",
"(. c #99B2B4",
"). c #AAACB0",
"_. c #A5B5BC",
"`. c #C2938F",
"'. c #C39490",
"]. c #C8B787",
"[. c #D1BF8B",
"{. c #C5A79D",
"}. c #D1B1A5",
"|. c #EDCF90",
" X c #E3D499",
".X c #FDDE99",
"XX c #F9E19C",
"oX c #DCCABE",
"OX c #FFEFA8",
"+X c #B2BEC2",
"@X c #BECACD",
"#X c #C9D5D6",
"$X c #D7E1DE",
"%X c #DDE4E2",
"&X c #E4EAE8",
"*X c #EBF5F2",
/* pixels */
"k k k k k k k k k k k k k k k k k k k k k k k k k k k k k k k k k k k k k k k k k k k k k k k k k k k k k k k k k k k k k k k k ",
"] '.'.'.'.}.}.}.}.}.'.'.}.'.'.'.'.'.'.'.r.] ] ] ] E k k k k k k k k k k k k E ] ] ] ] r.'.'.'.'.'.'.'.'.'.'.'.'.'.'.'.'.'.'.] k ",
"'.'.'.'.'.'.'.'.'.'.'.'.'.'.'.'.'.'.'.'.'.] ] ] ] ] k k k k k k k k k k k k ] ] ] ] ] '.'.'.'.'.'.'.'.'.'.'.'.'.'.'.'.'.'.'.'.k ",
"'.'.'.'.'.'.'.'.'.'.'.'.'.'.'.'.'.'.'.'.'.] ] ] ] ] E k k k k k k k k k k E ] ] ] ] ] '.'.'.'.'.'.'.'.'.] '.] ] ] ] ] '.'.k k k ",
"'.'.'.'.'.'.'.'.'.'.'.'.'.'.'.'.'.'.'.'.'.] ] ] ] ] ] ] ] ] E k E ] ] ] ] ] ] ] ] ] ] '.'.'.'.'.'.'.'.'.'.}.'.}.}.}.'.'.'.'.r.k ",
"'.'.'.'.'.'.'.'.'.'.'.'.'.'.'.'.'.'.'.'.'.] ] ] ] ] ] ] ] ] ] k ] ] ] ] ] ] ] ] ] ] ] '.'.'.'.'.'.'.'.'.'.'.'.'.'.'.'.'.'.'.'.k ",
"'.'.'.'.'.'.'.'.'.'.'.'.'.'.'.'.'.'.'.'.'.] ] ] ] ] ] ] ] ] ] k ] ] ] ] ] ] ] ] ] ] ] '.'.'.'.'.'.'.'.'.'.'.'.'.'.'.'.'.'.'.'.k ",
"] '.'.'.'.'.'.'.'.'.'.'.'.'.'.'.'.'.'.'.r.] ] ] ] ] ] ] ] ] E k E ] ] ] ] ] ] ] ] ] ] r.'.'.'.'.'.'.'.'.'.'.'.'.'.'.'.'.'.'.] k ",
"k k k k k k k k k k k k k k k k k k k k k k k k k k k k k k k k k k k k k k k k k k k k k k k k k k k k k k k k k k k k k k k k ",
"}.}.}.'.'.'.'.'.'.'.'.'.'.'.] k ] '.'.'.'.r.] ] ] ] ] ] ] ] ] ] ] ] ] ] ] ] ] ] ] ] r.'.'.'.] k ] '.'.'.}.'.}.}.}.}.}.'.'.'.'.'.",
"'.'.'.'.'.'.'.'.'.'.'.'.'.'.'.k '.'.'.'.'.'.r.] ] ] ] ] ] ] ] ] ] ] ] ] ] ] ] ] ] r.'.'.'.'.'.k '.'.'.'.'.'.'.'.'.'.'.'.'.'.'.'.",
"'.'.'.'.'.'.'.] ] '.] '.'.k k k '.'.'.'.'.'.'.'.'.'.'.'.'.'.'.'.'.'.'.'.'.'.'.'.'.'.'.'.'.'.'.k '.'.'.'.'.'.'.'.'.'.'.'.'.'.'.'.",
"'.'.'.'.'.'.}.'.}.}.'.'.'.'.r.k '.'.'.'.'.'.'.'.'.'.'.'.'.'.'.'.'.'.'.'.'.'.'.'.'.'.'.'.'.'.'.k '.'.'.'.'.'.'.'.'.'.'.'.'.'.'.'.",
"'.'.'.'.'.'.'.'.'.'.'.'.'.'.'.k '.'.'.'.'.'.'.'.'.'.'.'.'.'.'.'.'.'.'.'.'.'.'.'.'.'.'.'.'.'.'.k '.'.'.'.'.'.'.'.'.'.'.'.'.'.'.'.",
"'.'.'.'.'.'.'.'.'.'.'.'.'.'.'.k '.'.'.'.'.'.'.'.'.'.'.'.'.'.'.'.'.'.'.'.'.'.'.'.'.'.'.'.'.'.'.k '.'.'.'.'.'.'.'.'.'.'.'.'.'.'.'.",
"'.'.'.'.'.'.'.'.'.'.'.'.'.'.] k ] '.'.'.'.'.'.'.'.'.'.'.'.'.'.'.'.'.'.'.'.'.'.'.'.'.'.'.'.'.] k ] '.'.'.'.'.'.'.'.'.'.'.'.'.'.'.",
"k k k k k k k k k k k k k k k k k k k k k k k k k k k k k k k k k k k k k k k k k k k k k k k k k k k k k k k k k k k k k k k k ",
"] '.'.'.}.'.}.}.oXoXoX}.'.}.}.'.'.'.'.'.'.'.'.'.'.'.'.'.'.'.] k ] '.'.'.}.'.}.}.oXoXoX}.'.}.}.'.'.'.'.'.'.'.'.'.'.'.'.'.'.'.] k ",
"'.'.'.'.'.'.'.'.'.'.'.'.'.'.'.'.'.'.'.'.'.'.'.'.'.'.'.'.'.'.'.k '.'.'.'.'.'.'.'.'.'.'.'.'.'.'.'.'.'.'.'.'.'.'.'.'.'.'.'.'.'.'.k ",
"'.'.'.'.'.'.'.'.'.'.'.'.'.'.'.'.'.'.'.'.'.'.'.'.'.'.'.'.'.'.'.k '.'.'.'.'.'.'.'.'.'.'.'.'.'.'.'.'.'.'.'.'.'.'.'.'.'.'.'.'.'.'.k ",
"'.'.'.'.'.'.'.'.'.'.'.'.'.'.'.'.'.'.'.'.'.'.'.'.'.'.'.'.'.'.r.k '.'.'.'.'.'.'.'.'.'.'.'.'.'.'.'.'.'.'.'.'.'.'.'.'.'.'.'.'.'.r.k ",
"'.'.'.'.'.'.'.'.'.'.'.'.'.'.'.'.'.'.'.'.'.'.] ] '.] '.k k k k k '.'.'.'.'.'.'.'.'.'.'.'.'.'.'.'.'.'.'.'.'.'.] ] '.] '.k k k k k ",
"'.'.'.'.'.'.'.'.'.'.'.'.'.'.'.'.'.'.'.'.'.'.'.'.}.'.}.}.'.'.'.k '.'.'.'.'.'.'.'.'.'.'.'.'.'.'.'.'.'.'.'.'.'.'.'.}.'.}.}.'.'.'.k ",
"] '.'.'.'.'.'.'.'.'.'.'.'.'.'.'.'.'.'.'.'.'.'.'.'.'.'.'.'.'.] k ] '.'.'.'.'.'.'.'.'.'.'.'.'.'.'.'.'.'.'.'.'.'.'.'.'.'.'.'.'.] k ",
"k k k k k k k k k k k k k k k k k k k k k k k k k k k k k k k k k k k k k k k k k k k k k k k k k k k k k k k k k k k k k k k k ",
"'.'.'.'.'.'.'.'.'.'.'.'.'.'.] k ] '.'.'.}.'.}.}.}.oXoXoX}.}.'.'.'.'.'.'.'.'.'.'.'.'.'.'.'.'.] k ] '.'.'.}.'.}.}.}.oXoXoX}.}.'.'.",
"'.'.'.'.'.'.'.'.'.'.'.'.'.'.'.k '.'.'.'.'.'.'.'.'.'.'.'.'.'.'.'.'.'.'.'.'.'.'.'.'.'.'.'.'.'.'.k '.'.'.'.'.'.'.'.'.'.'.'.'.'.'.'.",
"] ] ] ] ] ] ] ] ] r.'.'.'.'.'.k '.'.'.'.'.'.r.] ] ] ] ] ] ] ] ] ] ] ] ] ] ] ] ] ] r.'.'.'.'.'.k '.'.'.'.'.'.r.] ] ] ] ] ] ] ] ] ",
"] ] ] ] ] ] ] ] ] ] r.'.'.'.'.k '.'.'.'.'.r.] ] ] ] ] ] ] ] ] ] ] ] ] ] ] ] ] ] ] ] r.'.'.'.'.k '.'.'.'.'.r.] ] ] ] ] ] ] ] ] ] ",
"] ] ] ] ] ] ] ] ] ] ] '.'.'.'.k '.'.'.'.'.] ] ] ] ] ] ] ] ] ] ] ] ] ] ] ] ] ] ] ] ] ] '.'.'.'.k '.'.'.'.'.] ] ] ] ] ] ] ] ] ] ] ",
"k k k E ] ] ] ] ] ] ] '.'.'.'.k '.'.'.'.'.] ] ] ] ] ] ] E k k k k k k E ] ] ] ] ] ] ] '.'.'.'.k '.'.'.'.'.] ] ] ] ] ] ] E k k k ",
"k k k k E ] ] ] ] ] ] r.'.'.] k ] '.'.'.r.] ] ] ] ] ] ] k k k k k k k k E ] ] ] ] ] ] r.'.'.] k ] '.'.'.r.] ] ] ] ] ] E k k k k ",
"k k k k k k k k k k k k k k k k k k k k k k k k k k k k k k k k k k k k k k k k k k k k k k k k k k k k k k k k k k k k k k k k ",
"k k k k k k E ] ] ] ] r.'.'.'.'.'.'.'.'.r.] ] ] P 8 6 j 7 < 2 2 2 h k j 6 2 q P ] ] ] r.'.'.'.'.'.'.'.'.r.] ] ] ] E k k k k k k ",
"k k k k k k ] ] ] ] ] '.'.'.'.'.'.'.'.'.'.] ` Y ( :.;.V ;.:.=.=.K r 7 V %.K F D I ` ] '.'.'.'.'.'.'.'.'.'.] ] ] ] ] k k k k k k ",
"k k k k k E ] ] ] ] ] '.'.'.'.'.'.'.'.'.'.] ) q 3.XX XC  X|.4.4.1.H   J 5.2.{ G 0 ) ] '.'.'.'.'.'.'.'.'.'.] ] ] ] ] E k k k k k ",
"E ] ] ] ] ] ] ] ] ] ] '.'.'.'.'.'.'.'.'.'.] ) e [.OX X$. X].r T 5.%.5 T 6.2.,.[ 0 ) ] '.'.'.'.'.'.'.'.'.'.] ] ] ] ] ] ] ] ] E k ",
"] ] ] ] ] ] ] ] ] ] ] '.'.'.'.'.'.'.'.'.'.] ) q 3..XXX5.XX|.4.5.6.5.<.<.6.2.{ G 0 ) ] '.'.'.'.'.'.'.'.'.'.] ] ] ] ] ] ] ] ] ] k ",
"] ] ] ] ] ] ] ] ] ] ] '.'.'.'.'.'.'.'.'.`.] ) 5 J -.>.*.:.-.&.&.&.&.L K %.K F S 0 ) ] '.'.'.'.'.'.'.'.'.'.] ] ] ] ] ] ] ] ] ] k ",
"E ] ] ] ] ] ] ] ] ] ] r.'.'.'.'.'.'.'.'.r.) ^ ~.).P.i v.!.I.m 3 w.v.w.f o f f f g U _ r.'.'.'.'.'.'.'.'.r.] ] ] ] ] ] ] ] ] E k ",
"k k k k k k k k k k k k k k k k k k k k k q Z #X&X).m (.#X@Xn.d /.(.Q.w.3 w.w.q.0.3 h k k k k k k k k k k k k k k k k k k k k k ",
"] ] ] ] ] ] ] ] ] ] r.'.'.'.] k ] '.'.'.'.) 7 Z A d 3 s Z Z a 1 s v s u 1 u u 3 1 O ! '.'.'.] k ] '.'.'.'.r.] ] ] ] ] ] ] ] ] ] ",
"] ] ] ] ] ] ] ] ] r.'.'.'.'.'.k '.'.'.'.'.E.! + # * 9.7.: : 7.9.7.7.7.7.9.7.* $ X O Y.'.'.'.'.k '.'.'.'.'.'.r.] ] ] ] ] ] ] ] ] ",
"'.'.'.'.'.'.'.'.'.'.'.'.'.'.'.k '.'.'.'.'.E.Q 7 > i.f.f.f.f.f.f.f.f.f.i.: i.a.; 7 Q R.'.'.'.'.k '.'.'.'.'.'.'.'.'.'.'.'.'.'.'.'.",
"'.'.'.'.'.'.'.'.'.'.'.'.'.'.'.k '.'.'.'.R.Y.P.a y.l.C.M.A.F.V.M.A.S.g.N.I.N.i.> 8 E.] '.k k k k '.'.'.'.'.'.'.'.'.'.'.'.'.'.'.'.",
"'.'.'.'.'.'.'.'.'.'.'.'.'.'.'.k '.'.'.'.Q U.$XI.z.k.M.c u.Z.X.& h.h.z.^.$XP.: > l {.'.'.'.'.r.k '.'.'.'.'.'.'.'.'.'.'.'.'.'.'.'.",
"'.'.'.'.'.'.'.'.'.'.'.'.'.'.'.k '.'.'.'.Q U.*X%X!.} i.9 p c 9 p s., ^.&X&XP.* > h R.'.'.'.'.'.k '.'.'.'.'.'.'.'.'.'.'.'.'.'.'.'.",
"'.'.'.'.'.'.'.'.'.'.'.'.'.'.] k ] '.'.'.Q P.$X*X+Xq. .D.D.+.O.D. .c.@X*X#Xe.* t.z.R R.'.'.'.] k ] '.'.'.'.'.'.'.'.'.'.'.'.'.'.'.",
"k k k k k k k k k k k k k k k k k k k h c b.(.#X_.m y D.L.J.H.#.9 w._.#X/.x.u.j.j.| v h k k k k k k k k k k k k k k k k k k k k ",
"] '.'.'.}.'.}.}.oXoXoX}.'.}.}.'.'.'.W.x ..o.N n.Z . @ c B.G.M.c @ . w.n.M d.S.G.F.A.n Y.'.}.}.'.'.'.'.'.'.'.'.'.'.'.'.'.'.'.] k ",
"'.'.'.'.'.'.'.'.'.'.'.'.'.'.'.'.'.'.W.V ..C.B.c O X % i.Z.C.Z.u.% X 3 M d.A.F.F.A.j.M ^ '.'.'.'.'.'.'.'.'.'.'.'.'.'.'.'.'.'.'.k ",
"'.'.'.'.'.'.'.'.'.'.'.'.'.'.'.'.'.'.`.T.~ | d.% $ * > & b b b & 9.9.y.d.A.F.S.l.j.M / E.'.'.'.'.'.'.'.'.'.'.'.'.'.'.'.'.'.'.'.k ",
"'.'.'.'.'.'.'.'.'.'.'.'.'.'.'.'.'.'.'.'.T.~ , @ ; t.t.- = = = - t.a.j.S.G.G.m., N / R.'.'.'.'.'.'.'.'.'.'.'.'.'.'.'.'.'.'.'.r.k ",
"'.'.'.'.'.'.'.'.'.'.'.'.'.'.'.'.'.'.'.'.'.T.w < > p.a.s.i.i.i.i.i.j.S.G.G.G...$ h E.'.'.'.'.'.'.'.'.'.'.'.'.] ] '.] '.k k k k k ",
"'.'.'.'.'.'.'.'.'.'.'.'.'.'.'.'.'.'.'.'.'.'.R.h > a.k.A.F.F.F.F.F.F.G.G.G.G.d.> h E.'.'.'.'.'.'.'.'.'.'.'.'.'.'.}.'.}.}.'.'.'.k ",
"] '.'.'.'.'.'.'.'.'.'.'.'.'.'.'.'.'.'.'.'.'.E.h > h.F.G.G.G.G.G.G.G.G.G.G.F.d.> h E.'.'.'.'.'.'.'.'.'.'.'.'.'.'.'.'.'.'.'.'.] k ",
"k k k k k k k k k k k k k k k k k k k k k k j 2 y.k.G.G.G.K.K.H.L.L.K.G.F.S.a.= < j k k k k k k k k k k k k k k k k k k k k k k ",
"'.'.'.'.'.'.'.'.'.'.'.'.'.'.] k ] '.'.'.}.'.{.B u.S.V.X...+.@.O.D.D.+.o.f.h.9.d ^ W.'.'.'.'.] k ] '.'.'.}.'.}.}.}.oXoXoX}.}.'.'.",
"'.'.'.'.'.'.'.'.'.'.'.'.'.'.'.k '.'.'.'.'.'.E.j o.V.O.B z k k k z z z B 9.8.m ^ `.'.'.'.'.'.'.k '.'.'.'.'.'.'.'.'.'.'.'.'.'.'.'.",
"'.'.'.'.] ] ] '.'.] '.'.k k k k '.'.'.'.'.'.' 8 X.X.l ) _ _ _ _ _ _ ` W 7 4 U ` ] r.'.'.'.'.'.k '.'.'.'.'.'.'.'.'.'.'.'.'.'.'.'.",
"'.'.'.'.'.}.'.'.'.}.}.'.}.'.r.k '.'.'.'.'.r.) 8 t V W ` ] ] ] ] ] ] ] ` W W _ ] ] ] r.'.'.'.'.k '.'.'.'.'.'.'.'.'.'.'.'.'.'.'.'.",
"'.'.'.'.'.'.'.'.'.'.'.'.'.'.'.k '.'.'.'.'.] ` I P W ] ] ] ] ] ] ] ] ] ] ] ] ] ] ] ] ] '.'.'.'.k '.'.'.'.'.'.'.'.'.'.'.'.'.'.'.'.",
"'.'.'.'.'.'.'.'.'.'.'.'.'.'.'.k '.'.'.'.'.] ] ] ] ] ] ] E k k k k k k E ] ] ] ] ] ] ] '.'.'.'.k '.'.'.'.'.'.'.'.'.'.'.'.'.'.'.'.",
"'.'.'.'.'.'.'.'.'.'.'.'.'.'.] k ] '.'.'.r.] ] ] ] ] ] E k k k k k k k k E ] ] ] ] ] ] r.'.'.] k ] '.'.'.'.'.'.'.'.'.'.'.'.'.'.'."
};
