/* XPM */
static char *xpm_[] = {
/* columns rows colors chars-per-pixel */
"64 64 137 2 ",
"   c #3A2245",
".  c #3D2D49",
"X  c #3E3247",
"o  c #3F364D",
"O  c #3F3952",
"+  c #423B55",
"@  c #483C54",
"#  c #443C58",
"$  c #513F56",
"%  c #413F63",
"&  c #424157",
"*  c #524156",
"=  c #574559",
"-  c #5A4459",
";  c #58495C",
":  c #68475B",
">  c #604D5E",
",  c #684A5D",
"<  c #64505E",
"1  c #414167",
"2  c #434A6C",
"3  c #594F60",
"4  c #59586B",
"5  c #424674",
"6  c #455076",
"7  c #465970",
"8  c #614F60",
"9  c #645262",
"0  c #695665",
"q  c #675966",
"w  c #6E5967",
"e  c #775162",
"r  c #795667",
"t  c #765C66",
"y  c #785768",
"u  c #4E626F",
"i  c #5A616E",
"p  c #4B667D",
"a  c #7E676F",
"s  c #7C6172",
"d  c #805565",
"f  c #845969",
"g  c #8C5D6B",
"h  c #85626B",
"j  c #86686E",
"k  c #94626F",
"l  c #826778",
"z  c #936474",
"x  c #9A6572",
"c  c #916E73",
"v  c #927075",
"b  c #987578",
"n  c #A36A76",
"m  c #A66C78",
"M  c #AA6E79",
"N  c #AD707B",
"B  c #495886",
"V  c #475796",
"C  c #495A9B",
"Z  c #4D6E86",
"A  c #597A84",
"S  c #4F6A91",
"D  c #577F96",
"F  c #4A5EA3",
"G  c #4C64A5",
"H  c #4F6EA2",
"J  c #5172A7",
"K  c #4B64B5",
"L  c #4C67B9",
"P  c #557FBF",
"I  c #4E6AC1",
"U  c #5072C3",
"Y  c #A77F80",
"T  c #B77F83",
"R  c #538299",
"E  c #5E879E",
"W  c #638F96",
"Q  c #578CA3",
"!  c #5E95A7",
"~  c #5E8ABF",
"^  c #5C99B1",
"/  c #618CA3",
"(  c #6A9EA3",
")  c #7A9AA0",
"_  c #6CA1A7",
"`  c #70A5AB",
"'  c #67A5B6",
"]  c #75AFB3",
"[  c #74B4BC",
"{  c #7ABBBF",
"}  c #5680C0",
"|  c #5D88C7",
" . c #5886C8",
".. c #669CC7",
"X. c #6196CB",
"o. c #629ACC",
"O. c #60A3C1",
"+. c #63ACC6",
"@. c #6FAFC2",
"#. c #63A2CE",
"$. c #69A2CE",
"%. c #64ACCB",
"&. c #65B0CB",
"*. c #79BCCB",
"=. c #66AED1",
"-. c #67B5D2",
";. c #68B6D3",
":. c #67B8D3",
">. c #6ABAD4",
",. c #72B3D3",
"<. c #79BBD5",
"1. c #73C3D7",
"2. c #74C5D8",
"3. c #7CC2D8",
"4. c #79C9DB",
"5. c #8C8185",
"6. c #AB8282",
"7. c #B18786",
"8. c #B68A88",
"9. c #B88C8A",
"0. c #BE908D",
"q. c #C2938F",
"w. c #C39490",
"e. c #C5A79D",
"r. c #C7A89E",
"t. c #CAABA0",
"y. c #D1B1A5",
"u. c #DCCABE",
"i. c #83CEDC",
"p. c #87D3D5",
"a. c #83D3DE",
"s. c #89D6DD",
"d. c #8AD9DC",
"f. c #87D9E0",
"g. c #8CDDE2",
"h. c #8FE1E3",
"j. c #91E5E5",
/* pixels */
"w w w w w w w w w w w w w w w w w w w w w w w w w w w w w w w w w w w w w w w w w w w w w w w w w w w w w w w w w w w w w w w w ",
"N w.w.w.w.y.y.y.y.y.w.w.y.w.w.w.w.w.w.w.T N N N N z w w w w w w w w w w w w z N N N N T w.w.w.w.w.w.w.w.w.w.w.w.w.w.w.w.w.w.N w ",
"w.w.w.w.w.w.w.w.w.w.w.w.w.w.w.w.w.w.w.w.w.N N N N N w w w w w w w w w w w w N N N N N w.w.w.w.w.w.w.w.w.w.w.w.w.w.w.w.w.w.w.w.w ",
"w.w.w.w.w.w.w.w.w.w.w.w.w.w.w.w.w.w.w.w.w.N N N N N z w w w w w w w w w w z N N N N N w.w.w.w.w.w.w.w.w.N w.N N N N N w.w.w w w ",
"w.w.w.w.w.w.w.w.w.w.w.w.w.w.w.w.w.w.w.w.w.N N N N N N N N N z w z N N N N N N N N N N w.w.w.w.w.w.w.w.w.w.y.w.y.y.y.w.w.w.w.T w ",
"w.w.w.w.w.w.w.w.w.w.w.w.w.w.w.w.w.w.w.w.w.N N N N N N N N N N w N N N N N N N N N N N w.w.w.w.w.w.w.w.w.w.w.w.w.w.w.w.w.w.w.w.w ",
"w.w.w.w.w.w.w.w.w.w.w.w.w.w.w.w.w.w.w.w.w.N N N N N N N N N N w N N N N N N N N N N N w.w.w.w.w.w.w.w.w.w.w.w.w.w.w.w.w.w.w.w.w ",
"N w.w.w.w.w.w.w.w.w.w.w.w.w.w.w.w.w.w.w.T N N M N N N N N N z w z N N N N N N N N N N T w.w.w.w.w.w.w.w.w.w.w.w.w.w.w.w.w.w.N w ",
"w w w w w w w w w w w w w w w w w w w w w w y w w w w w w w w w w w w w w w w w w w w w w w w w w w w w w w w w w w w w w w w w ",
"y.y.y.w.w.w.w.w.w.w.w.w.w.w.N w N w.w.w.q.7.N N N N N N N N N N N N N N N N N N N N T w.w.w.N w N w.w.w.y.w.y.y.y.y.y.w.w.w.w.w.",
"w.w.w.w.w.w.w.w.w.w.w.w.w.w.w.w w.w.w.w.w.w.T N N N N N N N N N N N N N N N N N N T w.w.w.w.w.w w.w.w.w.w.w.w.w.w.w.w.w.w.w.w.w.",
"w.w.w.w.w.w.w.N N w.N w.w.w w w w.w.w.w.w.w.w.w.w.w.w.w.w.w.w.w.w.w.w.w.w.w.w.w.w.w.w.w.w.w.w.w w.w.w.w.w.w.w.w.w.w.w.w.w.w.w.w.",
"w.w.w.w.w.w.y.w.y.y.w.w.w.w.T w w.w.w.w.w.w.w.w.w.w.w.w.w.w.w.w.w.w.w.w.w.w.w.w.w.w.w.w.w.w.w.w w.w.w.w.w.w.w.w.w.w.w.w.w.w.w.w.",
"w.w.w.w.w.w.w.w.w.w.w.w.w.w.w.w w.w.w.w.w.w.w.w.w.w.w.w.w.w.w.w.w.w.w.w.w.w.w.w.w.w.w.w.w.w.w.w w.w.w.w.w.w.w.w.w.w.w.w.w.w.w.w.",
"w.w.w.w.w.w.w.w.w.w.w.w.w.w.w.w w.w.w.w.w.w.w.w.w.w.w.w.w.w.w.w.w.w.w.w.w.w.w.w.w.w.w.w.w.w.w.w w.w.w.w.w.w.w.w.w.w.w.w.w.w.w.w.",
"w.w.w.w.w.w.w.w.w.w.w.w.w.w.N w N w.w.w.w.w.w.w.w.w.w.w.w.w.w.w.w.w.w.w.w.w.w.w.w.w.w.w.w.w.N w N w.w.w.w.w.w.w.w.w.w.w.w.w.w.w.",
"w w w w w w w w w w w w w w w w w w w w w w w w w w w w w w w w w w w w w w w w w w w w w w w w w w w w w w w w w w w w w w w w ",
"N w.w.w.y.w.y.y.u.u.u.y.w.y.y.w.w.w.w.w.w.w.w.w.w.w.w.w.w.w.N w N w.w.w.y.w.y.y.u.u.u.y.w.y.y.w.w.w.w.w.w.w.w.w.w.w.w.w.w.w.N w ",
"w.w.w.w.w.w.w.w.w.w.w.w.w.w.w.w.w.w.w.w.w.w.w.w.w.w.w.w.w.w.w.w w.w.w.w.w.w.w.w.w.w.w.w.w.w.w.w.w.w.w.w.w.w.w.w.w.w.w.w.w.w.w.w ",
"w.w.w.w.w.w.w.w.w.w.w.w.w.w.w.w.w.w.w.w.w.w.w.w.w.w.w.w.w.w.w.w w.w.w.w.w.w.w.w.w.w.w.w.w.w.w.w.w.w.w.w.w.w.w.w.w.w.w.w.w.w.w.w ",
"w.w.w.w.w.w.w.w.w.w.w.w.w.w.w.w.w.w.w.w.w.w.w.w.w.w.w.w.q.q.T w w.w.w.w.w.w.w.w.w.w.w.w.w.w.w.w.w.w.w.w.w.w.w.w.w.w.w.w.w.w.T w ",
"w.w.w.w.w.w.w.w.w.w.w.w.w.w.w.w.w.w.w.w.w.w.N N w.N w.w y w w y w.w.w.w.w.w.w.w.w.w.w.w.w.w.w.w.w.w.w.w.w.w.N N w.N w.w w w w w ",
"w.w.w.w.w.w.w.w.w.w.w.w.w.w.w.w.w.w.w.w.w.w.w.w.r.9.e.e.8.8.8.< 9.9.8.9.0.8.8.8.0.0.w.w.w.w.w.w.w.w.w.w.w.w.w.w.y.w.y.y.w.w.w.w ",
"N w.w.w.w.w.w.w.w.w.w.w.w.w.w.w.w.w.w.w.w.w.w.q.c < 9 0 q q > @ 9 q q q q q q q a 0.q.q.w.w.w.w.w.w.w.w.w.w.w.w.w.w.w.w.w.w.N w ",
"w w w w w w w w w w w w w w w w w w w w w w q ; + o 2 S J ' *.p.{ ' ^ ^ ^ [ *.{ ] i * < w w w w w w w w w w w w w w w w w w w w ",
"w.w.w.w.w.w.w.w.w.w.w.w.w.w.N w M w.w.w.y.w.t.q + X 6 U  .<.j.j.j.2.>.:.>.g.j.j.p.u   c w.q.N w N w.w.w.y.w.y.y.y.u.u.u.y.y.w.w.",
"w.w.w.w.w.w.w.w.w.w.w.w.w.w.w.w w.w.w.w.9.7.6.8 2 6 S $...i.h.g.f.2.;.:.1.a.d.h.s.W A 5.8.q.w.w w.w.w.w.w.w.w.w.w.w.w.w.w.w.w.w.",
"N N N N N N N N N T w.w.w.w.w.w w.w.w.w.b = * # H } ..d.g.h.f.>.>.;.;.;.&.>.>.4.g.d.d.` h 0.w.w w.w.w.w.w.w.T N N N N N N N N N ",
"N N N N N N N N N N T w.w.w.w.w w.w.w.w.v + O O G U X.d.j.j.s.$.#.#.#.#.#.#.#.=.1.1.2.! y q.w.w w.w.w.w.w.T N N N N N M N N N N ",
"N N N N N N N N N N N w.w.w.w.w w.w.w.w.c + O O F I X.g.j.j.i.o.X.X.X.X.o.o.X.#.;.:.:.Q y q.w.w w.w.w.w.w.N N N N N N M N N N N ",
"w w w z N N N N N N N w.w.w.w.w w.w.w.w.c O O O F I X.g.j.j.i.o.X.X.o.X.o.o.X.#.;.:.>.Q t 9.w.w w.w.w.w.w.N N N N N M M z w w w ",
"w w w w z N N N N N N T w.w.N w N w.w.w.z - = @ C K ~ i.s.g.i.o.X.o.o.X.o.o.o.%.;.+.+.E j w.N w N w.w.w.T N N N N N T z w w w w ",
"w w w w w w w w w w w w w w w w w w w y 0 0 > @ % % B P | 3.i.o.o.X.X.o.o.=.-.;.+.Z 7 4 0 w w w w w w w w w w w w w w w w w w w ",
"w w w w w w z N N N N T w.w.w.w.w.w.q.w.T M n : + @ 5 L I <.i.$.X.o.X.X.o.-.:.:.+.2 . h w.w.w.w.w.w.w.w.T N N N N z w w w w w w ",
"w w w w w w N N N N N w.w.w.w.w.w.w.w.w.w.N M g $ + % V F *.i.X.X.X.X.X.o.-.:.%.W s d 7.w.w.w.w.w.w.w.w.w.N N N N N w w w w w w ",
"w w w w w z N N N N N w.w.w.w.w.w.w.w.w.w.N N M f : $ + + ( *.,.=.#.#.#.#.O.O.! r M M w.w.w.w.w.w.w.w.w.w.N N N N N z w w w w w ",
"z N N N N N N N N N N w.w.w.w.w.w.w.w.w.w.N N N M M x $ + # / f.g.,.#.;.%.Z 1 t M M N q.w.w.w.w.w.w.w.w.w.N N N N N N N N N z w ",
"N N N N N N N N N N N w.w.w.w.w.w.w.w.w.w.N N N N N n $ +   W g.h.<.#.>.%.p o e N N N q.w.w.w.w.w.w.w.w.w.N N N N N N N N N N w ",
"N N N N N N N N N N N w.w.w.w.w.w.w.w.w.w.N N N N N n g d : i ~ _ *.@.R D l g x N N N q.w.w.w.w.w.w.w.w.w.N N N N N N N M T N w ",
"z N N N N N N N N N N T w.w.w.w.w.w.w.w.T N N N N N N N T z :   + _ ) e e n M M N N N 7.w.w.w.w.w.w.w.w.T N N N N N N M M M z w ",
"w w w w w w w w w w w w w w w w w w w w w w w w : e r : , y : # O & 3 w w y q w w w w w w w w w w w w w w w w w w w w w w w w w ",
"N N N N N N N N N N T w.w.w.N w N w.w.w.w.T N N x T Y T T Y g $ @ @ f N N N N N N N 7.w.w.w.N w N w.w.w.w.T N N N N N N N N N N ",
"N N N N N N N N N T w.w.w.w.w.w w.w.w.w.w.w.T N T Y T Y Y T Y Y k x x N N N N N N T q.q.w.w.q.w w.w.w.w.w.w.T N N N N N N N N N ",
"w.w.w.w.w.w.w.w.w.w.w.w.w.w.w.w w.w.w.w.w.w.w.w.w.w.T w.T 0.T T q.w.w.q.w.w.w.w.w.w.w.w.w.q.q.w w.w.w.w.w.w.w.w.w.w.w.w.w.w.w.w.",
"w.w.w.w.w.w.w.w.w.w.w.w.w.w.w.w w.w.w.w.w.w.w.w.w.w.w.w.w.w.w.w.w.w.w.w.w.w.w.N N w.N w.y w y w w.w.w.w.w.w.w.w.w.w.w.w.w.w.w.w.",
"w.w.w.w.w.w.w.w.w.w.w.w.w.w.w.w w.w.w.w.w.w.w.w.w.w.w.w.w.w.w.w.w.w.w.w.w.w.y.w.y.y.w.w.q.q.7.w w.w.w.w.w.w.w.w.w.w.w.w.w.w.w.w.",
"w.w.w.w.w.w.w.w.w.w.w.w.w.w.w.w w.w.w.w.w.w.w.w.w.w.w.w.w.w.w.w.w.w.w.w.w.w.w.w.w.w.w.w.w.w.w.w w.w.w.w.w.w.w.w.w.w.w.w.w.w.w.w.",
"w.w.w.w.w.w.w.w.w.w.w.w.w.w.N w N w.w.w.w.w.w.w.w.w.w.w.w.w.w.w.w.w.w.w.w.w.w.w.w.w.w.w.w.w.N w N w.w.w.w.w.w.w.w.w.w.w.w.w.w.w.",
"w w w w w w w w w w w w w w w w r y 0 y 0 w w w w w w w w w w 0 w w w w w w w w y w w w w w w w w w w w w w w w w w w w w w w w ",
"N w.w.w.y.w.y.y.u.u.u.y.w.y.y.w.w.w.q.q.w.w.w.w.w.w.w.w.w.w.Y e M w.w.w.y.w.y.y.u.u.u.y.w.y.y.w.w.w.w.w.w.w.w.w.w.w.w.w.w.w.N w ",
"w.w.w.w.w.w.w.w.w.w.w.w.w.w.w.w.w.w.w.w.w.w.w.w.w.w.w.w.w.w.w.w w.w.w.w.w.w.w.w.w.w.w.w.w.w.w.w.w.w.w.w.w.w.w.w.w.w.w.w.w.w.w.w ",
"w.w.w.w.w.w.w.w.w.w.w.w.w.w.w.w.w.w.w.w.w.w.w.w.w.w.w.w.w.w.w.w w.w.w.w.w.w.w.w.w.w.w.w.w.w.w.w.w.w.w.w.w.w.w.w.w.w.w.w.w.w.w.w ",
"w.w.w.w.w.w.w.w.w.w.w.w.w.w.w.w.w.w.w.w.w.w.q.q.w.w.w.w.w.w.T w w.w.w.w.w.w.w.w.w.w.w.w.w.w.w.w.w.w.w.w.w.w.w.w.w.w.w.w.w.w.T w ",
"w.w.w.w.w.w.w.w.w.w.w.w.w.w.w.w.w.w.w.w.w.T T T 0.T w.0 w y w w w.w.w.w.w.w.w.w.w.w.w.w.w.w.w.w.w.w.w.w.w.w.N N w.N w.w w w w w ",
"w.w.w.w.w.w.w.w.w.w.w.w.w.w.w.w.w.w.w.w.w.w.w.w.t.w.y.y.w.w.w.0 w.w.w.w.w.w.w.w.w.w.w.w.w.w.w.w.w.w.w.w.w.w.w.w.y.w.y.y.w.w.w.w ",
"N w.w.w.w.w.w.w.w.w.w.w.w.w.w.w.w.w.w.w.w.w.w.w.w.w.w.w.w.w.Y e M w.w.w.w.w.w.w.w.w.w.w.w.w.w.w.w.w.w.w.w.w.w.w.w.w.w.w.w.w.N w ",
"w w w w w w w w w w w w w w w w f d e y y 9 B d 0 y y e 0 y e e w w y w w w w w w w w w w w w w w w w w w w w w w w w w w w w w ",
"w.w.w.w.w.w.w.w.w.w.w.w.w.w.N w N w.w.w.y.w.y.y.y.u.u.u.y.y.w.q.w.w.w.w.q.w.w.w.w.w.w.w.w.w.N w N w.w.w.y.w.y.y.y.u.u.u.y.y.w.w.",
"w.w.w.w.w.w.w.w.w.w.w.w.w.w.w.w w.w.w.w.w.w.w.T w.w.T w.w.w.0.q.w.q.w.w.q.q.w.w.w.w.w.w.w.w.w.w w.w.w.w.w.w.w.w.w.w.w.w.w.w.w.w.",
"w.w.w.w.N N N w.w.N w.w.w w w w w.w.w.w.w.w.T T T Y n Y T Y n T T M M M N N Y M N T w.w.w.w.w.w w.w.w.w.w.w.w.w.w.w.w.w.w.w.w.w.",
"w.w.w.w.w.y.w.w.w.y.y.w.y.w.T w w.w.w.w.w.N N N Y T x T m M T M N N M Y N N N N N N T w.w.w.w.w w.w.w.w.w.w.w.w.w.w.w.w.w.w.w.w.",
"w.w.w.w.w.w.w.w.w.w.w.w.w.w.w.w w.w.w.w.w.N N N Y n n n Y T n M N N M M N N N N N N N w.w.w.w.w w.w.w.w.w.w.w.w.w.w.w.w.w.w.w.w.",
"w.w.w.w.w.w.w.w.w.w.w.w.w.w.w.w w.w.w.w.w.N N N N N T n z w w w e y w z N N N N N N N w.w.w.w.w w.w.w.w.w.w.w.w.w.w.w.w.w.w.w.w.",
"w.w.w.w.w.w.w.w.w.w.w.w.w.w.N w N w.w.w.N N N N N N N g w w w w 0 0 w r z N N N N N N T w.w.N w N w.w.w.w.w.w.w.w.w.w.w.w.w.w.w."
};
