/* XPM */
static char *_352ed299d894884d42d22516c64300bTgVCexQ9n91WBCJS[] = {
/* columns rows colors chars-per-pixel */
"50 50 7 1 ",
"  c None",
". c #3F3851",
"X c #4F6DC0",
"o c #5987C6",
"O c #6198CC",
"+ c #68B8D3",
"@ c #90E3E4",
/* pixels */
"                                                  ",
"                                                  ",
"                                                  ",
"                                                  ",
"                                                  ",
"                                                  ",
"                                                  ",
"                                                  ",
"                                                  ",
"                                                  ",
"                                                  ",
"                                                  ",
"                                                  ",
"                                                  ",
"                                                  ",
"                                                  ",
"                                                  ",
"                                                  ",
"                   .............                  ",
"                  ...oo@@@+++@@@..                ",
"                  ...oo@@@+++@@@..                ",
"                ...oo@@@+++++++@@@.               ",
"                ...XX@@@OOOOOOO+++.               ",
"                ...XX@@@OOOOOOO+++.               ",
"                ...XX@@@OOOOOOO+++.               ",
"                  ...XX@OOOOO+++..                ",
"                  ...XX@OOOOO+++..                ",
"                   ....@OOOOO++.                  ",
"                     ...@@O++..                   ",
"                     ...@@O++..                   ",
"                       ...@..                     ",
"                        ...                       ",
"                        ...                       ",
"                                                  ",
"                                                  ",
"                                                  ",
"                                                  ",
"                                                  ",
"                                                  ",
"                                                  ",
"                                                  ",
"                                                  ",
"                                                  ",
"                                                  ",
"                                                  ",
"                                                  ",
"                                                  ",
"                                                  ",
"                                                  ",
"                                                  "
};
