/* XPM */
static char *b4b72ca7b59c4c5aae5b00af9b385b54SjRQ40aElDYLToT9[] = {
/* columns rows colors chars-per-pixel */
"50 50 18 1 ",
"  c None",
". c #3F3851",
"X c #25667E",
"o c #E44B3B",
"O c #EF895A",
"+ c #F6C27D",
"@ c #5F7D93",
"# c #298A91",
"$ c #37AB9C",
"% c #768EA1",
"& c #48C38A",
"* c #8CA9B5",
"= c #91EA9C",
"- c #FFEFA9",
"; c #A5C2C7",
": c #B2D3CF",
"> c #F0F7F4",
", c #F2F7F6",
/* pixels */
"                                                  ",
"                                                  ",
"                                                  ",
"                                                  ",
"                                                  ",
"                                                  ",
"                                                  ",
"                                                  ",
"                                                  ",
"                                                  ",
"                                                  ",
"                                                  ",
"                                                  ",
"                                                  ",
"                                                  ",
"                                                  ",
"                                                  ",
"                                                  ",
"                                                  ",
"                                                  ",
"                                                  ",
"                                                  ",
"                                                  ",
"                                                  ",
"                                                  ",
"                                                  ",
"                                                  ",
"                                                  ",
"                                                  ",
"                  ... ....  ....                  ",
"                 .+-+.-++O..O+Oo.                 ",
"                 .---.-..+..++OO.                 ",
"                 .+--+-++++O++Oo.                 ",
"                 ................                 ",
"                .>>.;;>;.;;%%.%@@.                ",
"                ..................                ",
"                 .X############X..                ",
"                ..$&&&&&&&&&.&&#.                 ",
"               .>.$$..$&..$.>.&#.                 ",
"               .>>.........>>.&#.                 ",
"               .:>*.===&=.*>:.&#.                 ",
"                .*...&&&...*.&&&&.                ",
"               .&...$&&&$...$&&$&&.               ",
"               .&.X#.....##$&&&.$$.               ",
"                ..########$=&&$X..                ",
"                  .&$........##.                  ",
"                  .$.        .X.                  ",
"                   ..        ..                   ",
"                                                  ",
"                                                  "
};
