/* XPM */
static char *_be6c0d8c7fd408ea31bef0448571a5c[] = {
/* columns rows colors chars-per-pixel */
"64 64 188 2 ",
"   c #04274F",
".  c #3D314D",
"X  c #3E3D55",
"o  c #403B52",
"O  c #583E53",
"+  c #3F4355",
"@  c #3D435A",
"#  c #3D4B5C",
"$  c #3D5964",
"%  c #2E5B72",
"&  c #345B71",
"*  c #3D6468",
"=  c #356A75",
"-  c #2F7273",
";  c #3C7474",
":  c #33727D",
">  c #424259",
",  c #424D5E",
"<  c #564858",
"1  c #47565A",
"2  c #6E4553",
"3  c #664B5D",
"4  c #6A4C5D",
"5  c #704352",
"6  c #735959",
"7  c #7A645C",
"8  c #444E62",
"9  c #4B4F61",
"0  c #5E4C60",
"q  c #455363",
"w  c #4B5666",
"e  c #4B586F",
"r  c #585567",
"t  c #545C6B",
"y  c #505D71",
"u  c #645362",
"i  c #6B5866",
"p  c #6E5967",
"a  c #7A5465",
"s  c #755B65",
"d  c #795A66",
"f  c #426460",
"g  c #4F636B",
"h  c #516B64",
"j  c #526F6F",
"k  c #427162",
"l  c #58677A",
"z  c #477677",
"x  c #6B636C",
"c  c #7A6566",
"v  c #707377",
"b  c #843C4B",
"n  c #92504F",
"m  c #8F5E5B",
"M  c #AD464B",
"N  c #986859",
"B  c #92725E",
"V  c #BB6050",
"C  c #A4785F",
"Z  c #BC7359",
"A  c #885867",
"S  c #915B61",
"D  c #8A676C",
"F  c #92616E",
"G  c #9A7A61",
"H  c #8A6574",
"J  c #8C6A70",
"K  c #926475",
"L  c #9A6572",
"P  c #9D6C76",
"I  c #847B76",
"U  c #937075",
"Y  c #997578",
"T  c #A26A76",
"R  c #A76C78",
"E  c #AA6E79",
"W  c #AD707B",
"Q  c #AB7B7E",
"!  c #D05345",
"~  c #DA6D4F",
"^  c #E87751",
"/  c #F07E53",
"(  c #3E8679",
")  c #3C9A71",
"_  c #578C7C",
"`  c #449473",
"'  c #479B78",
"]  c #618F6D",
"[  c #45A47A",
"{  c #6BA578",
"}  c #9B8569",
"|  c #9C8A6D",
" . c #9D9073",
".. c #B58E69",
"X. c #B9916B",
"o. c #F08558",
"O. c #C08561",
"+. c #C4966A",
"@. c #DF9D69",
"#. c #E69966",
"$. c #CBA06F",
"%. c #D3A16F",
"&. c #C8AD7D",
"*. c #ECA16A",
"=. c #F3A66C",
"-. c #E4B477",
";. c #E9B97A",
":. c #F3BC7A",
">. c #F7C27D",
",. c #2C7783",
"<. c #2D7F86",
"1. c #317A83",
"2. c #586D83",
"3. c #4E7483",
"4. c #687888",
"5. c #737982",
"6. c #6B7E91",
"7. c #B77F83",
"8. c #2E8087",
"9. c #2E8289",
"0. c #358785",
"q. c #3C8D83",
"w. c #38968B",
"e. c #298891",
"r. c #2D9A98",
"t. c #339992",
"y. c #3BA689",
"u. c #3EB28E",
"i. c #36A394",
"p. c #3CA992",
"a. c #3BAB96",
"s. c #3EB898",
"d. c #4F928A",
"f. c #6E8592",
"g. c #778B96",
"h. c #42AD87",
"j. c #45B583",
"k. c #47B984",
"l. c #43B38A",
"z. c #45BD8D",
"x. c #5CBB85",
"c. c #42B792",
"v. c #5EB190",
"b. c #65AE85",
"n. c #75BC84",
"m. c #47C28C",
"M. c #49C58B",
"N. c #5ECF8F",
"B. c #73D795",
"V. c #87878C",
"C. c #898D93",
"Z. c #83979E",
"A. c #AB8181",
"S. c #B28786",
"D. c #B98D8A",
"F. c #BE918D",
"G. c #A18D91",
"H. c #B69992",
"J. c #BBAB83",
"K. c #869CA5",
"L. c #96A6AA",
"P. c #93ABB2",
"I. c #9AADB3",
"U. c #AEADAC",
"Y. c #A4AFB6",
"T. c #B4B9BB",
"R. c #C1938F",
"E. c #C39490",
"W. c #C9B483",
"Q. c #E4BF82",
"!. c #D1B1A5",
"~. c #81CC8C",
"^. c #E8CA8C",
"/. c #EECF90",
"(. c #E7D69A",
"). c #F6DE9C",
"_. c #DCCABE",
"`. c #FFE7A1",
"'. c #FDECA5",
"]. c #FFF1AA",
"[. c #B6C3C6",
"{. c #BBCACD",
"}. c #C4D3D2",
"|. c #D3D7D7",
" X c #D9E0DE",
".X c #DBE7E4",
"XX c #E5EDEA",
"oX c #EAF4F0",
/* pixels */
"p p p p p p p p p p p p p p p p p p p p p p p p p p p p p p p p p p p p p p p p p p p p p p p p p p p p p p p p p p p p p p p p ",
"W E.E.E.E.!.!.!.!.!.E.E.!.E.E.E.E.E.E.E.7.W W W W K p p p p p p p p p p p p K W W W W 7.E.E.E.E.E.E.E.E.E.E.E.E.E.E.E.E.E.E.W p ",
"E.E.E.E.E.E.E.E.E.E.E.E.E.E.E.E.E.E.E.E.E.W W W W W p p p p p p p p p p p p W W W W W E.E.E.E.E.E.E.E.E.E.E.E.E.E.E.E.E.E.E.E.p ",
"E.E.E.E.E.E.E.E.E.E.E.E.E.E.E.E.E.E.E.E.E.W W W W W K p p p p p p p p p p K W W W W W E.E.E.E.E.E.E.E.E.W E.W W W W W E.E.p p p ",
"E.E.E.E.E.E.E.E.E.E.E.E.E.E.E.E.E.E.E.E.E.W W W W W W W W W K p K W W W W W W W W W W E.E.E.E.E.E.E.E.E.E.!.E.!.!.!.E.E.E.E.7.p ",
"E.E.E.E.E.E.E.E.E.E.E.E.E.E.E.E.E.E.E.E.E.W W W W W W W W W W p W W W W W W W W W W W E.E.E.E.E.E.E.E.E.E.E.E.E.E.E.E.E.E.E.E.p ",
"E.E.E.E.E.E.E.E.E.E.E.E.E.E.E.E.E.E.E.E.E.W W W W W W W W W W p W W W W W W W W W W W E.E.E.E.E.E.E.E.E.E.E.E.E.E.E.E.E.E.E.E.p ",
"W E.E.E.E.E.E.E.E.E.E.E.E.E.E.E.E.E.E.E.7.W W W W W W W W W K p K W W W W W W W W W W 7.E.E.E.E.E.E.E.E.E.E.E.E.E.E.E.E.E.E.W p ",
"p p p p p p p p p p p p p p p p p p p p p p p p p p p p p p p p p p p p p p p p p p p p p p p p p p p p p p p p p p p p p p p p ",
"!.!.!.E.E.E.E.E.E.E.E.E.E.E.W p W E.E.E.E.7.W W W W W W W W W W W W W W W W W W W W 7.E.E.E.W p W E.E.E.!.E.!.!.!.!.!.E.E.E.E.E.",
"E.E.E.E.E.E.E.E.E.E.E.E.E.E.E.p E.E.E.E.E.E.7.W W W W W W W W W W W W W W W W W W 7.E.E.E.E.E.p E.E.E.E.E.E.E.E.E.E.E.E.E.E.E.E.",
"E.E.E.E.E.E.E.W W E.W E.E.p p p E.E.E.E.E.E.E.E.E.E.E.E.E.E.E.E.E.E.E.E.E.E.E.E.E.E.E.E.E.E.E.p E.E.E.E.E.E.E.E.E.E.E.E.E.E.E.E.",
"E.E.E.E.E.E.!.E.!.!.E.E.E.E.7.p E.E.E.E.E.E.E.E.E.E.E.E.E.E.E.E.E.E.E.E.E.E.E.E.E.E.E.E.E.E.E.p E.E.E.E.E.E.E.E.E.E.E.E.E.E.E.E.",
"E.E.E.E.E.E.E.E.E.E.E.E.E.E.E.p E.E.E.E.E.E.E.E.E.E.E.E.E.E.E.E.E.E.E.E.E.E.E.E.E.E.E.E.E.E.E.p E.E.E.E.E.E.E.E.E.E.E.E.E.E.E.E.",
"E.E.E.E.E.E.E.E.E.E.E.E.E.E.E.p E.E.E.E.E.E.E.E.E.E.E.E.E.E.E.E.E.E.E.E.E.E.E.E.E.E.E.E.E.E.E.p E.E.E.E.E.E.E.E.E.E.E.E.E.E.E.E.",
"E.E.E.E.E.E.E.E.E.E.E.E.E.E.W p W E.E.E.E.E.E.E.E.E.E.E.E.E.E.E.E.E.E.E.E.E.E.E.E.E.E.E.E.E.W p W E.E.E.E.E.E.E.E.E.E.E.E.E.E.E.",
"p p p p p p p p p p p p p p p p p p p p p p p p p p p p p p p p p p p p p p p p p p p p p p p p p p p p p p p p p p p p p p p p ",
"W E.E.E.!.E.!.!._._._.!.E.!.!.E.E.E.E.E.E.E.E.E.E.E.E.E.E.E.W p W E.E.E.!.E.!.!._._._.!.E.!.!.E.E.E.E.E.E.E.E.E.E.E.E.E.E.E.W p ",
"E.E.E.E.E.E.E.E.E.E.E.E.E.E.E.E.E.E.E.E.E.E.E.E.E.E.E.E.E.E.E.p E.E.E.E.E.E.E.E.E.E.E.E.E.E.E.E.E.E.E.E.E.E.E.E.E.E.E.E.E.E.E.p ",
"E.E.E.E.E.E.E.E.E.E.E.E.E.E.E.E.E.E.E.E.E.E.E.E.E.E.E.E.E.E.E.p E.E.E.E.E.E.E.E.E.E.E.E.E.E.E.E.E.E.E.E.E.E.E.E.E.E.E.E.E.E.E.p ",
"E.E.E.E.E.E.E.E.E.E.E.E.E.E.E.E.E.E.E.E.E.E.E.E.E.E.E.E.E.E.7.p E.E.E.E.E.E.E.E.E.E.E.E.E.E.E.E.E.E.E.E.E.E.E.E.E.E.E.E.E.E.7.p ",
"E.E.E.E.E.E.E.E.E.E.E.E.E.E.E.E.E.E.E.E.E.E.W W E.W E.p p p p p E.E.E.E.E.E.E.E.E.E.E.E.E.E.E.E.E.E.E.E.E.E.W W E.W E.p p p p p ",
"E.E.E.E.E.E.E.E.E.E.E.E.E.E.E.E.E.E.E.E.E.E.E.E.!.E.!.!.E.E.E.p E.E.E.E.E.E.E.E.E.E.E.E.E.E.E.E.E.E.E.E.E.E.E.E.!.E.!.!.E.E.E.p ",
"W E.E.E.E.E.E.E.E.E.E.E.E.E.E.E.E.E.E.E.E.E.E.E.E.E.E.E.E.E.W p W E.E.E.E.E.E.E.E.E.E.E.E.E.E.E.E.E.E.E.E.E.E.E.E.E.E.E.E.E.W p ",
"p p p p p p p p p p p p p p p p p p p p p p p p p p p p p p p p p p p p p p p p p p p p p p p p p p p p p p p p p p p p p p p p ",
"E.E.E.E.E.E.E.E.E.E.E.E.E.E.W p W E.E.E.!.E.!.!.!._._._.!.!.E.E.E.E.E.E.E.E.E.E.E.E.E.E.E.E.W p W E.E.E.!.E.!.!.!._._._.!.!.E.E.",
"E.E.E.E.E.E.E.E.E.E.E.E.E.E.E.p E.E.E.E.E.E.E.E.E.E.E.E.E.E.E.E.E.E.E.E.E.E.E.E.E.E.E.E.E.E.E.p E.E.E.E.E.E.E.E.E.E.E.E.E.E.E.E.",
"W W W W W W W W W 7.E.E.E.E.E.p E.E.E.E.E.E.7.W W W W W W W W W W W W W W W W W W 7.E.E.E.E.E.p E.E.E.E.E.E.7.W W W W W W W W W ",
"W W W W W W W W W W 7.E.E.E.E.p E.E.E.E.E.7.W W W W W W W W W W W W W W W W W W W W 7.E.E.E.E.p E.E.E.E.E.7.W W W W W W W W W W ",
"W W W W W W W W W W W E.E.E.E.p E.E.E.E.E.W W W W W W W W W W W W W W W W W W W W W W E.E.E.E.p E.E.E.E.E.W W W W W W W W W W W ",
"p p p K W W W W W W W E.E.E.E.p E.E.E.E.E.W W W W W W W K p p p p p p K W W W W W W W E.E.E.E.p E.E.E.E.E.W W W W W W W K p p p ",
"p p p p K W W W W W W 7.E.E.W p W E.E.E.7.W W W W W W W p p p p p p p p K W W W W W W 7.E.E.W p W E.E.E.7.W W W W W W K p p p p ",
"p p p p p p p p p p p p p p p p p p p p p p p p p p p p p p p p p p p p p p p p p p p p p p p p p p p p p p p p p p p p p p p p ",
"p p p p p p K W W W W 7.E.E.E.E.E.E.E.E.7.W W W W K p p p p p p p p p p p p K W W W W 7.E.E.E.E.E.E.E.E.7.W W W W K p p p p p p ",
"p p p p p p W W W W W E.E.E.E.E.E.E.E.E.E.W W W W W p p p p p p p p p p p p W W W W W E.E.E.E.E.E.E.E.E.E.W W W W W p p p p p p ",
"p p p p p K W W W W W E.E.E.E.E.E.E.E.E.E.W W W W W K p p p p p p p p p p K W W W W W E.E.E.E.E.E.E.E.E.E.W W W W W K p p p p p ",
"K W W W W W W W W W W E.E.E.E.E.E.E.E.E.E.W W E R R E E E R H i H E W E E R R R E W W E.E.E.E.E.E.E.E.E.E.W W W W W W W W W K p ",
"W W W W W W W W W W W E.E.E.E.E.E.E.E.E.E.W R a 3 3 a T d 3 3 < 4 L W P 4 3 3 3 a R W E.E.E.E.E.E.E.E.E.E.W W W W W W W W W W p ",
"W W W W W W W W W W W E.E.E.E.E.E.E.E.E.E.T D X.W.W...D J.&.+.+.Z S a S Z +.O.V M A T E.E.E.E.E.E.E.E.E.E.W W W W W W W W W W p ",
"K W W W W W W W W W W 7.E.E.E.E.E.E.E.E.7.F 7 ^.`.`.Q.c (.^.$.%.#.N   m *.:.=./ ~ 5 K 7.E.E.E.E.E.E.E.E.7.W W W W W W W W W K p ",
"p p p p p p p p p p p p p p p p p p p p p 0 c (.'.].(.| (.W.7 G -...6 C :.>.=.o.~ 2 0 p p p p p p p p p p p p p p p p p p p p p ",
"W W W W W W W W W W 7.E.E.E.W p W E.E.E.E.P 6 -.).'.).Q.)./.-.-.:.;.@.#.:.:.*.^ ! 5 P E.E.E.W p W E.E.E.E.7.W W W W W W W W W W ",
"W W W W W W W W W 7.E.E.E.E.E.p E.E.E.E.E.A.< B |  .| G | } G G G G N N G G N n b O A.E.E.E.E.p E.E.E.E.E.E.7.W W W W W W W W W ",
"E.E.E.E.E.E.E.E.E.E.E.E.E.E.E.p E.E.E.E.A.G.T.T.5.l g.Z.Y.L.4.8 f.g.f.2.l @ e l y l J A.E.E.E.p E.E.E.E.E.E.E.E.E.E.E.E.E.E.E.E.",
"E.E.E.E.E.E.E.E.E.E.E.E.E.E.E.p E.E.E.E.J V.|.|.C.4.P.I.}.[.g.t K.P.K.6.4.9 l 4.2.2.8 U p p p p E.E.E.E.E.E.E.E.E.E.E.E.E.E.E.E.",
"E.E.E.E.E.E.E.E.E.E.E.E.E.E.E.p E.E.E.E.Y < r t q 8 w w t t q # q w q 8 8 # , 8 > > o U E.E.7.p E.E.E.E.E.E.E.E.E.E.E.E.E.E.E.E.",
"E.E.E.E.E.E.E.E.E.E.E.E.E.E.E.p E.E.E.E.D.Y > % ,.8.8.8.<.<.8.8.9.8.8.<.<.8.8.,.% X o U E.E.E.p E.E.E.E.E.E.E.E.E.E.E.E.E.E.E.E.",
"E.E.E.E.E.E.E.E.E.E.E.E.E.E.W p W E.E.E.A.s , 0.p.u.u.u.u.u.u.u.u.u.u.y.- y.u.i.,., J S.E.E.W p W E.E.E.E.E.E.E.E.E.E.E.E.E.E.E.",
"p p p p p p p p p p p p p p p p p p p u V.C.q i.s.l.[ [ l.m.k.[ [ l.y.b.L.b.j.u.9., u p p p p p p p p p p p p p p p p p p p p p ",
"W E.E.E.!.E.!.!._._._.!.E.!.!.E.E.E.F.d T.|.C.d.t.( X # q.h.` + + 0.d.U..XV.) l.9.w U.!.E.!.!.R.E.E.E.E.E.E.E.E.E.E.E.E.E.E.W p ",
"E.E.E.E.E.E.E.E.E.E.E.E.E.E.E.E.E.E.F.s T.oX Xf.# , 1 1 f f 1 1 o # Y.XXXXV.) u.9.9 A.E.E.E.E.E.E.E.E.E.E.E.E.E.E.E.E.E.E.E.E.p ",
"E.E.E.E.E.E.E.E.E.E.E.E.E.E.E.E.E.E.F.s L..XXXI.y ] ~.~.~.x.x.n.h 4.{.oX}.5.) u.9.9 A.E.E.E.E.E.E.E.E.E.E.E.E.E.E.E.E.E.E.E.E.p ",
"E.E.E.E.E.E.E.E.E.E.E.E.E.E.E.E.E.E.R.Q V.I.{.Z.w j n.B.B.N.x.{ 1 l Y.{.Z._ j.z.y.' I A.E.E.E.E.E.E.E.E.E.E.E.E.E.E.E.E.E.E.7.p ",
"E.E.E.E.E.E.E.E.E.E.E.E.E.E.E.E.E.E.R.S.I _ g.9 . # ( z.m.M.h.* + . l f.z k.M.m.z.m.` v S.R.E.E.E.E.E.E.E.E.W W E.W E.p p p p p ",
"E.E.E.E.E.E.E.E.E.E.E.E.E.E.E.E.E.E.F.c ` [ , + @ ; p.k.k.k.l.w.$ @ , z p.z.M.z.p.z.z.` c F.E.E.E.E.E.E.E.E.E.E.!.E.!.!.E.E.E.p ",
"W E.E.E.E.E.E.E.E.E.E.E.E.E.E.E.E.E.F.d ` [ # % ,.: * f f f * * 1.9.w.p.z.m.M.[ ; p.a.( d F.E.E.E.E.E.E.E.E.E.E.E.E.E.E.E.E.W p ",
"p p p p p p p p p p p p p p p p p p p u h k # ,.e.9.: : : : : 1.e.r.v.B.M.M.c.w.= ; ; g u p p p p p p p p p p p p p p p p p p p ",
"E.E.E.E.E.E.E.E.E.E.E.E.E.E.W p W E.E.E.H.J I z w.i.t.: : : : : : 0.b.n.' y.i.9.e D J A.E.E.W p W E.E.E.!.E.!.!.!._._._.!.!.E.E.",
"E.E.E.E.E.E.E.E.E.E.E.E.E.E.E.p E.E.E.E.E.E.D.u ' c.d.x p p p p p p p s p 3.9.: u D.E.E.E.E.E.p E.E.E.E.E.E.E.E.E.E.E.E.E.E.E.E.",
"E.E.E.E.W W W E.E.W E.E.p p p p E.E.E.E.E.E.Q 3 q.q.u T R R R R R R R R T u & & 3 Q E.E.E.E.E.p E.E.E.E.E.E.E.E.E.E.E.E.E.E.E.E.",
"E.E.E.E.E.!.E.E.E.!.!.E.!.E.7.p E.E.E.E.E.7.E L x $ 3 R W W W W W W W W R 3 @ i L E 7.E.E.E.E.p E.E.E.E.E.E.E.E.E.E.E.E.E.E.E.E.",
"E.E.E.E.E.E.E.E.E.E.E.E.E.E.E.p E.E.E.E.E.W W W L A F E W W W W W W W W E F A L W W W E.E.E.E.p E.E.E.E.E.E.E.E.E.E.E.E.E.E.E.E.",
"E.E.E.E.E.E.E.E.E.E.E.E.E.E.E.p E.E.E.E.E.W W W W E W W K p p p p p p K W W W W W W W E.E.E.E.p E.E.E.E.E.E.E.E.E.E.E.E.E.E.E.E.",
"E.E.E.E.E.E.E.E.E.E.E.E.E.E.W p W E.E.E.7.W W W W W W K p p p p p p p p K W W W W W W 7.E.E.W p W E.E.E.E.E.E.E.E.E.E.E.E.E.E.E."
};
