/* XPM */
static char *xpm_[] = {
/* columns rows colors chars-per-pixel */
"64 64 187 2 ",
"   c #6B5666",
".  c #6E5967",
"X  c #6D5C6A",
"o  c #715A67",
"O  c #745C69",
"+  c #7B5E6B",
"@  c #6C606E",
"#  c #75616D",
"$  c #7A626D",
"%  c #666675",
"&  c #6C6472",
"*  c #676877",
"=  c #696877",
"-  c #6C6B7A",
";  c #746472",
":  c #7B6573",
">  c #756874",
",  c #7C6975",
"<  c #746E7B",
"1  c #7B6E7A",
"2  c #6E717F",
"3  c #73717F",
"4  c #7B717D",
"5  c #845F6D",
"6  c #84626E",
"7  c #8A636F",
"8  c #85686F",
"9  c #846571",
"0  c #8D6571",
"q  c #846B74",
"w  c #8B6C74",
"e  c #846E7A",
"r  c #8C6F79",
"t  c #926572",
"y  c #946C75",
"u  c #9B6974",
"i  c #936E79",
"p  c #9A6F79",
"a  c #847075",
"s  c #8D7276",
"d  c #8A737C",
"f  c #927177",
"g  c #957379",
"h  c #9A757A",
"j  c #967A7C",
"k  c #9D797D",
"l  c #A26D76",
"z  c #A66D79",
"x  c #A96E7A",
"c  c #A37177",
"v  c #A3737A",
"b  c #AD717B",
"n  c #A37B7E",
"m  c #AC7A7C",
"M  c #B4747B",
"N  c #B9777D",
"B  c #B27C7E",
"V  c #BD797E",
"C  c #C1787E",
"Z  c #A4807F",
"A  c #AB817F",
"S  c #B2807F",
"D  c #6A7382",
"F  c #6C7D8B",
"G  c #737582",
"H  c #7A7682",
"J  c #757A87",
"K  c #7A7985",
"L  c #747C89",
"P  c #797E89",
"I  c #897A83",
"U  c #907880",
"Y  c #9E7F80",
"T  c #A57D80",
"R  c #AB7D81",
"E  c #B67F83",
"W  c #C27B80",
"Q  c #D37F82",
"!  c #72818E",
"~  c #7B828D",
"^  c #768793",
"/  c #7C8B95",
"(  c #748B98",
")  c #7B8E99",
"_  c #7E929C",
"`  c #988385",
"'  c #818F98",
"]  c #81929B",
"[  c #A68282",
"{  c #AB8384",
"}  c #AE8984",
"|  c #B28586",
" . c #BC8484",
".. c #B38987",
"X. c #B98B86",
"o. c #B78788",
"O. c #B48988",
"+. c #BB8D8B",
"@. c #B2928E",
"#. c #BE918D",
"$. c #BE998D",
"%. c #BEA396",
"&. c #BEA699",
"*. c #BDAB9D",
"=. c #C48483",
"-. c #C98283",
";. c #C38B87",
":. c #CB8987",
">. c #C38E88",
",. c #CD8E89",
"<. c #D58586",
"1. c #D18886",
"2. c #D18E8A",
"3. c #DD8B8A",
"4. c #C1928E",
"5. c #CD928B",
"6. c #C59B8F",
"7. c #CA998E",
"8. c #D4948E",
"9. c #DB938E",
"0. c #D1988F",
"q. c #C39490",
"w. c #CB9E92",
"e. c #D59990",
"r. c #E18D8B",
"t. c #E0938E",
"y. c #E59690",
"u. c #E89791",
"i. c #E39A92",
"p. c #E89D94",
"a. c #CDA495",
"s. c #CDA79A",
"d. c #CFAC9C",
"f. c #D2A495",
"g. c #DBA294",
"h. c #D2A997",
"j. c #D2AA9C",
"k. c #DCAB9A",
"l. c #CFB09F",
"z. c #DDB19E",
"x. c #E3A296",
"c. c #EAA296",
"v. c #E7A799",
"b. c #EBA699",
"n. c #E4AD9C",
"m. c #EBAB9C",
"M. c #F0AF9E",
"N. c #EBB09E",
"B. c #F1B09F",
"V. c #CCADA1",
"C. c #CFB5A3",
"Z. c #CFB9A7",
"A. c #CFBCAA",
"S. c #D1B1A5",
"D. c #DCB5A5",
"F. c #E4B5A1",
"G. c #EBB5A1",
"H. c #E4B9A3",
"J. c #EDBBA4",
"K. c #EABFA9",
"L. c #F3B4A1",
"P. c #F4BAA5",
"I. c #D5C3B9",
"U. c #E4C3AD",
"Y. c #F5C2A9",
"T. c #FAC6AB",
"R. c #FAC9AD",
"E. c #FBC9AE",
"W. c #FBCAAE",
"Q. c #FBCBAF",
"!. c #E4CCB5",
"~. c #EAC8B2",
"^. c #F3CCB4",
"/. c #FBCBB0",
"(. c #FBCCB0",
"). c #FBCEB2",
"_. c #FCCDB1",
"`. c #FACFB4",
"'. c #E4D2BA",
"]. c #F3D0B7",
"[. c #FBD1B6",
"{. c #FCD2B6",
"}. c #FAD6BA",
"|. c #FCD6BA",
" X c #FCD9BD",
".X c #FADEC2",
"XX c #FCDDC1",
/* pixels */
". . . . . . . . . . . . . . . . o . . . . . . . . o . . . . . . . . . . . . . . . . . o . . . . .   . . . . . . . . . . . . . . ",
"b q.q.q.q.S.S.S.S.S.q.q.C.#.T g w f f s 7 5 6 6 5 O         .               O 6 6 6 5 7 f f f f { 6.q.4.q.q.q.q.q.q.q.q.q.q.x . ",
"q.q.q.q.q.q.q.q.q.q.+.O.A [ [ ..A w n ..$.6.$.&.%.%.&.&.$.Z f f X.$.$.$.%.%.a.*.*.*.$...h w A } [ { [ O.4.4.q.4.q.q.q.q.q.q.q.o ",
"q.q.q.q.q.q.q.q.#.O.{ k j } s.G.f.Z a.J.E.E.E. X{.}..X}.T.k.X.+.N.Q.Q._.}.].}. X.X.X[.J.7.n n.G.a.[ g [ u O.v b b b b q.q.. . . ",
"q.q.q.q.q.q.q.#.| f [ @.d.K.T.E.z.[ h.Y.E.E././.E.E.Q.Q.Q.z.$.$.Y.E.Q.Q.Q.Q.Q.Q.E._.E.Y.s.[ J.T.Y.U.s.@.j [ O.C.S.S.q.q.q.q.E o ",
"q.q.q.q.q.q.#.} h O.D.~.^.[./.T.g.{ f.Y.E./././.Q.E.Q.E.E.k.X.$.J.E.Q.E.E.E.Q.E.E.E.E.J.w.T F.T.E._.].~.j.{ h O.q.q.q.q.q.q.q.. ",
"q.q.q.q.4.n k n #.D.^.[.[.T.P.B.e.n 5.m.m.L.L.L.B.B.L.B.B.0...S v.B.B.B.B.B.B.L.L.L.B.b.,.h i.L.P.E.|.{.^.S.X.n k { q.q.q.q.q.. ",
"x q.q.q.#.q + { F.].[.E.Y.L.c.u.C u B -.8.:.:.:.,.,.,.,.:.V h z =.,.,.,.5.,.,.5.,.:.,.=.m u <.u.b.L.Y.Q.[.^.k.k O h q.q.q.q.x . ",
". . . . . o 8 6.E.(.E.Y.L.p.3.Q M 7 5 9 0 0 0 0 0 0 0 0 0 9 + + 6 6 6 6 7 t 0 0 0 0 0 0 7 t C Q 3.c.B.T.Q.Q.Y.X.9 . . X . . . . ",
"S.S.S...8 $ >.N.E.E.Y.B.u.3.M t + o o 5 u z z x x x x z l t + X = = @ O 7 u l x x x x z u 0 5 t V r.b.B.T.E.Y.m.A $ k +.4.q.q.q.",
"4.4.6...# 8 h.Q.E.E.P.c.<.M 7 o   o 5 t z z z z x z z x z t 5 . % % @ O t l z z z z z z l t 5 + t V 3.m.Y.T.E.T.$.6 q #.q.q.q.q.",
"q.4.6...8 S N.E.E.Y.M.9.V 7 o o O O 5 t t t t t t t t t t 0 + X % % @ O 6 7 7 7 0 0 0 0 0 9 + o # t C i.B.Y.E.E.k.A w #.q.q.q.q.",
"q.q.q...w k.T.E.E.P.p.-.u O o + 9 0 t t y t y y y y y t t 5 O X = = @ o O + $ $ + $ ; $ $ $ $ + O 6 c 1.b.Y.E.E.Y.w.f +.q.q.q.q.",
"q.q.q...s n.E.E.T.P.9.M 8 o O 0 u x R E E o.E E o.E o.E R u 5 O - = @ O 6 y g k k k k k k k h y t 7 t V x.M.T.E.R.f.s #.q.q.q.q.",
"q.q.q.} w k.T.T.Y.m.:.u o o 5 u x b E 4.4.4.+.4.4.4.4.>.o.v 9 O 3 2 @ $ u B X.#.+.+.+.#.+.+.+.O.m l t b 8.M.P.R.Y.7.w #.q.q.q.q.",
"q.q.q.O.$ A #.$.+.| c 6 . o + 0 0 t p h h Y k k k k v U g 0 + . = - @ O 6 y h k k k k k k k k g y 7 $ 7 n | #.$.+.n s #.q.q.q.q.",
". . . . O n +.$.+.S p 6   o . o $ 7 p k k k k k k k k k k g t : - - ; 9 i k k k k k T U k h 0 + o o O 7 c S >.$.X.h O o . . . . ",
"b q.4.O.s g.Y.T.Y.b.:.u . . @ @ : p o.4.4.#.4.4.q.q.q.4.q.>.R r G - 9 T X.q.q.q.4.4.4.q.#.o.p : # @ # c 1.B.Y.E.B.7.w +.4.6.b . ",
"4.q.q.O.s H.E.E.T.L.,.t X = F ! D q } #.q.q.q.q.q.q.q.q.q.q.o.g < = e { #.q.q.q.q.q.q.q.#.R e D F F - c e.P.R.Q.[.h.s #.q.q.6.. ",
"q.q.q...s !.|.Q.T.P.2.u X - ! ! G e } #.q.q.q.q.q.q.q.q.q.q.O.Y G - U { q.q.q.q.q.q.q.q.#.| e G ! L < c 0.P.R.Q. XZ.f $.q.4.4.. ",
"4.4.4.| s '.}.E.T.P.:.u O ; I I U T +.q.q.q.q.q.q.q.q.q.q.q.E U H < d R 4.q.q.q.q.q.q.q.q.+.Y U I I : v e.L.E.Q. XC.g #.q.q. .. ",
"4.6.4.} s U.{.Q.T.P.,.u X $ 0 g k T | O.O.O.O.O.O.o.O.O.o.| R r H H e h } O.o.| o.o.O.O.| | T h y q 6 b e.P.E.Q.}.C.s . . . . . ",
"4.7.6.| s U.}.Q.T.P.,.t . + 9 0 q q w s r w s r r q r r r w 5 : K J 1 9 d g g g g g g g g d g d w q 6 c e.P.Q.Q.|.C.j V.q.q.4.. ",
"b q.4...s U.[.E.T.P.2.u . o O O O O O O O O O O O O O O O O o ; K J e u T | { } | { | | | | | O.{ v 0 c e.P.E.E.(.d.w 4.q.4.b . ",
". . .   8 N.(.Q.E.Y.5.u o + 0 t u u u u u u u u u u u u u t 0 + H < d T +.+.q.#.#.#.#.q.#.q.#.#.+.X.h x e.P.E.E.(.h.# O . . . . ",
"q.q.q.| a N.[.E.T.B.,.u O 7 z x M x x x x R b b b b b x b x u 0 H D U { q.q.q.q.q.q.q.q.q.q.q.q.4.+.n m e.P.E.E./.f.` I.S.S.q.q.",
"q.q.q.| w k.Y.Y.P.m.;.t O 0 u x x x x x z x x z x x x x R z u 0 H J d R +.#.+.#.#.#.#.+.#.#.#.#.#...g c 8.m.J.Y.Y.6.s #.q.q.q.q.",
"b x b l $ ..a.h.w.;.m 7 o + t u u u u u u u u u u u u u u t 0 : < - , y T R { { R { [ { R { T { R h 7 u B 4.a.a.w.m 6 x b b b z ",
"b b x z + T #.@.X.S c 7 o 6 y f h h g k g h g h p p g h h p 0 $ - - > 0 g U v Y Y U k k k k k Y k y 5 0 v | #.$.X.g 5 x x x b b ",
"M x x l 9 5.z.n.k.f.S 7 O w Z ..| o.O.O.O.| O.O.O.| O.O.O.{ T r - * , k { | O.| } | o.| | | | } } T y p  .e.z.z.k.o.9 x M x b b ",
". . . 9 q H._.E.T.B.5.u $ h X.4.q.q.q.q.q.q.q.q.q.q.q.q.q.+.R w ; % , v o.+.q.q.q.q.q.q.q.q.q.q.q.+.h c 8.P.E.E./.j.0 T t . o o ",
". . .   e !. XE.E.B.5.u $ h #.4.q.q.q.q.q.q.q.q.q.q.q.q.o.R r , ; @ > e v o.q.q.q.q.q.q.q.q.q.q.q.+.n b 9.P.E./.XXZ.9 t . . . o ",
". . .   a '. XE.T.P.,.u O y E +.4.4.4.4.4.#.4.#.4.4.4.+.R U I ] J K ' ' e n X.q.4.4.4.4.4.q.q.q.+.E y v e.P.Q.Q. XA.# X . . . . ",
". . .   a U.{.E.T.P.,.t o + 9 y i s f f f f i i i r i t 5 H F _ P J / ) < 9 i g U i p g k g g i g t 6 z e.P.Q.Q.|.l.$ o . . . . ",
". . .   8 U.{.Q.T.P.,.u . . . o o O O + O O O + O O O o o ; L ) P H ^ ) 4 q p k T T Y Y Y T Y T n p 9 z e.P.E.Q.{.l.$ . . . . . ",
". . . . a U.{.Q.T.P.,.u . . + 9 0 0 7 t t 7 t t 0 t t 5 5 ; J ) P J ^ ) 4 v X.4.q.4.4.q.4.q.4.4.4.o.h c 0.L.E.E.|.l.8 o . . . . ",
"w b b u w N.[.Q.T.P.,.u . o 6 u x x x b x x x x x x x x t H G ) J G ^ ) 4 [ #.q.4.q.q.q.q.q.4.4.4.+.v m 8.P.E.E.(.h.6 b b b t . ",
"b b M u a m.E.Q.T.P.,.u . o 6 u x x x M b x b b x b x x t : J ) P J ^ ) 4 v o.q.4.4.q.q.4.q.q.>.4.| h c e.P.E.E.(.s.0 z b b b . ",
"b b b l 7 n.R.E.T.m.:.u . . + 6 t t t t t t t t 0 t t 0 5 ; L ) P J ^ ) 1 q g k Y T Y Y T Y T Y n g 0 c 8.L.E.E.Y.w.0 b M b b . ",
"t b b u 6 X.f.f.f.,.m 7 o + 0 y g g g g g g p g g h g y 9 ; L ) P G / ) < O O O O O O O O O O O o O o t N 5.f.h.e.S 6 x x b t . ",
"o   . o O w j h g y 8 O O u O.+.4.4.#.q.q.#.q.#.#.q.q.+.T q L ) P G ^ ) < O + + + + + + 5 + + + + O o + 7 f h j g 8 . . . . . . ",
"b b b u 6 e.N.Y.J.i.=.t $ g +.4.q.4.q.q.q.q.q.q.q.q.q.#.R U G ) P G ^ / < 9 u z x z z x z z z z l u 7 z :.x.J.P.N.+.7 z b b b b ",
"x b x l a N.[.E.T.L.:.u $ h +.4.q.q.q.q.q.q.q.q.#.q.q.4.R U G ) P G ^ ' H t z x b b x R R x b b b l 7 b 0.B.E.Q.[.s.w b M b b b ",
"4.5.4.| s !.}.E.T.P.2.t O w n | | | | O.| } | O.| O.| R U q F ) J J ^ ) 1 9 u u u u z u l u l p l t 7 c 0.T.E.Q.}.C.s #.4.4.4.6.",
"4.4.4...s '. XE.T.P.,.u o 5 y U Y Y Y Y Y Y U k Y Y h h 0 : L ( P J ^ ) < 9 0 y u u U t p i y u u w 6 z e.P.E.E..XC.g +.q.q.q.q.",
"q.4.4...s U.[.Q.T.P.,.u O 9 p T T T T { T { { R { R R T g q D ^ K D F / 1 i n { R R R R R R T T n h w c e.P.E.Q.{.C.s #.q.q.q.q.",
"q.q.4.} s !.{.Q.T.P.:.u O O 9 9 0 T O.#.#.#.>.#.#.#.#.+.o.h , < - = - 1 i E X.#.#.#.#.#.#.O.R y q q 8 c e.P.E.Q. XC.s +.q.q.q.q.",
"q.q.6.} s U.(.Q.R.P.,.u O - P P H i | q.q.q.q.q.q.q.q.q.>.o.v e - % , p | +.q.q.4.q.q.q.#.O.r K ~ P < c e.P.E.Q.{.d.g +.q.q.q.q.",
". o . . a N._.Q.E.B.5.u @ 2 ^ ( F , R 4.q.q.q.q.q.q.q.q.q.q.o.g < - d R >.q.q.q.q.q.q.q.#.{ e F ( ^ 3 v e.P.Q.Q.Q.h.$ . . . . . ",
"m 4.q...s N.Q.Q.E.J.,.u . @ 2 2 D e R #.#.#.#.#.#.#.+.#.#.#.| i H - d T #.#.q.+.#.#.#.#.+.R e - 2 D * l 0.L.E.Q.E.f.s #.4.6.x . ",
"q.q.q.| w k.Y.T.Y.N.>.u o o @ @ + t T R R T { { { R R { R R U 9 - - e k T { R { R { { { { T w $ @ X O l 8.B.Y.Y.T.a.w #.q.q.4.o ",
"q.q.q.O.$ ..a.a.w.>.m 7 o O $ $ 9 0 t u p i i y i i y y t 0 5 # - - : r g Y U Y j ` g k k k g i w 7 $ y m $.a.a.7.A w #.q.4.4.o ",
"q.q.q.} : m #.$.#. .l 7 O 6 t l l l l u l l u l l u l l u t + X - - , h R o.O.| o.| | | ....| ..| R i t v  .4.$.+.h q #.q.q. .. ",
"q.q.q.O.8 6.k.z.h.0.B 7 O 7 l b b x x b x b b x b x b x x u 5 X - - U { #.q.4.q.q.q.q.q.q.4.4.4.4.+.g c  .0.k.z.k.| i . o . . . ",
"q.q.q.| w D.E.R.Y.B.,.u o 5 u l x z z x x x x z x z z z z t + X = = e R q.q.q.q.q.q.q.q.6.4.4.6.4.+.k c 0.L.T.Q.T.a.j V.q.q.4.. ",
"x q.q.| s !.|.Q.E.L.:.u o o O + + + + + + + + + + 5 + + O O O O - - e T +.#.q.#.q.#.q.+.4.4.4.4.+.o.y b e.L.Q.Q. XZ.s >.q.q.x . ",
". . .   a '.|.E.T.L.8.u   o o O O O O O O O O O O O O O O O o X - = ; 5 i i g g f g g f g g g g f 7 6 l e.Y.E.E. XA.$ . . . . . ",
"4.4.4...s U.{.T.E.L.,.u o 6 p k Y Y Y T Y Y Y Y Y Y Y T n k g 9 = * @   o o O O O O O O O O O O O o + c e.B.T.E.}.l.` I.S.S.q.4.",
"6.q.4...8 n.Y.T.Y.m.:.u O y | 4.q.q.q.q.q.q.q.q.q.q.q.q.q.4.E w - * @ O 5 0 0 0 7 t t 7 7 7 t 7 7 7 6 z 9.B.Y.Y.Y.7.y #.q.q.q.q.",
"q.q.6.S 8 2.c.v.v.t.C t # y  .4.q.#.#.#.+.#.q.#.q.+.#.#.4.+.| i - & @ O 0 l z x z z z x x x x z z l 7 u -.t.c.v.c. .w #.q.q.q.q.",
"q.q.q.| $ c B B m x u 5 O 6 f h k k g k k k k k k k k g k g y : @ @ X o + 0 t 0 7 t t t 7 t 7 t 7 7 + 5 l b B B B u w #.q.q.q.q.",
"q.q.q...$ + 5 + 6 5 O o o o O $ $ $ $ $ $ # $ $ $ $ $ $ : + O o X X . . o O + O O + O O + O + O O O O O O + $ 6 + O q #.q.q.q.q.",
"q.q.q...# . . . .   o . . . . . . . . . . . . . . . . . . . . . . . . . . . . . . . . . . . . . . . o   . . . . . . w #.q.q.q.q.",
"q.q.q.O.# . . . . . . . . . . . . . . . . . . . . . . . . . . . . . . . . . . . . . . . . . . . . . o o . . . . . . q #.q.q.q.q."
};
