/* XPM */
static char *_17e3323c65f41738fbae1f3e860d0e97e3XXxUXZKwAVesR[] = {
/* columns rows colors chars-per-pixel */
"50 50 145 2 ",
"   c None",
".  c #6E5967",
"X  c #6D5C6A",
"o  c #755C6A",
"O  c #7A5E6B",
"+  c #6E616F",
"@  c #7B626D",
"#  c #676574",
"$  c #6B6674",
"%  c #6D6877",
"&  c #666A79",
"*  c #6B6D7C",
"=  c #716371",
"-  c #7D6875",
";  c #726C79",
":  c #71707E",
">  c #815F6D",
",  c #83616E",
"<  c #8B626F",
"1  c #866571",
"2  c #8C6471",
"3  c #856972",
"4  c #8A6D75",
"5  c #926672",
"6  c #946C74",
"7  c #9A6975",
"8  c #9C6E78",
"9  c #8F7378",
"0  c #957277",
"q  c #957279",
"w  c #99777C",
"e  c #9A7B7D",
"r  c #A06E76",
"t  c #A36C78",
"y  c #AA6E7A",
"u  c #A2747B",
"i  c #AD707B",
"p  c #A37A7F",
"a  c #AC7B7D",
"s  c #B1757B",
"d  c #B67C7F",
"f  c #BA787D",
"g  c #667887",
"h  c #6A7A89",
"j  c #717481",
"k  c #757985",
"l  c #797A85",
"z  c #767E8B",
"x  c #7A7E89",
"c  c #A57E80",
"v  c #AE7E82",
"b  c #B77F83",
"n  c #CA7F82",
"m  c #DA7D83",
"M  c #7A828D",
"N  c #6A8392",
"B  c #748D9A",
"V  c #7B939E",
"C  c #7D95A0",
"Z  c #7F98A2",
"A  c #A78082",
"S  c #AE8483",
"D  c #B48486",
"F  c #B98386",
"G  c #BC8C87",
"H  c #BA8688",
"J  c #B48B89",
"K  c #BE8B8B",
"L  c #B5928B",
"P  c #BF938C",
"I  c #86A0A8",
"U  c #C18785",
"Y  c #CC8484",
"T  c #C18F8C",
"R  c #DA8687",
"E  c #D28A88",
"W  c #C2928E",
"Q  c #C39490",
"!  c #C59B92",
"~  c #CA9E93",
"^  c #C09F98",
"/  c #D19990",
"(  c #DA9F94",
")  c #E38B8A",
"_  c #E5938E",
"`  c #E79790",
"'  c #E99D94",
"]  c #C7A094",
"[  c #CCA496",
"{  c #C6A39A",
"}  c #CFA798",
"|  c #D3A296",
" . c #DEA99A",
".. c #DAB09D",
"X. c #ECA297",
"o. c #EDA699",
"O. c #EFAB9C",
"+. c #F1AF9E",
"@. c #F1B09F",
"#. c #E4B8A2",
"$. c #F2B3A1",
"%. c #F6BEA7",
"&. c #F6BDA6",
"*. c #F4B9A4",
"=. c #F7C0A8",
"-. c #F6C4AC",
";. c #F7C5AD",
":. c #F7C0A8",
">. c #F8C2A9",
",. c #F8C3AA",
"<. c #F9C4AB",
"1. c #F9C5AB",
"2. c #F9C7AC",
"3. c #F9C7AD",
"4. c #FAC7AC",
"5. c #F9C5AB",
"6. c #FAC8AD",
"7. c #FBCAAE",
"8. c #FBCAAE",
"9. c #FBCDB1",
"0. c #FBCEB2",
"q. c #FBCFB3",
"w. c #FBCFB3",
"e. c #F6CFB8",
"r. c #FBD0B4",
"t. c #FBD1B5",
"y. c #FBD2B6",
"u. c #FBD3B7",
"i. c #F6D0B8",
"p. c #F7D5BC",
"a. c #FBD4B8",
"s. c #FBD8BC",
"d. c #FBD9BD",
"f. c #FBDBBF",
"g. c #FADDC1",
"h. c #FADEC2",
"j. c #FADEC2",
"k. c #FAE2C6",
"l. c #FAE2C6",
"z. c #FAE4C8",
"x. c #FAE5C9",
"c. c #FAE6CA",
"v. c #FAE5C9",
"b. c #FAE9CD",
"n. c #FAE9CD",
/* pixels */
"                                                                                                    ",
"                      . . . . . . . . . . . . . . . . . . . . . . . . . . .                         ",
"                  @ 3 ] *.0 / 1.7.7.z.0.z.h.=.G A %.7.7.h.0.k.z.z.2.( 4 $.} 3 @                     ",
"              @ e ^ -.7.7.e ..7.7.7.7.7.7.7.7.! J 7.7.7.7.7.7.7.7.7.#.9 7.7.-.{ e ,                 ",
"            , W e.f.t.7.%.w | 2.7.7.7.7.7.7.1.P S ,.7.7.7.7.7.7.7.7. .4 %.7.t.f.i.! 3               ",
"        . 3 ~ p.t.7.%.O.` 6 Y ' ' ' ' ' ' ' ` d u ` ' ' ' ' ' ' ' ' E 2 ` o.%.7.t.p.| 4 .           ",
"        . 3 2.0.7.%.' ) m < O , , , , , , , , O o , , , , , , , , , @ , m ) ' %.7.0.2.4 .           ",
"      . o O.7.7.%.` ) r . . . 2 y i i i i i t , . & # . 2 y i i i i y 2 . 7 ) ` *.7.7.+., .         ",
"      . 4 7.7.7.@.R 8 . . . 1 8 t t t t t t t 2 . & # . 5 t t t t t t 8 > . 7 R O.7.7.7.w o         ",
"      . $.7.7.%.` s . . o > , , , , , , , , > o . & # . . . . . . . . . . . . i _ *.7.7.$.o         ",
"      . 7.7.7.*.Y 5 . O 5 y s F F F F F F b i 2 . * % . , 6 w w w w w w q 6 2 6 n $.7.7.7.@         ",
"      . $.7.1.o.f . . 2 y i H W Q Q Q Q Q W H 5 . j ; . 8 H W Q Q Q Q Q W F y 2 s o.,.7.$.o         ",
"      . 1 3 3 , O . . o O O @ @ @ @ @ @ @ @ @ o . & $ . o @ @ @ @ @ @ @ @ @ O o O , 3 3 1 X         ",
"      . O.7.,.' f . . . . 7 K Q Q Q Q Q Q Q Q H 5 j ; 7 H Q Q Q Q Q Q K 7 . . . s ' =.7.O.o         ",
"      . 0.7.7.*.f . & N N $ S Q Q Q Q Q Q Q Q Q e & $ A Q Q Q Q Q Q Q S $ N N & s $.7.7.0.@         ",
"      . b.7.7.*.f . % M z - J Q Q Q Q Q Q Q Q Q e j ; A Q Q Q Q Q Q Q J - z M % s $.7.7.z.@         ",
"      . f.7.7.*.f . O 6 w v W Q Q Q Q Q Q Q Q K 6 k : u T Q Q Q Q Q Q W v w 6 O s $.7.7.f.@         ",
"      . h.7.7.*.f . O 1 4 4 4 4 4 4 4 4 4 4 4 3 O x k O 3 4 4 4 4 4 4 4 4 4 1 O s $.7.7.h.@         ",
"      . 0.7.7.*.f . . . . . . . . . . . . . . . . x k 5 D J J J J J J J J J v < s $.7.7.0.@         ",
"      . 7.7.7.*.f . > t i i i i i i i i i i i t > j ; A Q Q Q Q Q Q Q Q Q Q Q w s $.7.7.7.@         ",
"      . 1.7.7.$.f . 2 y i i i i i i i i i i i y 2 x k c W Q Q Q Q Q Q Q Q Q W q s @.7.7.1.@         ",
"      . T [ ~ U r . O 5 7 7 7 7 7 7 7 7 7 7 7 5 O j ; 2 p A A A A A A A A A u , 7 U ~ [ W o         ",
"      . S L J a 6 . O 6 w w w w w w w w w w w 6 O * % , q w w w w w w w w w 6 O 5 a J L S o         ",
"      . %.7.7.+.f . q T Q Q Q Q Q Q Q Q Q Q Q T q & # p W Q Q Q Q Q Q Q Q Q T q s O.2.7.=.@         ",
"      . z.7.7.*.f . w Q Q Q Q Q Q Q Q Q Q Q H 8 o X X @ u T Q Q Q Q Q Q Q Q Q w s $.7.7.k.@         ",
"      . b.7.7.*.f . 2 H Q Q Q Q Q Q Q Q Q T u k I l M I ; a W Q Q Q Q Q Q Q H 2 s $.7.7.z.@         ",
"      . 0.7.7.*.f . . . . . . . . . . . . . . ; V l j Z ; o @ @ @ @ @ @ @ @ @ o s $.7.7.0.@         ",
"      . h.7.7.*.f . . o > , , , , , , , , , o ; V l j Z ; u W Q Q Q Q Q Q Q H 6 s $.7.7.h.@         ",
"      . 7.7.7.*.f . . 2 y i i i i i i i i y 2 ; V l j Z ; J Q Q Q Q Q Q Q Q Q w s $.7.7.7.@         ",
"      . 7.7.7.*.f . . 1 t i i i i i i i i y 2 ; V l j Z ; u W Q Q Q Q Q Q Q H 6 s $.7.7.7.@         ",
"      . +.7.1.X.f . . o o O O O O O O O O o o ; V l j Z ; O @ @ @ @ @ @ @ @ @ o s X.,.7.@.o         ",
"      . . . . . . . 2 H Q Q Q Q Q Q Q Q Q H 7 % V l j I ; . . . . . . . . . . . . . . . . .         ",
"      . +.7.1.X.f . w Q Q Q Q Q Q Q Q Q Q Q A ; V l j Z ; 2 y i i i i i i i t > s X.,.7.@.o         ",
"      . a.7.7.*.f . q T Q Q Q Q Q Q Q Q Q W p ; V l j Z ; 7 i i i i i i i i y 2 s $.7.7.t.@         ",
"      . b.7.7.*.f . O 6 w w w w w w w w w q , ; V l j Z ; O 2 2 2 2 2 2 2 2 2 o s $.7.7.z.@         ",
"      . a.7.7.*.f . , u A A A A A A A A A c 6 $ B l * V ; 6 c A A A A A A A A 4 s $.7.7.t.@         ",
"      . z.7.7.*.f . o @ @ u K Q Q Q Q Q Q W F 2 + * # = 6 H Q Q Q Q Q K u @ @ o s $.7.7.k.@         ",
"      . 7.7.7.*.f . : C V % S Q Q Q Q Q Q Q Q K 6 & # u T Q Q Q Q Q Q S % V C : s $.7.7.7.@         ",
"      . 7.7.7.*.f . # h g = D Q Q Q Q Q Q Q Q W w j ; A Q Q Q Q Q Q Q D = g h # s $.7.7.7.@         ",
"      . %.7.7.+.f . . . . 2 p A A A A A A A A u , j ; w A A A A A A A p 2 . . . s O.2.7.=.@         ",
"      . S L J a 6 . o 2 2 2 2 2 2 2 2 2 2 2 2 O . * % , q w w w w w w w w w 6 O 5 a J L S o         ",
"      . T [ ~ U r . 2 y i i i i i i i i i i y 2 . * % p W Q Q Q Q Q Q Q Q Q T q 7 U ~ [ W o         ",
"      . 1.7.7.$.f . > t i i i i i i i i i i t 1 . & $ A Q Q Q Q Q Q Q Q Q Q Q w s @.7.7.1.@         ",
"      . b.7.7.*.f . . . . . . . . . . . . . . . . j ; 7 H Q Q Q Q Q Q Q Q Q H 2 s $.7.7.z.@         ",
"      . z.7.7.*.f . o @ @ @ @ @ @ @ @ @ @ @ @ @ o & # . . . . . . . . . . . . . s $.7.7.k.@         ",
"      . %.7.7.+.f . 6 H Q Q Q Q Q Q Q Q Q Q Q H 6 & # . O , , , , , , , , , , O s O.2.7.=.@         ",
"      . ` O.o._ s . 6 K Q Q Q Q Q Q Q Q Q Q Q K 6 & # . 5 y i i i i i i i i t , y ) o.O.` o         ",
"      . 6 6 6 5 > . O 1 4 4 4 4 4 4 4 4 4 4 4 3 O X X . o , , , , , , , , , O o > 5 6 6 6 o         ",
"      . . . . . . . . . . . . . . . . . . . . . . . . . . . . . . . . . . . . . . . . . . .         ",
"      . . . . . . . . . . . . . . . . . . . . . . . . . . . . . . . . . . . . . . . . . . .         "
};
