/* XPM */
static char *xpm_[] = {
/* columns rows colors chars-per-pixel */
"64 64 173 2 ",
"   c #6B5666",
".  c #6E5967",
"X  c #6E5B69",
"o  c #705967",
"O  c #725B69",
"+  c #7C5E6B",
"@  c #6F616F",
"#  c #77606B",
"$  c #7A626D",
"%  c #676776",
"&  c #6F6371",
"*  c #6F6875",
"=  c #666878",
"-  c #6D6D7C",
";  c #746472",
":  c #7A6371",
">  c #7A6875",
",  c #726C7A",
"<  c #7D6F7D",
"1  c #75737F",
"2  c #7B737E",
"3  c #825F6D",
"4  c #84616E",
"5  c #8A636F",
"6  c #85686F",
"7  c #846472",
"8  c #8C6471",
"9  c #846B72",
"0  c #8B6C73",
"q  c #866C79",
"w  c #886B78",
"e  c #936673",
"r  c #9B6773",
"t  c #956974",
"y  c #9C6975",
"u  c #9F6A78",
"i  c #847075",
"p  c #8D7276",
"a  c #80707C",
"s  c #927276",
"d  c #967779",
"f  c #9B747A",
"g  c #967B7C",
"h  c #9A7A7A",
"j  c #A26D76",
"k  c #A46C79",
"l  c #AA6F7A",
"z  c #A27177",
"x  c #A47279",
"c  c #AD707B",
"v  c #A47C7D",
"b  c #AC7A7C",
"n  c #B4747A",
"m  c #B9777C",
"M  c #B27B7E",
"N  c #BC797D",
"B  c #C1787E",
"V  c #A5807F",
"C  c #AB817F",
"Z  c #B2807F",
"A  c #6E7481",
"S  c #657C8C",
"D  c #737481",
"F  c #7A7581",
"G  c #727A86",
"H  c #7D7C86",
"J  c #727E8C",
"K  c #797E8A",
"L  c #9E7E80",
"P  c #A37E80",
"I  c #B77F83",
"U  c #D37F82",
"Y  c #73808E",
"T  c #718290",
"R  c #778B96",
"E  c #988385",
"W  c #A58282",
"Q  c #AC8483",
"!  c #AD8985",
"~  c #B28685",
"^  c #BE8483",
"/  c #B38A86",
"(  c #B98B85",
")  c #B58B88",
"_  c #B98E89",
"`  c #B1918C",
"'  c #BD918C",
"]  c #BE998D",
"[  c #B49590",
"{  c #BEA396",
"}  c #BEA699",
"|  c #BDAB9D",
" . c #C48483",
".. c #C98283",
"X. c #C38B87",
"o. c #CB8987",
"O. c #C38E88",
"+. c #CD8E89",
"@. c #D48586",
"#. c #D18E8A",
"$. c #DD8B8A",
"%. c #C2938D",
"&. c #CD928B",
"*. c #C59B8F",
"=. c #CA998E",
"-. c #D4948E",
";. c #DB938E",
":. c #D3988F",
">. c #C39490",
",. c #CB9E92",
"<. c #D59A90",
"1. c #E18D8B",
"2. c #E0938E",
"3. c #E89791",
"4. c #E39A92",
"5. c #E89D94",
"6. c #CDA495",
"7. c #CDA79A",
"8. c #CFAC9C",
"9. c #D2A495",
"0. c #DBA294",
"q. c #D2A997",
"w. c #D2AA9C",
"e. c #DCAB9A",
"r. c #CFB09F",
"t. c #DDB19E",
"y. c #EAA296",
"u. c #E7A799",
"i. c #EBA699",
"p. c #E4AD9C",
"a. c #EBAB9C",
"s. c #F0AF9E",
"d. c #EBB09E",
"f. c #F1B09F",
"g. c #CCADA2",
"h. c #CFB5A3",
"j. c #CFB9A7",
"k. c #CFBCAA",
"l. c #D1B1A5",
"z. c #D8B2A3",
"x. c #DEB9A8",
"c. c #E4B9A3",
"v. c #EDBBA4",
"b. c #E5BFA8",
"n. c #EFBFA9",
"m. c #F3B4A1",
"M. c #F4BAA5",
"N. c #D5C3B9",
"B. c #E4C3AD",
"V. c #F5C2A9",
"C. c #FAC6AB",
"Z. c #FAC9AD",
"A. c #FBC9AE",
"S. c #FBCAAE",
"D. c #FBCBAF",
"F. c #E9C6B0",
"G. c #E4CCB5",
"H. c #EBC9B3",
"J. c #F1CBB4",
"K. c #F5CEB5",
"L. c #FBCBB0",
"P. c #FBCCB0",
"I. c #FBCEB2",
"U. c #FACFB4",
"Y. c #E4D2BA",
"T. c #F3D0B7",
"R. c #FBD1B6",
"E. c #FCD2B6",
"W. c #FAD6BA",
"Q. c #FCD6BA",
"!. c #FCD9BD",
"~. c #FADEC2",
"^. c #FCDDC1",
/* pixels */
". . . . . . . . . . . . . . . . X . . . . . X . . . . . . . . . . . . . . . . . . . . . . . X . . . . . . . . . . . O . . . . . ",
"c >.>.>.>.l.l.l.l.l.>.>.l.>.Q d t s p p 5 4 4 4 4 +     . . . .   .   .     o 4 4 4 4 5 s s p V ! %.%.%.>.>.>.>.>.>.>.>.>.>.l . ",
">.>.>.>.>.>.>.>.>.>.>.~ P W ~ ) C 0 v _ %.] ] } { { } { ' C s d Z ] ] ] { { { | | | ] ( f 6 ~ / ! W W ) >.>.>.>.>.>.>.>.>.>.>.O ",
">.>.>.>.>.>.>.>.' ) ~ L d ! 7.v.q.V =.v.A.A.P.!.R.Q.~.Q.C.e./ _ v.A.A.P.Q.R.Q.!.~.~.R.c.=.v p.d.6.W g Q j _ c l l l c >.>.. . . ",
">.>.>.>.>.>.>.%.~ s L [ w.n.C.A.t.Q q.V.P.A.A.L.A.D.D.D.D.t.' ] V.S.S.S.D.D.D.D.D.D.D.V.6.W v.A.V.B.7.` g W _ g.l.l.>.>.>.>.I . ",
">.>.>.>.>.>.>.Q f / z.H.T.U.L.C.q.C 9.V.A.A.A.L.D.A.D.S.C.t._ ' M.S.S.S.A.A.D.A.A.A.A.M.6.V d.A.D.A.K.F.g.~ f _ >.>.>.>.>.>.>.. ",
">.>.>.>.%.P P Q ' x.K.E.U.C.M.f.&.v &.a.f.m.m.m.d.f.f.f.f.<.Z ~ u.f.f.f.M.f.d.M.f.M.f.u.X.f 4.m.V.A.R.R.J.z./ Q P Q >.>.>.>.>.. ",
"c >.>.>.' 9 4 / x.K.E.A.V.m.y.3...y n  .+.+.o.o.+.+.&.+.+.M z z  .+.o.+.+.o.&.o.o.+.o...b y @.3.u.m.V.P.R.J.e.P + f >.>.>.>.l . ",
". . . X . o 0 *.V.P.D.V.f.3.$.@.n 5 5 8 7 3 4 4 7 3 3 4 3 + + + 4 4 4 4 $ 4 4 4 4 4 4 6 4 5 B U $.y.m.V.D.D.V.( 7 . . . . . . . ",
"l.h.h.) 6 # O.d.A.P.V.s.3.1.n e + + e e 4 O o o . o o X X X X X o . . . . # . . # . 5 t e + 4 e B 1.5.m.V.D.V.a.W $ g %.>.>.>.>.",
"%.>.%./ # 6 q.A.A.D.M.y.@.n 5 o O 3 y u 8 o . . . . . . o . . . . . . . . . . . . o e k y + o O t N $.a.V.A.A.V.%.$ 0 ' >.>.>.>.",
">.>.*./ 6 Z d.D.A.V.s.;.m e O o + 4 8 8 3 o . . . . . . . . . . . . . . . . . . . o 5 5 4 + o   O e B 2.m.C.A.A.e.C 0 ' >.>.>.>.",
">.>.>./ 0 e.C.A.A.M.5...y O + 5 e 8 8 + . . . . . . . . . . . . . . . . . . . . . . . . o + O + O + z @.i.M.A.D.V.,.s _ >.>.>.>.",
">.>.%.~ p p.A.A.C.M.;.n 5 $ 8 j l l u 3 O . . . . . . . . . . . . . . . . . . . . . . o + 5 e 5 4 $ 8 m 4.M.D.D.A.6.s ' >.>.>.>.",
">.>.>.~ 6 e.V.A.V.a.#.r + 3 j l l l u 3 . . . . . . . . . . . . . . . . . . . . . . . o 4 y k k r 4 $ c -.f.V.C.M.,.0 >.>.>.>.>.",
">.>.>.! 6 C ' %._ ~ z 3 o 3 5 8 8 8 7 + . . . . . . . . . . . . . . . . . . . . . . . o O 5 8 e 5 $ . 5 x ~ ' ] _ v 0 ' >.>.>.>.",
"X . X   O b ' ] ' M z 4 . o + 3 8 e e 3 + o . . . . . . . . . . . . . o o X . . o   o + 4 8 8 3 O O o 5 z Z ' ] Z v o o o . . . ",
"c >.>./ w 0.V.A.n.i.o.y # ; : e k l l k 3 o . . . . . . . . . . . . .     . . .   o o 3 j l j e $ ; # z #.f.V.C.f.=.p ' %.%.c . ",
">.>.>./ i b.D.A.C.m.+.f G Y - w j c c l e o . . . . X X . . . . . . X o X o . . o   o e l l u : A Y H v ;.M.A.A.E.q.p ' >.>.%.o ",
">.>.>.~ p G.Q.A.A.M.+.f D Y D 0 j l c c e o . . . . .   . . . . . .   o   o . . . o X 8 I l u w D Y F x :.M.D.D.!.j.s ' >.>.>.. ",
">.>.%.~ p G.Q.A.C.M.+.y > a q y l l l l e O . . .     O . . . . . X . . . . X   . . X e l l l t q 2 > z <.M.A.D.^.j.p ' >.>.^   ",
">.>.>./ p B.E.D.C.M.+.y + 7 8 y j j j j 3 O . . . . O   . . . . . . . . . . o o . . o 3 r y u r e 3 $ j <.M.D.A.R.h.s . . . . . ",
">.>.%./ p B.E.D.C.M.+.r O + 4 4 4 4 3 + O . . . . . . . . . . . . . . . . . . . . . O + 7 8 8 8 4 + + k <.M.A.D.Q.h.g g.>.>.>.. ",
"c >.%./ i B.R.D.C.M.+.r O O O O O O O O o . . . . . . . . . . . . . . . . . . . . . 3 e y y j j y e 4 k ;.M.A.D.R.7.p ' >.>.c . ",
". . . . 9 d.R.A.A.M.&.y 4 8 t r r y 8 + . . . . . . . . . . . . . . . . . . . . . O e l l l l l c u e x :.M.A.A.D.q.# O . . . . ",
">.>.>.! p p.P.P.A.f.+.z 5 k n l l l k 3 . . . . . . . . . . . . . . . . . . . . . O y c c c c l k c e z :.M.A.A.D.q.E N.l.l.>.>.",
">.>.>.~ 0 e.V.V.M.a.O.r 5 k l l l l k 3 O . . . . . . . . . . . . . . . . . . . . O e l l l l l c j 8 j &.d.V.V.V.,.9 %.>.>.>.>.",
"c c c j $ ( ,.7.6.X.b 5 4 5 r t r e 8 + . . . . . . . . . . . . . . . . . . . . . O 3 e y r e y e 5 4 e b &.6.6.,.b 4 l c c c c ",
"c c l j + P ' ' ( C z 5 + 5 e e 8 4 + o   o . . . . . O . . . . . . . . . . . . . . O O + + 5 8 e 7 + 5 x ~ ' ' ( f 4 l c c c l ",
"k c l j 7 &.t.t.e.9.Z t 4 r r j u e + o o o . . . . . . . . . . . . . . . . . . . . . . . + e y r r 4 y ^ 0.t.t.e.( 4 l c c c c ",
"O . . 4 0 b.P.A.C.f.-.j e l l c P k 3 O     X . . . . . . . . . . . . . . . . . . . . . O 4 j c c k e k :.m.A.A.L.8.7 l e . . . ",
"X . . . q G.Q.A.C.f.&.j e l c c l k 3   O # &   . . . . . . . . . . . . . . . . X X & . O + j c c k e c :.M.A.P.!.j.w e . . . . ",
". . .   i Y.Q.S.C.M.+.y 8 k l c l r + o A T J & . . . . . . . . . X . . . . .   X J J A   + L u P r 3 l <.M.L.L.!.k.# X . . . . ",
". . .   9 B.E.D.C.M.+.r + 3 3 4 3 + X o - S J & . . . . . . . . . . . . . . . o A J S A . X + 8 3 3 3 u <.M.L.A.E.r.$ . . . . . ",
". . .   i B.E.S.C.M.+.r   . X O X o . . = S T &   o . . . . . . . . . . . . .   & J S =   . O 3 8 8 3 u <.M.L.C.E.r.$ . . . . . ",
". .     i B.E.S.P.m.o.r X + 5 8 8 O . . = S T & . . . . . . . . . . . . . . . o X S S = o . + r k u 8 l ;.M.A.L.Q.l.6 . . . . . ",
"e c c r 0 d.R.S.C.m.&.y O 8 u k y + X o = S T &   . . . . . . . . . . . . . .   & J S A     + r l k e k $.m.A.A.A.q.8 x c c e . ",
"c c b y q p.D.S.C.M.+.y O 4 j c u + o . = S T & o o . . . . . . . . . . . . . o * J S A O O + r l j e k ;.M.A.A.P.q.7 l c c c . ",
"c c c j 0 p.A.S.C.a.+.r O + 8 e 4 + o . = S J ; . . . . . . . . . . . . . . .   & J S =   O O 3 8 8 3 u -.m.C.A.V.,.7 l c c c . ",
"e x c j 4 ^ 9.q.9.+.b 5 O 3 8 8 5 + O . = S T @   . . . . . . . . . . . . . . o # S S A O   o o o o o r I +.9.w.9.Z 7 l c c e . ",
"o . O . O 0 d h d t 7 + 8 k l l l e 3 o = S J # o . . . . . . . . . . . . . .   @ T S = o o O + + o o # 6 s d h s 0 o . . . . . ",
"c l l y 6 <.v.v.v.4. .u e l n l P k 3 o = S J &   . . . . . . . . . . . . . . . ; J S = o + e u e 4 O r o.i.d.M.d.X.5 l c c c c ",
"c n l j 0 c.D.D.C.s.o.j 8 l l l l k 3 o A S J * o . . . . . . . . . . . . . . o & T S = O 3 r P r 5 + j <.d.S.S.S.7.9 l c c c c ",
"%.%.%.~ p G.E.D.A.M.+.u 7 r y u y e +   A S J *   . . . . . . . . . . . . . .   & T S =   + e u e 4 + j <.V.S.P.Q.j.p ' >.>.>.%.",
">.>.%.~ p G.Q.D.n.M.$.u 3 3 8 8 8 3 O   % S S X . . . . . . . . . . . . . . . . & T S % O + 4 8 4 + O z <.M.P.S.^.j.s >.>.>.>.>.",
">.>.>.~ p B.E.D.A.M.#.u + 8 r r e 8 + X % S J & . . . . . . . . . . . . . . . . & J S % + 8 e r e 4 4 l <.M.S.S.E.g.p _ >.>.>.>.",
">.>.%./ i G.Q.A.n.M.U e O 3 8 r P j : O X % * X . . . . . .   . . . . . . . . . X * % @ 3 j k e 5 $ O z <.M.S.L.!.l.s ' >.>.>.>.",
">.>.%./ p B.R.D.J.m.@.L F K F e j j + O   X X   . . . . . . X . . . . . . . . . X X X X 5 l j 8 2 H 2 x -.M.S.S.E.r.p ' >.>.>.>.",
". . . . 6 d.P.A.A.f.&.f K R 1 9 j j 3 O o o . . . . . . . . . . . . . . . . . . . . . O 8 k j : G R H v <.M.D.S.S.9.# O . . . . ",
"c >.>./ p p.P.R.A.M.+.f 1 G , 7 u u +   O   . . . . . . . . . . . . . . . . . . . . . O 7 j u 7 - G 2 x :.M.S.D.D.9.s _ >.>.c . ",
">.>.>.Q 0 t.V.A.V.d.+.r X o + 7 e 8 + X . . . . . . . . . . . . . . . . . . . . . . . O + 8 e 7 O @ O j -.d.V.A.V.6.0 ' >.>.>.. ",
">.>.>./ $ / 6.6.*.O.b 6 O 4 5 5 8 8 3 O o . . . . . . . . . . . . . . . . . . . . . O o 3 8 e 8 8 + + e b ' 6.6.=.C 0 ' >.>.>.. ",
">.>.>./ : P _ ] ' ~ z 8 8 t u u j u e 3 X . . . . . . . . . . . . . . . . . . . . . . 3 u u y j y t 4 e x ~ ' ] _ f 0 _ >.>.^   ",
">.>.>.~ 0 %.e.t.e.:.M e 8 l c c l l k 3 X . . . . . . . . . . . . . . . . . . . . . O e l l l c l k 8 y  .<.e.e.e.) 0 . . . . X ",
">.>.>./ 0 c.A.A.V.f.+.y 7 r k l k k r 3 o o . . . . . . . . . . . . . . . . . . . . . e l l n l c k e x :.m.C.A.C.7.g g.>.>.>.. ",
"c >.>.~ p G.Q.D.C.M.+.r O + + + + + + X o   . . . . . . . . . . . . . . . . . . . . o 7 j l l l l y 8 k <.M.A.P.!.l.s ' >.>.l . ",
". . .   i G.Q.A.C.M.+.r . o O O X o . o o . . . . . . . . . . . . . . . . . . . . . . O 4 8 8 8 5 4 + c <.M.A.A.^.k.+ . . . . . ",
"%.%.%./ p B.E.C.A.f.-.r + 5 e e 8 3 O X . . . . . . . . . . . . . . . . . . . . . . . . . O O O o o . z ;.M.A.A.Q.r.E N.l.l.>.>.",
">.>.%./ 0 p.V.C.M.a.+.y 8 j c c l y + . . . . . . . . . . . . . . . . . . . . . . . . . O 4 8 e 5 o O j -.f.V.V.M.=.s %.>.>.>.>.",
">.>.%.~ 4 &.i.u.i.2.B r 8 j l l l u + O . . . . . . . . . . . . . . . . . . . . . . . . 3 j j k r 5 o r ..2.i.u.y.^ 0 ' >.>.>.>.",
">.>.>./ 4 z M M M l r 3 + 5 e 8 8 7 O O . . . . . . . . . . . . . . . . . . . . . . . O + 8 8 e 4 + o 4 r c M M b y 0 >.>.>.>.>.",
">.>.>./ # + $ + $ 3 + o O O O + O O O . . . . . . . . . . . . . . . . . . . . . . . . . o O + o o o o o + + $ 4 $ + 7 _ >.>.>.>.",
">.>.>./ # . . . . . . . . . . . . . . . . . . . . . . . . . . . . . . . . . . . . . . . . . . . . . o o . . . . . o 9 ' >.>.>.>.",
">.>.>./ O . . . . . . . . . . . . . . . . . . . . . . . . . . . . . . . . . . . . . . . . . . . . . . o . . . . . . q ' >.>.>.>."
};
