/* XPM */
static char *_c196ea992cf4720e4445ea5fd8d4851ABgejQlfj2c75Jrx[] = {
/* columns rows colors chars-per-pixel */
"50 50 137 2 ",
"   c None",
".  c #6E5967",
"X  c #6D5B6A",
"o  c #745B69",
"O  c #7B5D6B",
"+  c #6F616F",
"@  c #79616D",
"#  c #6B6574",
"$  c #686877",
"%  c #6F6A78",
"&  c #776776",
"*  c #766977",
"=  c #736E7B",
"-  c #76717D",
";  c #815F6E",
":  c #83616E",
">  c #8A636F",
",  c #846370",
"<  c #8C6471",
"1  c #846A72",
"2  c #8C6E74",
"3  c #936673",
"4  c #986776",
"5  c #946972",
"6  c #9A6975",
"7  c #9F6A78",
"8  c #8F7378",
"9  c #957277",
"0  c #967579",
"q  c #9E777A",
"w  c #9A7C7E",
"e  c #A06E76",
"r  c #A46C79",
"t  c #A96E7A",
"y  c #A67479",
"u  c #AD707B",
"i  c #A1787B",
"p  c #AC7C7E",
"a  c #B1757B",
"s  c #B67C7F",
"d  c #BA787D",
"f  c #5F7586",
"g  c #787782",
"h  c #7A7C87",
"j  c #777F8C",
"k  c #CA7F82",
"l  c #DA7D83",
"z  c #6F828F",
"x  c #77818C",
"c  c #728492",
"v  c #728896",
"b  c #738D99",
"n  c #7C949F",
"m  c #AD8281",
"M  c #BC8C87",
"N  c #B28E88",
"B  c #B5928B",
"V  c #BF938C",
"C  c #C18785",
"Z  c #CC8484",
"A  c #C38F89",
"S  c #DA8687",
"D  c #D28A88",
"F  c #C3918C",
"G  c #C59B92",
"H  c #CA9E93",
"J  c #C09F98",
"K  c #D19990",
"L  c #DA9F94",
"P  c #E38B8A",
"I  c #E5938E",
"U  c #E79790",
"Y  c #E99D94",
"T  c #C7A094",
"R  c #CCA496",
"E  c #C6A39A",
"W  c #CFA798",
"Q  c #D3A296",
"!  c #DEA99A",
"~  c #DAB09D",
"^  c #ECA297",
"/  c #EDA699",
"(  c #EFAB9C",
")  c #F1AF9E",
"_  c #F1B09F",
"`  c #E4B8A2",
"'  c #F2B3A1",
"]  c #F5BCA5",
"[  c #F6BCA6",
"{  c #F6BDA6",
"}  c #F6BDA7",
"|  c #F6BEA7",
" . c #F6BFA7",
".. c #F7BFA7",
"X. c #F4B9A4",
"o. c #F7C0A8",
"O. c #F6C4AC",
"+. c #F7C5AD",
"@. c #F7C0A8",
"#. c #F8C2A9",
"$. c #F8C3AA",
"%. c #F9C4AB",
"&. c #F9C5AB",
"*. c #F9C7AC",
"=. c #F9C7AD",
"-. c #FAC7AC",
";. c #F9C5AB",
":. c #FAC8AD",
">. c #FBC9AD",
",. c #FBCAAE",
"<. c #FBCAAE",
"1. c #FBCDB1",
"2. c #FBCEB2",
"3. c #FBCFB3",
"4. c #FBCFB3",
"5. c #F6CFB8",
"6. c #FBD0B4",
"7. c #FBD1B5",
"8. c #FBD2B6",
"9. c #FBD3B7",
"0. c #F6D0B8",
"q. c #F7D5BC",
"w. c #FBD4B8",
"e. c #FBD8BC",
"r. c #FBD9BD",
"t. c #FBDBBF",
"y. c #FADDC1",
"u. c #FADEC2",
"i. c #FADEC2",
"p. c #FAE2C6",
"a. c #FAE2C6",
"s. c #FAE4C8",
"d. c #FAE5C9",
"f. c #FAE6CA",
"g. c #FAE5C9",
"h. c #FAE9CD",
"j. c #FAE9CD",
/* pixels */
"                                                                                                    ",
"                      . . . . . . . . . . . . . . . . . . . . . . . . . . .                         ",
"                  O 1 T X.9 K &.,.,.s.2.s.u.o.M m } ,.,.u.2.p.s.s.*.L 2 ' W 1 O                     ",
"              @ w J O.,.,.w ~ ,.,.,.,.,.,.,.,.G N ,.,.,.,.,.,.,.,.,.` 8 ,.,.O.E w @                 ",
"            @ F 5.t.7.,.} 0 Q *.,.,.,.,.,.,.&.V m $.,.,.,.,.,.,.,.,.! 2 } ,.7.t.0.G :               ",
"        . q H q.7.,.} ( U 5 Z Y Y Y Y Y Y Y Y s y Y Y Y Y Y Y Y Y Y D < U / } ,.7.q.Q i .           ",
"        . 1 *.2.,.} Y P l > O : : : : : : : : O O : : : : : : : : : @ : l P Y } ,.2.*.2 .           ",
"      . O ( ,.,.} Y P e . . 7 4 o . . . . . . . . . . . . . . . . 4 r . . 6 P Y X.,.,.) : .         ",
"      . 2 ,.,.,._ S 7 . . ; 7 r o . . . . . . . . . . . . . . . . r 7 , . . 6 S ( ,.,.,.0 .         ",
"      . ' ,.,.} U a . o ; : O o . . . . . . . . . . . . . . . . . . . . . . . y I X.,.,.' O         ",
"      . ,.,.,.X.Z 3 O 3 t u r O . . . . . . . . . . . . . . . . . . o < < < O < k ' ,.,.,.@         ",
"      . ' ,.&./ d . < t u u 7 o . . . . . . . . . . . . . . . . . . o 7 u t < . a / $.,.' O         ",
"      . , 1 1 : O . o O O O o . . . . . . . . . . . . . . . . . . . . o O O o . O : 1 1 , .         ",
"      . ( ,.$.Y d . . ; r u u 4 o . . . . . . . . . . . . . . . . o 4 u r , . . a Y o.,.( O         ",
"      . 2.,.,.X.d g b $ 4 u u u o . . . . . . . . . . . . . . . . o u u 6 # b h a ' ,.,.2.@         ",
"      . h.,.,.X.d = x * 6 u u u o . . . . . . . . . . . . . . . . o u u 7 & j - a ' ,.,.s.@         ",
"      . t.,.,.X.d o : 6 t u u r o . . . . . . . . . . . . . . . . o r u t 6 < O a ' ,.,.t.@         ",
"      . u.,.,.X.d o O : : : : O . . . . . . . . . . . . . . . . . . O : : : O o a ' ,.,.u.@         ",
"      . 2.,.,.X.d . . . . . . . . . . . . . . . . . . . . . . . . < r r r r 6 O a ' ,.,.2.@         ",
"      . ,.,.,.X.d O 7 u u u 4 o . . . . . . . . . . . . . . . . . u u u u u u < a ' ,.,.,.@         ",
"      . &.,.,.' d : t u u u t O . . . . . . . . . . . . . . . . . t u u u u t < a _ ,.,.&.@         ",
"      . A R H C e O < 6 6 6 < o . . . . . . . . . . . . . . . . . < 6 6 4 4 < O 6 C H R F O         ",
"      . m B N p 5 o : < < : o . . . . . . . . . . . . . . . . . . . . o : < < O 3 p N B m o         ",
"      . } ,.,.) d : t u u r O . . . . . . . . . . . . . . . . . . . . O r u t < a ( *.,.o.@         ",
"      . s.,.,.X.d > u u u u O . . . . . . . . . . . . . . . . . . . . O u u u < a ' ,.,.p.@         ",
"      . h.,.,.X.d O 7 u u 6 O . c v . . . . . . . . . . . . . . v c . O 6 u r ; a ' ,.,.s.@         ",
"      . 2.,.,.X.d . . . . . . . f v . . . . . . . . . . . . . . v f . . o O O o a ' ,.,.2.@         ",
"      . u.,.,.X.d . o O : o . . f v . . . . . . . . . . . . . . v f . . O r r : a ' ,.,.u.@         ",
"      . ,.,.,.X.d . : r u : . . f v . . . . . . . . . . . . . . v f . . : u u < a ' ,.,.,.@         ",
"      . ,.,.,.X.d . : r u : . . f v . . . . . . . . . . . . . . v f . . O r r : a ' ,.,.,.@         ",
"      . ) ,.&.^ d . o O O o . . f v . . . . . . . . . . . . . . v f . . o O O o a ^ $.,._ O         ",
"      . . . . . . O 7 u u 6 O . f v . . . . . . . . . . . . . . v f . . . . . . . . . . . .         ",
"      . ) ,.&.^ d > u u u u O . f v . . . . . . . . . . . . . . v f . O 7 r : . a ^ $.,._ O         ",
"      . w.,.,.X.d : t u u r O . f v . . . . . . . . . . . . . . v f . O r t < . a ' ,.,.7.@         ",
"      . h.,.,.X.d o : < < : o . f v . . . . . . . . . . . . . . v f . o : < O . a ' ,.,.s.@         ",
"      . w.,.,.X.d O < 6 6 < o . f v . . . . . . . . . . . . . . v f o < 6 6 3 O a ' ,.,.7.@         ",
"      . s.,.,.X.d o O < r t O . X + . . . . . . . . . . . . . . + X O t r < O o a ' ,.,.p.@         ",
"      . ,.,.,.X.d g n = 4 u O . . . . . . . . . . . . . . . . . . . O u 6 % n h a ' ,.,.,.@         ",
"      . ,.,.,.X.d - c # 6 t O . . . . . . . . . . . . . . . . . . . O t 7 # z g a ' ,.,.,.@         ",
"      . } ,.,.) d . . O 3 < o . . . . . . . . . . . . . . . . . . . o < 3 O . . a ( *.,.o.@         ",
"      . m B N p 5 o : < < < : o . . . . . . . . . . . . . . . . . o ; < < < < O 3 p N B m o         ",
"      . A R H C e : t u u u r O . . . . . . . . . . . . . . . . . o r u u u t < 6 C H R F O         ",
"      . &.,.,.' d O r u u u 7 o . . . . . . . . . . . . . . . . . o u u u u u < a _ ,.,.&.@         ",
"      . h.,.,.X.d . . . . . . . . . . . . . . . . . . . . . . . . o 4 u u u r ; a ' ,.,.s.@         ",
"      . s.,.,.X.d o O O O o . . . . . . . . . . . . . . . . . . . . . . . . . . a ' ,.,.p.@         ",
"      . } ,.,.) d ; r u u r O . . . . . . . . . . . . . . . . . . . o O : : O . a ( *.,.o.@         ",
"      . Y ( / I a : r u u r O . . . . . . . . . . . . . . . . . . . O r u t < . t P / ( Y O         ",
"      . 5 5 5 3 ; o O : : O o . . . . . . . . . . . . . . . . . . . o : : ; o . ; 3 5 5 5 o         ",
"      . . . . . . . . . . . . . . . . . . . . . . . . . . . . . . . . . . . . . . . . . . .         ",
"      . . . . . . . . . . . . . . . . . . . . . . . . . . . . . . . . . . . . . . . . . . .         "
};
