/* XPM */
static char *xpm_[] = {
/* columns rows colors chars-per-pixel */
"64 64 116 2 ",
"   c #341D3D",
".  c #371E41",
"X  c #381F42",
"o  c #3C2046",
"O  c #3E224A",
"+  c #41234D",
"@  c #452552",
"#  c #492756",
"$  c #492857",
"%  c #4A2758",
"&  c #4D295B",
"*  c #502B5F",
"=  c #542D64",
"-  c #572F68",
";  c #582F68",
":  c #5B316C",
">  c #5F3370",
",  c #633575",
"<  c #673779",
"1  c #673879",
"2  c #6A3A7D",
"3  c #6E5967",
"4  c #6F556D",
"5  c #6F586A",
"6  c #725573",
"7  c #75517C",
"8  c #8D5D7D",
"9  c #8F607B",
"0  c #926475",
"q  c #A1677F",
"w  c #A4697D",
"e  c #AB6E7D",
"r  c #AD707B",
"t  c #6E3D80",
"y  c #703F83",
"u  c #734185",
"i  c #744A83",
"p  c #784E84",
"a  c #764489",
"s  c #79458C",
"d  c #7B4C8B",
"f  c #775081",
"g  c #7B4790",
"h  c #7D4892",
"j  c #814E85",
"k  c #814C8C",
"l  c #875285",
"z  c #8B5584",
"x  c #86508C",
"c  c #8B548D",
"v  c #875989",
"b  c #895A8B",
"n  c #925B81",
"m  c #985F84",
"M  c #955D8A",
"N  c #824D92",
"B  c #855293",
"V  c #8B5690",
"C  c #8D5C91",
"Z  c #8E608B",
"A  c #9A6087",
"S  c #90618C",
"D  c #9B668C",
"F  c #986B8B",
"G  c #9E718B",
"H  c #936392",
"J  c #946D91",
"K  c #9D6D92",
"L  c #997098",
"P  c #9D7B9F",
"I  c #A26782",
"U  c #A56A80",
"Y  c #A06A8B",
"T  c #AC7686",
"R  c #A5778E",
"E  c #AA7388",
"W  c #A6788F",
"Q  c #AB7D8F",
"!  c #B77F83",
"~  c #A27392",
"^  c #A77890",
"/  c #A87991",
"(  c #A97A91",
")  c #B2848D",
"_  c #B3858E",
"`  c #B7888E",
"'  c #B7898E",
"]  c #B88A8E",
"[  c #BF918F",
"{  c #AA859C",
"}  c #AF8C99",
"|  c #B38490",
" . c #B48591",
".. c #B58591",
"X. c #B48690",
"o. c #B58691",
"O. c #B88991",
"+. c #B98A91",
"@. c #BF9090",
"#. c #BE9D9E",
"$. c #AA8DA5",
"%. c #BF9DA0",
"&. c #BEA7AF",
"*. c #C0918F",
"=. c #C09190",
"-. c #C39490",
";. c #C3A3A1",
":. c #C4A3A2",
">. c #C5A4A2",
",. c #CCACA4",
"<. c #CDACA4",
"1. c #CDADA4",
"2. c #D1B1A5",
"3. c #C8B2B4",
"4. c #CEBAB7",
"5. c #DCCABE",
/* pixels */
"3 3 3 3 3 3 3 3 3 3 3 3 3 3 3 3 5 5 3 3 6 d d 6 3 3 6 d h h h h h h d 6 5 5 3 3 3 3 3 3 3 3 5 3 3 3 3 3 5 3 3 3 3 3 3 3 3 3 3 3 ",
"r -.-.-.-.2.2.2.2.2.-.-.2.-.-.-.-.-.[ -.T M M U e 9 7 d h h h g h h d 7 6 6 8 e r r r ! -.-.=.+.+.+.-.-.-.-.-.-.-.-.-.-.-.-.r 3 ",
"-.-.-.-.-.-.-.-.-.-.-.-.-.-.-.-.-.-.-.-.-.U U e U M k h h a a a a h h d d d M w r r e -.-.-.+.~ ~ +.-.-.-.-.-.-.-.-.-.-.-.-.-.3 ",
"-.-.-.-.-.-.-.-.-.-.-.-.=.+. . .O.@.-.-.-.r e w A x h h s a u u a s g g g N x A I I w =.-.-.+.H C ( +.=.r -.r r r r r -.-.3 3 3 ",
"-.-.-.-.-.-.-.-.-.-.-.-.+.~ H H ~ +.-.-.-.r U M V N h s a y u a u a a s a h N B x x M +.-.-. .H N C ~ +.=.2.-.2.2.2.-.-.-.-.! 3 ",
"-.-.-.-.-.-.-.-.-.-.=.+.^ C h C ~ +.-.-.@.U m x h h s a a y y t y y y u a s h s h h V ( +.=.+.~ C N V ( +.=.-.-.-.-.-.-.-.-.-.3 ",
"-.-.-.-.-.-.-.-.-.-.+.~ C d b R +.@.-.-.+.M x N g g a a y t 2 1 2 2 2 y u a a a a h N C ~ +.=.+.R b d b ( | -.-.-.-.-.-.-.-.-.3 ",
"r -.-.-.-.-.-.-.-.-. .H N b G ' -.-.@.+.Y V h h s y y y t < < < < < 2 y y u u u a s h h C ( +.=.] Y b N C ( +.=.-.-.-.-.-.-.r 3 ",
"3 3 3 3 3 3 3 3 3 3 6 d d 7 4 3 5 5 6 p d h h a s u u 2 < , > < < < < 1 2 u u u a a s s h d p 6 3 4 7 i a d p 6 3 3 3 3 3 3 3 3 ",
"2.2.2.-.-.-.-.-.=.+.^ C H | e 3 e +.^ C h s s a u u 2 < , : ; ; < < < < 1 y y y u u a s g h x 7 U [ ' G Z k L %.2.2.,.+.+.@.-.-.",
"-.-.-.-.-.-.-.-.+.~ b k S _ *.3 +.~ C N h s a u u 2 < : ; * * ; : = , < 1 1 2 1 2 y a a s h N d ~ +.@.' ^ C H | -.-.+.~ ~ -.-.-.",
"-.-.-.-.-.-.-.r I H d c G 4 5 6 ( C h h s a u u y 2 , = = ; = & ; , > , < 1 1 < 2 y y y a s h N C ^ +.[  .H H  .-.-.+.~ ~ -.-.-.",
"-.-.-.-.-.-.2.-.#.J v R ' [ T f C N h s a a u 2 1 < , ; ; = = ; = ; : : > < < < 2 2 2 u a a s s B C ~ +._ S Z _ -.-.@.+.+.-.-.-.",
"-.-.-.-.-.-.-.-._ b Z _ *.+.( d h k s a u u 2 2 < < , : ; ; ; = = = ; ; : , , < , < 2 2 y u a s g h H O.' R F Q +.@.-.-.-.-.-.-.",
"-.-.-.-.-.-.*.[ ) b Z _ +.~ C h s s s a y 2 1 < , > : ; ; ; = = = = ; ; ; : : : , , < < 2 y a a a h H | ' ] Q K ~ +.-.-.-.-.-.-.",
"-.-.-.-.-.*.*.[ ' R G ]  .H h h s a u u 2 2 < < > : ; ; = = = = * = = & = & ; ; ; , < < 2 u u u a g C ( +.[ +.~ ~ O.-.-.-.-.-.-.",
"3 3 3 3 3 3 3 3 5 4 4 5 6 d h a a a u 2 2 1 , : = ; ; ; = = & & & & = & & = = = ; : > , 2 y u a a g h d f 6 4 6 6 4 5 3 3 3 3 3 ",
"r -.-.-.2.] >.2.5.5.5.2. .L g a u u u 2 < < , = = ; ; ; = % & # % # # # # & & = ; ; ; , 2 t y y a h h h H  .-.-.-.-.-.-.-.-.r 3 ",
"-.-.-.-.+.~ ~ ] -.-.-.-.O.H g a u a u 2 < < > - ; ; - % # % # # @ # # & & & & $ = ; : < < 2 t y u g h h H | -.-.-.-.-.-.-.-.-.3 ",
"-.-.-.-.| H H ` -.-.-.-.| H g a u u t 2 < > : : = = # @ % & & @ $ @ O # & & & = # = ; < < < 2 y a g h h H | -.-.-.-.-.-.-.-.-.3 ",
"-.-.-.-.| H H | -.-.-.-. .H g a u a t 2 , > : - & * % # # @ # # @ # @ o @ & & = = # ; , < < 2 u u a a h H | -.-.-.-.-.*.-.-._ 3 ",
"-.-.-.-.+.~ ~ +.-.-.-.-._ H s a u u t 2 , : = = = * @ % @ @ # O o O @ # # @ # = = = = , < < 2 2 u u a g H  .r r -.U +.5 3 3 3 3 ",
"-.-.-.-.=.+.O.+.-.-.-.-._ Z a a t t 2 1 , : - : = * % # & @ @ X X X @ @ @ # # * ; ; - > < < 2 u u u a g H O.-.-.;.~ { >.-.*.[ 3 ",
"r -.-.-.-.=.@.+.+.@.@.+.W b u u t 2 < 1 , : - & & & # # % @ + X X X X O @ @ # = ; - ; = , < 2 2 u u a h H  .-.-. .H D ] -.*.r 3 ",
"3 3 3 3 5 5 6 p 7 6 6 7 d u u u u 2 1 1 , : = & = % @ @ @ @ X X X X X X % % % @ : = : = , , 2 2 t u a g d 6 5 5 6 d d 6 3 3 3 3 ",
"-.-.-.-.=.+.R C H |  .H g a u u t 2 < , : : = & % @ @ @ + + X X   . X X @ % & O = - = : : , < < 2 u a g H ( >.,.%.P P 3.2.2.-.-.",
"-.-.-.-.+.~ b k S _  .H g a u u t 2 < - * = = & & @ % + + X X       . O @ # & @ & - - - = , < < 2 t a g B C ~ +. .H H  .-.-.-.-.",
"r r r r U c k j 8 T  .H s a u u t 2 , - & - & = @ % + @ o X     . . X O @ # % + & = : - = , < < 2 u u h s h M I U M M U r r r r ",
"r r r r I c x A w e E S a u t t 2 2 , & * = = & @ @ @ + . X     . o O + O o # # & = - - = - 1 1 2 u u u s h c I r q w T r r r r ",
"r r r r I c c I r w m c u u u 2 < < > * - = = & @ O + + + X     . o + + + O o # = - - - : , 1 1 2 t u u a h c I r r r r r r r r ",
"3 3 3 0 q l l q U M x k u a y 2 < < , : - - = & @ O + + + X     . . o O @ O O # & = = = = > 1 1 2 u u u s s c I r r r r 0 3 3 3 ",
"3 3 3 6 8 z n w U V k y u u y 2 < < , : - = = & @ @ + O o X         X O O o @ # & = - & = > 1 1 2 u u u s s V I r r r 0 3 3 3 3 ",
"3 3 3 f p 6 6 5 6 d g u u u u 2 < < < : ; * = * & % @ + O X         . o + o # # & & : & - > < < 2 u u u a h d 6 3 3 3 3 3 3 3 3 ",
"3 3 3 f p 6 0 r U M x d u u t 2 < < , = ; * = & % & @ + O X         o O + + @ # & = - & : > < < 2 t u u a g c I r 0 3 3 3 3 3 3 ",
"3 3 3 6 6 5 r r e U m v u u t 2 < < , = = * * & % & % @ O X         . O o @ # & & = : & > 1 1 < 2 u u u a h V I r r 3 3 3 3 3 3 ",
"3 3 3 3 3 0 r r r r U Z a a u 2 < < < : - = = + # & % @ O X X X .   . o o @ # & * = : = : , < < 2 u u u a h c I r r 0 3 3 3 3 3 ",
"0 r r r r r r r r r U H s a u 2 , , < , = : = * # * # + @ X O O o   o O @ O # & # = : = ; 2 < < 2 t u u a g c U r r r e r r 0 3 ",
"r r r r e w U e r r I H g a t 2 : ; < < < : = = % % % + O O + O o o . O O # & & @ - : % ; < < < 2 u u a a h c I r r e U w r r 3 ",
"r r r r U M M U r e I H h a u 2 , : < < , : = = & % # % # @ O + O o o o @ # & # % = ; = < < < < 2 t a s h h V I r r U M M r r 3 ",
"0 r r r I x x m U e I C s a u 2 1 , > < : : ; ; & % @ @ % # O X o + o O @ & & # = ; ; : < < < 2 2 u a g h h c I r r w M M r 0 3 ",
"3 3 3 3 6 i a p p 6 6 d s s u u 2 1 : 1 < = ; ; = % % @ & % # @ @ + @ # % & & = = = : , < < 2 t y y a g h N d 6 3 3 3 6 6 3 3 3 ",
"r r r r w m l c M U T H s a u u u y : 1 , : ; = = * & & % & % @ @ @ @ & & & = = - = = < < 2 2 y a y a g N V M U r r r r r r r r ",
"r r r r e w q I U !  .H h a a u u u 2 2 < : = ; = * & & % # % # @ O @ # @ & & * = ; , < 2 t y u a u a g C ( T e r e r e r r r r ",
"*.-.-.-.*.-.-.*.-.=.+.~ b k a u u u u 1 , > : * * * = & * % % % & # $ & & & * = = - < 2 t y a u a a s h H  .-.-.*.+.+.*.-.-.-.-.",
"-.-.-.-.-.-.-.-.-.-.=.+.W C s a u u u 2 < < , ; & = = & & % & & & & $ # & * = & = > 2 t y y u u a s h h H +.-.-.+.~ ~ +.-.-.-.-.",
"-.-.-.-.-.-.-.-.-.-.-.-. .C h a a u u 2 < < < > ; = = = = & = & & & * * * = = - = , 2 y u a u a a h N C ~ +.@.+.( K ~ +.-.-.-.-.",
"-.-.-.-.-.-.-.-.-.-.-.-.+.H N h s a u y y 1 < , , ; = = = = = & * = = * * - - = - , 2 y u y a s h h C ( +.@.+.~ K ( +.=.-.-.-.-.",
"-.-.-.-.-.-.=.+.+.=.-.=.+.~ x h h a u u y 1 < < , ; = = = ; = = = = = = - : : : > , 2 y a a s h N V ~ +.-.-.| H H +.-.-.-.-.-.-.",
"3 3 3 3 3 3 6 f f 6 5 3 5 6 7 d g a y u y t < < , ; - = = = - - & = = = = - , , , < 2 t a s h h d 7 6 5 3 3 6 d d 6 3 3 3 3 3 3 ",
"r -.-.-.2.-.>.{ $.&.4.,.*.2.;.H h a a a t 2 1 1 < > - & ; - * ; = = = = : < < 2 2 2 t u a h B V K +.-.-.=.+.( C H | -.-.-.-.r 3 ",
"-.-.-.-.-.-.=.+.( K ^ +.-.-. .H h h s a t t < 1 < - , > > ; - - = : , , < < 2 t t t u u a h C ( O.-.-.-.+.~ b k b _ *.-.-.-.-.3 ",
"-.-.-.-.-.-.-.-. .H H  .-.-. .H h h h a y t 1 1 < < < < ; = > ; : , < < < < 2 y u u u u a h H  .-.-.-.-.| H k v G ] -.-.-.-.-.3 ",
"-.-.-.-.-.-.-.-. .H H  .-.-. .H N h g a u y y < < < < < , , , , < < < < 1 1 2 y u u u u a s H  .-.-.-.-.O.v b W ] *.-.-.-.-._ 3 ",
"-.-.-.-.-.-.-.-. .H H  .-.-.+.~ C N g a u u y y 2 2 t 1 < < < < < < 1 2 2 2 2 u a a a a s h H O.-.-.@.+.W b j I -.r -.3 3 3 3 3 ",
"-.-.-.-.-.-.-.-. .H H  .-.-.=.+.( C s s u u u y t y t 1 < < < < < < 2 t t t u u a s h h h h H  .-.-.+.~ b d Z _ 2.-.2.2.-.-.[ 3 ",
"r -.-.-.-.-.-.-._ H H  .-.-.-.=.+.~ C k a u u u y a y t < < < < < 1 2 t a u u u a g B C H H ~ +.-.-.| H N b G ] -.-.-.-.-.*.r 3 ",
"3 3 3 3 3 3 3 3 6 i i 6 3 3 3 3 5 6 7 d a a u a a u y 2 < < 1 1 < < 2 t u u u a s g h p 6 6 6 3 3 3 6 d d 7 4 3 3 3 3 3 3 3 3 3 ",
"-.-.-.-.-.-.-.-._ b v R +.] r 3 r -.+.H g a y a u u y t 2 1 < 2 2 2 t u u u u a u h H  .-.=.r 3 r -.+.~ { ] 2.2.2.5.5.5.2.2.-.-.",
"-.-.-.-.-.-.-.-._ M d C ~ +.-.3 -.-.+.H h s y u u u u y t 2 2 2 t t u u u u a s k N H  .-.-.-.3 -.-.-.+.] -.-.-.-.-.-.-.-.-.-.-.",
"-.-.-.-.r r r -.] 8 v d d 7 6 5 -.=.+.~ b d s a a a u u y t 2 u a a a a d j l c c C ~ +.-.-.-.5 -.-.-.-.-.-.-.-.-.-.-.-.-.-.-.-.",
"-.-.-.-.-.2.-.-.[ >.} b d C D 6 -.-.*.+.( V g g s a u u u u u u a s h h k A w U U U T =.-.-.-.3 -.-.-.-.-.-.-.-.-.-.-.-.-.-.-.-.",
"-.-.-.-.-.-.-.-.*.*.' G S H ~ 6 -.-.-.-.+.M c V x d a a a a a a d x c c M w r e w w U =.-.-.-.3 -.-.=.-.-.-.-.-.-.-.-.-.-.-.-.-.",
"-.-.-.-.-.-.-.-.*.-.*.' _ O.+.5 -.-.-.-.@.I U U m x h s h s h s d 7 6 8 U e r r q A M +.-.-.-.3 -.-.-.-.-.-.-.-.-.-.-.-.-.-.-.-.",
"-.-.-.-.-.-.-.-.-.-.-.-.*.*.r 3 r -.-.*.! e r e U c h h h h h h d 6 3 5 0 r r r I c V E -.-.r 3 r -.-.-.-.-.-.-.-.-.-.-.-.-.-.-."
};
