/* XPM */
static char *_87c9640fd934c8df8e502578620fd68cIEyLeLQy1xKtYjC[] = {
/* columns rows colors chars-per-pixel */
"50 50 23 1 ",
"  c None",
". c #3C384F",
"X c #3F3851",
"o c #25667E",
"O c #E44B3B",
"+ c #B9355C",
"@ c #DA4949",
"# c #E36254",
"$ c #F07860",
"% c #EF895A",
"& c #CD8674",
"* c #F69972",
"= c #F6C27D",
"- c #5F7D93",
"; c #298A91",
": c #37AB9C",
"> c #768EA1",
", c #8CA9B5",
"< c #DEB19C",
"1 c #ECD4BE",
"2 c #FFEFA9",
"3 c #A5C2C7",
"4 c #F2F7F6",
/* pixels */
"                                                  ",
"                                                  ",
"                                                  ",
"                                                  ",
"                                                  ",
"                                                  ",
"                                                  ",
"                                                  ",
"                                                  ",
"                                                  ",
"                                                  ",
"                     XXXX  XXXXXX XX              ",
"                    XO%=%XX%==2=2X2=X             ",
"                    X%%==XX==XXX2X22X             ",
"                    X%%==%===%X%2=22X             ",
"                    XO%==%======2=2=X             ",
"                    XXXXXXXXXXXXXXXXX             ",
"                   X->X->>3X333X43X44X            ",
"                   XXXXXXXXXXXXXXXXXXX            ",
"                   XX+@@@@&<<<<<<<&@XX            ",
"                    X@@@@#<1111111<#X             ",
"                    X@@#$$1X1$$$$X1$X             ",
"                    X@@$$$$$$$$X$$$$X             ",
"                    X+@$$$$$*$**$$$$X             ",
"                    XX@#@$$$$$$$$$$$X             ",
"       XXXXXXXXX   XXXX@@$@$$$$$$$$$X             ",
"      X44443443,X X1<&X+X#@$$$$$$$$#XX            ",
"      X3,,,,,,,>X X11<XXX@@$#@$$#@#@X1X           ",
"      X4,3,,,3,>X X11<&XX+X@@@@@@X@@X1X           ",
"      X3,>,,,>,>X X1XX&&XXX+@X+@+X+XX<X XX        ",
"      X3,,,,,,,>XXXXXXXXXXXXXXXXXXXXXXXX34X       ",
"      X3,,,,,,,>XXX--,,,3334344433,,,-XX,3X       ",
"      X3,,,,,,,>XXXXXXXXXXXXXXXXXXXXXXXX-,X       ",
"      X3,,,,,,,>X    XXXXXXXXXXXXXXXX   XX        ",
"      X3,3,,,3,>X    Xo;;;;;;;;;;;;oX             ",
"      X3,>,,,>,>X    X;;;;;:::;::;;;X             ",
"      X,>>>>>>>-X    XoX.XXXXXXXXo;;X             ",
"       XXXXXXXXX     XX          Xo;X             ",
"                                  XoX             ",
"                                  XX              ",
"                                                  ",
"                                                  ",
"                                                  ",
"                                                  ",
"                                                  ",
"                                                  ",
"                                                  ",
"                                                  ",
"                                                  ",
"                                                  "
};
