/* XPM */
static char *xpm_[] = {
/* columns rows colors chars-per-pixel */
"64 64 217 2 ",
"   c #1C2A4F",
".  c #382E4B",
"X  c #36314D",
"o  c #3D324D",
"O  c #3D3751",
"+  c #562F4C",
"@  c #40344E",
"#  c #413952",
"$  c #4C3D54",
"%  c #5A3952",
"&  c #612B4C",
"*  c #65394D",
"=  c #673951",
"-  c #753653",
";  c #7A3D50",
":  c #3C485E",
">  c #394B61",
",  c #37576E",
"<  c #2E6478",
"1  c #346374",
"2  c #366975",
"3  c #43435B",
"4  c #4C445A",
"5  c #594356",
"6  c #544559",
"7  c #534B5D",
"8  c #5C4C5E",
"9  c #674D5B",
"0  c #7B4553",
"q  c #795658",
"w  c #454D64",
"e  c #4C4B61",
"r  c #524E62",
"t  c #415363",
"y  c #4F5365",
"u  c #485969",
"i  c #555264",
"p  c #5A5263",
"a  c #545B6A",
"s  c #5C5D6C",
"d  c #4D5D73",
"f  c #515D72",
"g  c #624F61",
"h  c #714E60",
"j  c #635262",
"k  c #6B5663",
"l  c #6E5967",
"z  c #645B6B",
"x  c #715A63",
"c  c #795B66",
"v  c #446067",
"b  c #556377",
"n  c #5B6474",
"m  c #5D6B7E",
"M  c #7C6169",
"N  c #656774",
"B  c #696A76",
"V  c #746B75",
"C  c #78737B",
"Z  c #88324E",
"A  c #94384A",
"S  c #893855",
"D  c #9A3755",
"F  c #AC3B53",
"G  c #C33E54",
"H  c #81464F",
"J  c #814B56",
"K  c #845456",
"L  c #A3424C",
"P  c #B4424C",
"I  c #B54A49",
"U  c #A34F53",
"Y  c #9A6758",
"T  c #AE6C59",
"R  c #835A69",
"E  c #8B5C6B",
"W  c #905D6B",
"Q  c #85686A",
"!  c #966567",
"~  c #877868",
"^  c #9A746F",
"/  c #8A6A71",
"(  c #936474",
")  c #9C6873",
"_  c #89797A",
"`  c #9B767A",
"'  c #9A797B",
"]  c #A96863",
"[  c #B3796E",
"{  c #A26975",
"}  c #A96E79",
"|  c #A07178",
" . c #AD707B",
".. c #A17A7C",
"X. c #CA464D",
"o. c #D4474B",
"O. c #D4494B",
"+. c #DB4B4A",
"@. c #D1534F",
"#. c #DD544E",
"$. c #CB4053",
"%. c #D75852",
"&. c #E1584F",
"*. c #E15B51",
"=. c #DA695A",
"-. c #E1694B",
";. c #E56355",
":. c #E66959",
">. c #E96C59",
",. c #E5735E",
"<. c #ED735D",
"1. c #F1765E",
"2. c #D27965",
"3. c #EA7862",
"4. c #F07961",
"5. c #A88A6A",
"6. c #B68A64",
"7. c #B79369",
"8. c #A98571",
"9. c #B9A57A",
"0. c #E88257",
"q. c #F08759",
"w. c #C5996C",
"e. c #CE8974",
"r. c #E9836C",
"t. c #F28769",
"y. c #E69866",
"u. c #ED8D72",
"i. c #D1AC77",
"p. c #F3AC6F",
"a. c #EAB174",
"s. c #F4BB78",
"d. c #F6C37D",
"f. c #2A7A86",
"g. c #5D758A",
"h. c #647483",
"j. c #697986",
"k. c #7A7882",
"l. c #677E91",
"z. c #A57F80",
"x. c #B77F83",
"c. c #27818C",
"v. c #2B848C",
"b. c #2A8C92",
"n. c #2D9495",
"m. c #319290",
"M. c #37A195",
"N. c #74838E",
"B. c #6C8597",
"V. c #788994",
"C. c #7B929D",
"Z. c #768EA1",
"A. c #7C95A6",
"S. c #7E99A9",
"D. c #928E93",
"F. c #AB8382",
"G. c #A38C8B",
"H. c #B18685",
"J. c #B48887",
"K. c #B68A88",
"L. c #BA8D8B",
"P. c #AE988A",
"I. c #B89185",
"U. c #B89488",
"Y. c #BF918E",
"T. c #BBA690",
"R. c #819BA7",
"E. c #839DAC",
"W. c #999DA3",
"Q. c #89A3AE",
"!. c #98A4AA",
"~. c #87A3B0",
"^. c #8AA6B3",
"/. c #8CA9B5",
"(. c #99AEB4",
"). c #92AFB9",
"_. c #97B1B7",
"`. c #95B2BC",
"'. c #9AB6BC",
"]. c #A7A8AC",
"[. c #A6B7BC",
"{. c #C1938F",
"}. c #D19C89",
"|. c #C39490",
" X c #F09A84",
".X c #CDB785",
"XX c #CCB988",
"oX c #C1AB9D",
"OX c #D6AB98",
"+X c #DDB19C",
"@X c #E3A693",
"#X c #C2AFA1",
"$X c #CBB1A4",
"%X c #D1B1A5",
"&X c #DBBDAA",
"*X c #EAB9A4",
"=X c #F3C988",
"-X c #F4D492",
";X c #DAC4B2",
":X c #DCCABE",
">X c #E6C3AE",
",X c #EDC4AE",
"<X c #E8C9B4",
"1X c #EBD2BC",
"2X c #F9E5A2",
"3X c #FFF0AA",
"4X c #9DB8C0",
"5X c #A1BCC3",
"6X c #B1C6CB",
"7X c #B6C5C9",
"8X c #C4C9CB",
"9X c #CDD2D4",
"0X c #CAD8DC",
"qX c #D2D9DB",
"wX c #EED7C0",
"eX c #D4DFE1",
"rX c #DEE2E2",
/* pixels */
"l l l l l l l l l l l l l l l l l l l l l l l l l l l l l l l l l l l l l l l l l l l l l l l l l l l l l l l l l l l l l l l l ",
" .|.|.|.|.%X%X%X%X%X|.|.%X|.|.|.|.|.|.|.x. . . . .( l l l l l l l l l l l l (  . . . .x.|.|.|.|.|.|.|.|.|.|.|.|.|.|.|.|.|.|. .l ",
"|.|.|.|.|.|.|.|.|.|.|.|.|.|.|.|.|.|.|.|.|. . . . . .l l l l l l l l l l l l  . . . . .|.|.|.|.|.|.|.|.|.|.|.|.|.|.|.|.|.|.|.|.l ",
"|.|.|.|.|.|.|.|.|.|.|.|.|.|.|.|.|.|.|.|.|. . . . . .( l l l l l l l l l l (  . . . . .|.|.|.|.|.|.|.|.|. .|. . . . . .|.|.l l l ",
"|.|.|.|.|.|.|.|.|.|.|.|.|.|.|.|.|.|.|.|.|. . . . . . . . . .( l (  . . . . . . . . . .|.|.|.|.|.|.|.|.|.|.%X|.%X%X%X|.|.|.|.x.l ",
"|.|.|.|.|.|.|.|.|.|.|.|.|.|.|.|.|.|.|.|.|. . . . . . . . . . .l  . . . . . . . . . . .|.|.|.|.|.|.|.|.|.|.|.|.|.|.|.|.|.|.|.|.l ",
"|.|.|.|.|.|.|.|.|.|.|.|.|.|.|.|.|.|.|.|.|. . . . . . . . . . .l  . . . . . . . . . . .|.|.|.|.|.|.|.|.|.|.|.|.|.|.|.|.|.|.|.|.l ",
" .|.|.|.|.|.|.|.|.|.|.|.|.|.|.|.|.|.|.|.x. . . . . . . . . .( l (  . . . . . . . . . .x.|.|.|.|.|.|.|.|.|.|.|.|.|.|.|.|.|.|. .l ",
"l l l l l l l l l l l l l l l l l l l l l l l l l l l l l l l x l l l l x x l l l l l l l l l l l l l l l l l l l l l l l l l l ",
"%X%X%X|.|.|.|.|.|.|.|.|.|.|. .l  .|.|.|.|.H. . . . . . . . . . . . . . . . . . . . .J.|.|.|. .l  .|.|.|.%X|.%X%X%X%X%X|.|.|.|.|.",
"|.|.|.|.|.|.|.|.|.|.|.|.|.|.|.l |.|.|.|.|.|.x.}  . . . . . . . . . . . . . . . .} x.|.|.|.|.|.l |.|.|.|.|.|.|.|.|.|.|.|.|.|.|.|.",
"|.|.|.|.|.|.|. . .|. .|.|.l l l |.|.|.|.|.|.|.|.|.|.|.|.|.|.{.{.|.|.|.|.|.|.|.|.|.|.|.|.|.|.|.l |.|.|.|.|.|.|.|.|.|.|.|.|.|.|.|.",
"|.|.|.|.|.|.%X|.%X%X|.|.|.|.x.l |.|.|.|.|.|.|.|.|.|.|.|.{.{.|.{.|.|.|.|.|.|.{.{.|.|.Y.Y.|.|.|.l |.|.|.|.|.|.|.|.|.|.|.|.|.|.|.|.",
"|.|.|.|.|.|.|.|.|.|.|.|.|.|.|.l |.|.|.|.|.|.|.|.|.|.{.Y.L.L.Y.Y.|.|.U.I.L.L.L.Y.L.L.Y.Y.Y.Y.|.l |.|.|.|.|.|.|.|.|.|.|.|.|.|.|.|.",
"|.|.|.|.|.|.|.|.|.|.|.|.|.|.|.l |.|.|.|.|.|.|.|.|.|.J.c x x q Q L.{...k k x x x x c F.8.z M K.l |.|.|.|.|.|.|.|.|.|.|.|.|.|.|.|.",
"|.|.|.|.|.|.|.|.|.|.|.|.|.|. .l  .|.|.|.|.|.|.|.|.F.! I I w.w.T ( / ] 2.w.w..XXXi.XX8.P.XXw.Q j  .|.|.|.|.|.|.|.|.|.|.|.|.|.|.|.",
"l l l l l l l l l l l l l l l l l l l l l l l l l 7 H -.q.p.d.y.q   T p.d.i.XXi.i.2X5.T.2X=X~ 6 l l l l l l l l l l l l l l l l ",
" .|.|.|.%X|.%X%X:X:X:X%X|.%X%X|.|.|.|.|.|.|.|.|.{.' K 0.q.p.d.a.Y q 7.d.d.T 5 5 5.2X9.XX3X2X~ ` |.|.|.|.|.|.|.|.|.|.|.|.|.|. .l ",
"|.|.|.|.|.|.|.|.|.|.|.|.|.|.|.|.|.|.|.|.|.|.|.|.|.' K ,.q.p.d.s.y.a.d.d.d.y.Y Y i.2X=X-X3X2X~ ` |.|.|.|.|.|.|.|.|.|.|.|.|.|.|.l ",
"|.|.|.|.|.|.|.|.|.|.|.|.|.|.|.|.|.|.|.|.|.|.|.|.{.^ 0 -.q.p.d.s.y.p.d.d.d.a.a.a.s.2X-X-X2X=X~ ..|.|.|.|.|.|.|.|.|.|.|.|.|.|.|.l ",
"|.|.|.|.|.|.|.|.|.|.|.|.|.|.|.|.|.|.|.|.|.|.|.|.|.z.% F T 6.7.6.T 6.7.7.7.7.7.7.7.9.9.9.9.6.5 ` |.|.|.|.|.|.|.|.|.|.|.|.|.|.x.l ",
"|.|.|.|.|.|.|.|.|.|.|.|.|.|.|.|.|.|.|.|.|.|. . .J.l y d # 3 u f s B s t m j.C n i D.N.a n D.W.G.J.|.|.|.|.|. . .|. .|.l l l l l ",
"|.|.|.|.|.|.|.|.|.|.|.|.|.|.|.|.|.|.|.|.|.|.|.|.z.u l.l.y d j.B.V.^.V.N _._.'.C.C 9X7XN.D.qXrXW./ |.|.|.|.|.|.|.%X|.%X%X|.|.|.l ",
" .|.|.|.|.|.|.|.|.|.|.|.|.|.|.|.|.|.|.|.|.|.|.|./ # e y $ $ 7 g y s a 7 N N N s i k.B i p k.k.s Q |.|.|.|.|.|.|.|.|.|.|.|.|. .l ",
"l l l l l l l l l l l l l l l l l l l l l l l l 6 o % D F P P F I T 8.I.I.L.I.I.I.L.I.8.] F & X 6 l l l l l l l l l c x l l l l ",
"|.|.|.|.|.|.|.|.|.|.|.|.|.|. .l } |.|.|.%X|.%X%XP.C - G o.+.+.+.&.e.+X>X*X<X>X>X>X>X>X+Xe.%.; $ ( |.|.|.%X|.%X%X+X8X8X<X%X%X|.|.",
"|.|.|.|.|.|.|.|.|.|.|.|.|.|.|.l |.|.|.|.|.|.|.|.|.` ; o.+.+.+.&.:.@X&X;X1X,X,X,X,X,X&X&X@X=.J 8 {.|.|.|.|.|.|.|.{.|.|.|.|.|.|.|.",
" . . . . . . . . .x.|.|.|.|.|.l |.|.|.|.|.|.x. . .R ; o.+.*.:.<.4.*XoX..>X Xt.r.r.r.{ T.*X4.J p |.|.|.|.|.|.x. . . . . . . . . .",
" . . . . . . . . . .H.|.|.|.|.l |.|.|.|.|.x. . . .E 0 o.+.;.4.4.4.u.r.2.u.t.4.=.U ,.=.r.u.3.J 8 |.|.|.|.|.x. . . . . . . . . . .",
" . . . . . . . . . . .|.|.|.|.l |.|.|.|.|. . . . .E - G o.:.4.4.4.1.4.1.t.4.r.r.2.3.4.4.4.,.J p |.|.|.|.|. . . . . . . . . . . .",
"l l l (  . . . . . . .|.|.|.|.l |.|.|.|.|. . . . .E = D o.;.>.>.4.4.4.t.t.t.r.t.t.4.4.4.4.,.J 8 |.|.|.|.|. . . . . . . .( l l l ",
"l l l l (  . . . .{ {  .K.K.{ k { K.K.K.x.}  . .} c O % P #.*.#.>.4.1.1.4.4.4.4.4.4.4.4.4.,.J 8  .|.|.|.x. . . . . . .( l l l l ",
"l l l l l l l l k p r p p p 7 r i r r $ p k l l g 7 5 $ = I O.O.<.;.;.4.4.4.1.4.1.4.1.4.1.,.0 7 l x x l x x l l l l l l l l l l ",
"l l l l l l ( W _ 8X9X9X9X8X(.7X9X8X!.A.k.E } R P.|.9.^ 9 D F U =.&.;.4.4.4.4.4.1.1.4.4.1.=.0 9 ' {.|.|.H. . . . .( l l l l l l ",
"l l l l l l  .W V 0XeX0XqX0X6X6XeX0X5X^.h.h ) g #XwX*X}.c - - 0 O.+.;.<.>.:.,.1.1.,.:.>.:.@.0 D.G...|.|.{. . . . . .l l l l l l ",
"l l l l l ( } W B 6X5X/.)././././.)./.Z.h.h { 9 #XwX1X+X^ % X = $.X.%.>.*.#.*.<.>.*.O.@.*.O.0 T.#Xl L.|.{. . . . . .( l l l l l ",
"( } }  . . . .W k.eX5X4X4X/././.4X4X/.A.b h ) 9 #XwX>XOX|.! $ * D S L +.+.O.O.#.+.+.S F O.X.0 oXoXx L.Y.L.}  . . . . . . . .( l ",
"x.}  . . . . .W N 6X4X~.E./././.E.E.^.S.g.h ) 9 #X$XC Q [ 2.] $ = $ S G O.A F G +.F ; S F ; 5 U.U.k J._ k R }  . . . . . . . .l ",
" . . . . . .x.W N '.).~.E./././.~.~.^.A.h.% h 6 _ _ . @ q ! K @ X X & Z Z + & Z A Z + & - . : Q Q 6 / D.[.].( }  . . . . . . .l ",
"(  . . . . .} W s '.`././././././././.A.h.# # # w u f h.h.h.j.N.N.l.D.W.N.W.].].!.V.N.N.h.B m b t # 4 ^.0X7Xj {  . . . . . .( l ",
"l l l l l l l 8 n '.)././././././././.A.g.o O O f g.l.A.E.R.E._.'.(.7XqX[.qXrXrXeX[._./.Q.S.S.B.d O 3 C.'.Q.r j l l l l l l l l ",
" . . . . . . .W N '.`././././././././.A.h.o $ $ 4 e e y y e a a s a N B s B V B B s a a y y y 4 4 $ 6 g.S.A.g {  . . . . . . . .",
" . . . . . . .W s 4X`././././././.^.^.A.h.l ) ( ) ! E $ O o o o o o . . X . . . . o X o o o @ 6 F.F.F.N f C | }  . . . . . . . .",
"|.|.|.|.|.|.|.} N `.4X).`./././.).4X/.A.m c |.|.|.{.J.6 > 1 2 2 2 2 2 1 2 2 2 2 2 2 2 2 2 > 3 8 |.{.{...) ..|.|.|.|.|.|.|.|.|.|.",
"|.|.|.|.|.|.|...N `.).).4X/././.).4X/.S.m c |.|.|.|.H.7 < f.b.b.b.b.n.n.n.n.n.b.n.n.b.b.v.< : 9 |.|.|.|.|.|.|.|.|.|.|.|.|.|.|.|.",
"|.|.|.|.|.|.|...N `.).E.A.^.~.^.E.A.~.A.b c |.|.|.|.H.r f.v.v.v.v.v.m.M.M.M.m.m.M.M.b.b.b.b.t 8 |.|.|.|.|.|.|.|.|.|.|.|.|.|.|.|.",
"|.|.|.|.|.|.|.z.z ~.E.Z.Z.Z.R.A.Z.Z.A.B.b c Y.|.|.|.H.7 < 1 t t t t u u v v t t v v 2 f.b.v., 8 |.|.|.|.|.|.|.|.|.|.|.|.|.|.|.|.",
"|.|.|.|.|.|.|.K.` h.h.f h.f f m b b f f C F.|.|.|.|.H.4 > / ........` ..` ........` z < f.c.t 9  .|.|.|.|.|.|.|.|.|.|.|.|.|.|.|.",
"l l l l l l l l k 5 % 6 6 6 6 6 % 6 6 6 g l l l l l l r 6 g l l l l l l l l l x l l 8 w < f.> p l l l l l l l l l l l l l l l l ",
" .|.|.|.%X|.%X%X8XwX;X%X|.%X%X|.{.{.|.|.|.|.|.|.|.|.{.{.{.|. .l  .|.|.|.%X|.%X%X:X:X:XG.: 1 l z.|.|.|.|.|.|.|.|.|.|.|.|.|.|. .l ",
"|.|.|.|.|.|.|.|.{.|.|.|.|.|.|.|.|.|.|.|.|.|.|.|.|.|.{.{.|.|.|.l |.|.|.|.|.|.|.|.{.{.|.` $ j x.Y.|.|.|.|.|.|.|.|.|.|.|.|.|.|.|.l ",
"|.|.|.|.|.|.|.|.|.|.|.|.|.|.|.|.|.|.|.|.|.|.|.|.|.|.|.|.|.|.|.l |.|.|.|.|.|.|.|.{.{.|.K.F.H.{.|.|.|.|.|.|.|.|.|.|.|.|.|.|.|.|.l ",
"|.|.|.|.|.|.|.|.|.|.|.|.|.|.|.|.|.|.|.|.|.|.|.|.|.|.|.|.|.|.x.l |.|.|.|.|.|.|.|.{.|.|.|.|.|.|.|.|.|.|.|.|.|.|.|.|.|.|.|.|.|.H.x ",
"|.|.|.|.|.|.|.|.|.|.|.|.|.|.|.|.|.|.|.|.|.|. . .|. .|.l l l l l |.|.|.|.|.|.|.|.|.|.|.|.|.|.|.|.|.|.|.|.|.|. . .|. .|.l l l l l ",
"|.|.|.|.|.|.|.|.|.|.|.|.|.|.|.|.|.|.|.|.|.|.|.|.%X|.%X%X|.|.|.l |.|.|.|.|.|.|.|.|.|.|.|.|.|.|.|.|.|.|.|.|.|.|.|.%X|.%X%X|.|.|.l ",
" .|.|.|.|.|.|.|.|.|.|.|.|.|.|.|.|.|.|.|.|.|.|.|.|.|.|.|.|.|. .l  .|.|.|.|.|.|.|.|.|.|.|.|.|.|.|.|.|.|.|.|.|.|.|.|.|.|.|.|.|. .l ",
"l l l l l l l l l l l l l l l l l l l l l l l l l l k k l l l l l l l l l l l l l l l l l l l l l l l l l l l l l l l l l l l l ",
"|.|.|.|.|.|.|.|.|.|.|.|.|.|. .l  .|.|.|.%X|.%X%X%X<X8XwX%X%X|.|.|.|.|.|.|.|.|.|.|.|.|.|.|.|. .l  .|.|.|.%X|.%X%X%X:X:X:X%X%X|.|.",
"|.|.|.|.|.|.|.|.|.|.|.|.|.|.|.l |.|.|.|.|.|.|.|.|.|.|.|.|.|.|.|.|.|.|.|.|.|.|.|.|.|.|.|.|.|.|.l |.|.|.|.|.|.|.|.|.|.|.|.|.|.|.|.",
"|.|.|.|. . . .|.|. .|.|.l l l l |.|.|.|.|.|.x. .} x. . . . . . . . . . . . . . . .x.|.|.|.|.|.l |.|.|.|.|.|.|.|.|.|.|.|.|.|.|.|.",
"|.|.|.|.|.%X|.|.|.%X%X|.%X|.x.l |.|.|.|.{.x. . .}  . . . . . . . . . . . . . . . . .x.|.|.|.|.l |.|.|.|.|.|.|.|.|.|.|.|.|.|.|.|.",
"|.|.|.|.|.|.|.|.|.|.|.|.|.|.|.l |.|.|.|.{. . . . . . . . . . . . . . . . . . . . . . .|.|.|.|.l |.|.|.|.|.|.|.|.|.|.|.|.|.|.|.|.",
"|.|.|.|.|.|.|.|.|.|.|.|.|.|.|.l |.|.|.|.|. . . . . . . .( l l l l l l (  . . . . . . .|.|.|.|.l |.|.|.|.|.|.|.|.|.|.|.|.|.|.|.|.",
"|.|.|.|.|.|.|.|.|.|.|.|.|.|. .l  .|.|.|.x. . . . . . .( l l l l l l l l (  . . . . . .x.|.|. .l  .|.|.|.|.|.|.|.|.|.|.|.|.|.|.|."
};
