/* XPM */
static char *dc9986e6a94142149d2e77fcc31170ec0cC2LZqfHvXrEiJN[] = {
/* columns rows colors chars-per-pixel */
"64 64 108 2 ",
"   c #1D203D",
".  c #232C4E",
"X  c #29345B",
"o  c #472755",
"O  c #492857",
"+  c #4D2A5C",
"@  c #502B5F",
"#  c #542D64",
"$  c #572F68",
"%  c #582F68",
"&  c #5B316C",
"*  c #5F3370",
"=  c #633575",
"-  c #673779",
";  c #673879",
":  c #6A3A7D",
">  c #2F4168",
",  c #374579",
"<  c #6E5967",
"1  c #6F556D",
"2  c #6F586A",
"3  c #725573",
"4  c #75517C",
"5  c #8D5D7D",
"6  c #8F607B",
"7  c #926475",
"8  c #A1677F",
"9  c #A4697D",
"0  c #AB6E7D",
"q  c #AD707B",
"w  c #6E3D80",
"e  c #703F83",
"r  c #425086",
"t  c #734185",
"y  c #744A83",
"u  c #784E84",
"i  c #764489",
"p  c #79458C",
"a  c #7B4C8B",
"s  c #775081",
"d  c #7B4790",
"f  c #7D4892",
"g  c #486093",
"h  c #814E85",
"j  c #814C8C",
"k  c #875285",
"l  c #8B5584",
"z  c #86508C",
"x  c #8B548D",
"c  c #875989",
"v  c #895A8B",
"b  c #925B81",
"n  c #985F84",
"m  c #955D8A",
"M  c #824D92",
"N  c #855294",
"B  c #8B5690",
"V  c #8D5C91",
"C  c #8E608B",
"Z  c #9A6087",
"A  c #90618C",
"S  c #9B668C",
"D  c #986B8B",
"F  c #9E718B",
"G  c #8D6490",
"H  c #936392",
"J  c #946D91",
"K  c #9D6D92",
"L  c #997098",
"P  c #9D7B9F",
"I  c #A26782",
"U  c #A56A80",
"Y  c #A06A8B",
"T  c #AC7686",
"R  c #A5778E",
"E  c #AA7388",
"W  c #A6788F",
"Q  c #AB7D8F",
"!  c #B77F83",
"~  c #A27392",
"^  c #A77890",
"/  c #A97A91",
"(  c #B2848E",
")  c #B7898E",
"_  c #B88A8E",
"`  c #BF918F",
"'  c #AA859C",
"]  c #AF8C99",
"[  c #B38490",
"{  c #B48591",
"}  c #B88991",
"|  c #BF9090",
" . c #BE9D9E",
".. c #AA8DA5",
"X. c #BF9DA0",
"o. c #BEA7AF",
"O. c #C0918F",
"+. c #C09190",
"@. c #C39490",
"#. c #C09EA1",
"$. c #C4A3A1",
"%. c #C4A3A2",
"&. c #C5A4A2",
"*. c #CDACA4",
"=. c #D1B1A5",
"-. c #C8B2B4",
";. c #CEBAB7",
":. c #DCCABE",
/* pixels */
"< < < < < < < < < < < < < < < < < < < < 3 a a 3 < < 3 a f f f f f f a 3 < < < < < < < < < < < < < < < < < < < < < < < < < < < < ",
"q @.@.@.@.=.=.=.=.=.@.@.=.@.@.@.@.@.@.@.T m m U 0 6 4 a f d d d d f a 4 3 3 5 0 q q q ! @.@.| } } +.@.@.@.@.@.@.@.@.@.@.@.@.q < ",
"@.@.@.@.@.@.@.@.@.@.@.@.@.@.@.@.@.@.@.@.| U U 0 U m a f d p i i p d f a a a m U q q q @.@.@.} ~ ~ } @.@.@.@.@.@.@.@.@.@.@.@.@.< ",
"@.@.@.@.@.@.@.@.@.@.@.@.+.} { { } | @.@.@.q 0 U Z z f d p i t t i p d d d f z Z I I U +.@.@.{ H V ^ } +.q @.q q q q q @.@.< < < ",
"@.@.@.@.@.@.@.@.@.@.@.@.} ~ H H ~ } @.@.@.q U m z M d p i t t t t i i i p d M z x x m } @.@.{ H M V ~ } @.=.@.=.=.=.@.@.@.@.! < ",
"@.@.@.@.@.@.@.@.@.@.+.} ^ V M V ~ } @.@.+.U Z z f d p i t t e e e e t t i p d d d f z / } +.} ~ V M V ^ } +.@.@.@.@.@.@.@.@.@.< ",
"@.@.@.@.@.@.@.@.@.@.} ~ V a v R } +.@.@.} m z M d p i t t : : : : : : t t i i i p d M V ~ } +.} W c a V ~ } @.@.@.@.@.@.@.@.@.< ",
"q @.@.@.@.@.@.@.@.@.{ H M v F ) @.@.+.} Y z f d p i t t : ; = - - - : w t t t t i p d f V / } +._ F c a V ^ } +.@.@.@.@.@.@.q < ",
"< < < < < < < < < < 3 a a 4 1 2 < < 3 s a f d p i t t : ; = * = - - ; : : t t t t i p d f a s 3 2 1 4 y p a s 3 < < < < < < < < ",
"=.=.=.@.@.@.@.@.+.} ^ V H [ q < 0 } / V f d p i t t : ; = & & & = - - - : w e e t t i p d f z 4 U +._ F G M L #.=.=.*.} } @.@.@.",
"@.@.@.@.@.@.@.@.} ~ V a A ( @.< } ~ V M d p i t t : ; & & @ @ # & $ * = ; : : : : t t i p d M a ~ } O._ R V H { @.@.} ~ ~ @.@.@.",
"@.@.@.@.@.@.@.q I H a c F 1 2 3 / V f d p i t t w : = # # % # + # = = = = - - - : w t t i p d f V / } +.[ H H [ @.@.} ~ ~ @.@.@.",
"@.@.@.@.@.@.=.@. .J c R ) ` T s V M d p i t t : : ; = & % # # % # # & & * = - - ; : : t t i p d M V ~ } ( A C ( @.@.| } } @.@.@.",
"@.@.@.@.@.@.@.@.( v C ( +.} / a f d p i t t w : - = = & % % # # # # # % & = = = = - : w t t i p d f H { ) F D Q } | @.@.@.@.@.@.",
"@.@.@.@.@.@.@.@.( C C ( } ~ V f d p i t t : : ; = * & & % % # # # # % % & & & & * = ; : : t t i p d H { ` _ Q K ~ } @.@.@.@.@.@.",
"@.@.@.@.@.@.@.@.) F F ) { H f d p i t t w : - = * & % g # # g g g g # + # + % % & = = - : e t t i d V / } +.} ~ ~ } @.@.@.@.@.@.",
"< < < < < < < < 2 1 1 2 3 a d p i t t : : ; = & # % % % # g g r r g g g + # # % g & * = : e t t i d f a s 3 2 3 3 2 < < < < < < ",
"q @.@.@.*.} %.*.:.:.:.=.{ L d i t t e : - - = g g % # # g g r r r r r g g g + # g g & = : w t t i d f f H { @.@.@.@.@.@.@.@.q < ",
"@.@.@.@.} ~ ~ } @.@.@.@.{ H d i t t e : - - g r % % # g g r r , , , r r r g g O @ r g = ; : : t i d f f H { @.@.@.@.@.@.@.@.@.< ",
"@.@.@.@.[ H H [ @.@.@.@.{ H d i t t e : - & g & # # g g r r , > , , , r r r g g o # r g - - : e i p d f H { @.@.@.@.@.@.@.@.@.< ",
"@.@.@.@.[ H H [ @.@.@.@.{ H d i t t e : = g r # + g g r r , > > > , , , , r r g g O & g - - g e t i p d H { @.@.@.@.@.@.@.@.! < ",
"@.@.@.@.} ~ ~ } @.@.@.@.{ H p i t t w : = r % # g g r r , , > > > > > , , , r r g g # r - - : e t t i d H { q q | U } 2 < < < < ",
"@.@.@.@.| } } | @.@.@.@.( C i t t : : ; = r % g g r r , , > > > X > > > > , , r r g $ & g - : e t t i d H { @.@.%.~ ' %.@.@.@.< ",
"q @.@.@.@.@.+.} } | +.} W c t t e : - - = & # g r r , , > > > X X X X > > > , r r g g # = - : w t t i d H { @.@.{ H H { @.@.q < ",
"< < < < < < 3 s s 3 3 s a i t t e : - g = & # g r r , , > > X X X X X X > > , , r g g # * = ; : : t i d a 3 < < 3 a a 3 < < < < ",
"@.@.@.@.+.} ^ V H [ { H d i t t e : - g & & # g r r , > > X X X . . X X > > , , r r g % & = - - : e i d H / &.*.X.P P -.=.=.@.@.",
"@.@.@.@.} ~ V a A ( { H d i t t e : = % # # # r r , , > > X X .   . . X > > , , r r g # # g - - : e i d M V ~ } { H H { @.@.@.@.",
"q q q q I x j h b T { H p i t t w : = $ g % g r r , , > X X . .     . X > > > , , r g % # g - - : e i p d f m I U m m U q q q q ",
"q q q q I x z n 9 0 E A i t t : : ; = g r # g r r , > > X X .       . X X > > , , r g g # g - - : e t i p d x I 0 U U 0 q q q q ",
"q q q q I x x I 0 U n c t t e : - - & g % # r r , , > > X . .     . . . X > > , , r r g & = - - : e t t i d x I q q q q q q q q ",
"< < < 7 8 k k 8 U m z a t t e : - - = r % g r r , , > > X . .       . . X > > , , r r g # & - - : e t t i d x I q q q q 7 < < < ",
"< < < 3 5 l b 9 I x d i t t e : - - g & % g r r , , > > X X .       . . X > > , , r r g # & - - : e t t i d x I q q q 7 < < < < ",
"< < < s u 4 1 2 3 a d i t t e : - - = & % # r r , , > > X X .       . X X > , , , r r g $ * - - : e t t i d a 3 < < < < < < < < ",
"< < < s s 3 7 q U m z a t t e : - - = # # @ g r , , , > X X . . .   . X X > , , , r r g & * - - : e t t i d x I q 7 < < < < < < ",
"< < < 3 3 2 q q 0 U n c t t e : - - = g # # g r , , , > > X X . . . . X X > , , , r g g = - g - : e t t i d x I q q < < < < < < ",
"< < < < < 7 q q q q 8 C i t e : - - = r g # g r r , , > > X X X . . X X > > , , r r g g & = - - : e t t i d x I q q 7 < < < < < ",
"7 q q q q q q q q q I H p i e : = = - = % & g r r r , > > X X X X X X X > , , r r r g # % - - - : e t t i d x I q q q q q q 7 < ",
"q q q q 0 U U 0 q q I H d i e : & & - - = & # g r r , , > > X X X X X > > , r r r g g O & g - - : e t i p d x I q q 0 U U q q < ",
"q q q q U m m U q q I H d i e : = & - - = & # g g r r , , > > > X > > > > , r r g g & # g - - - : e i p d f x I q q U m m q q < ",
"7 q q q I x z n U 0 I m d i t : : = = - g % % % g r r , , > > > > > > , , , r g g # & & g - ; : : t i d f f x I q q U m m q 7 < ",
"< < < < 3 y p a s 3 3 a d i t t w ; & - = g % % g g r , , , , > > , , , r r r g # # & g r - : w t t i d f f a 3 < < 2 3 3 < < < ",
"q q q q 9 b k x m U E H d i t t t : & ; = g # # g g r r , , , , , , , , r r r g # # # r ; : : t t t i d M B m U q q q q q q q q ",
"q q q q 0 9 8 I U ! { H d i t t t t w : = g # # # g r r r r , , , , r r r g g g # % g r : w t t t t i d V / T 0 q q q q q q q q ",
"@.@.@.@.@.@.@.@.@.@.} ~ V a i t t t e : = r & # @ # g r r r , , , , r r r g @ # # % g : : t t t t i p d H { @.@.| } } | @.@.@.@.",
"@.@.@.@.@.@.@.@.@.@.+.} / V p i t t e : - r g & + # g r r r r , r r r r g g # + # = : w t t t t i p d f H { @.@.} ~ ~ } @.@.@.@.",
"@.@.@.@.@.@.@.@.@.@.@.@.{ H d p i t t : : ; r g # # # g g r r r r g g @ # # # # # = : e t t t i p d M V ~ } +.} / K ~ } @.@.@.@.",
"@.@.@.@.@.@.@.@.@.@.@.@.{ H f d p i t t w : - = = & # # # g g g g # # # @ g % # % = : e t t i p d f V / } +.} ~ K / } | @.@.@.@.",
"@.@.@.@.@.@.| } } | @.@.} ~ z f d i t t e : - - = & # # # % # # # # # # & & & & * = : e t i p d M V ~ } @.@.{ H H { @.@.@.@.@.@.",
"< < < < < < 3 s s 3 < < 2 3 4 a d i t t e : - - = & # # # # # # # # # # # % = = = - : e i p d f a 4 3 2 < < 3 a a 3 < < < < < < ",
"q @.@.@.=.@.%.' ..o.;.*.@.=.#.H d p i t e : - - = * $ + & # + % # # # # & = ; : : : : t i d N V ~ } @.@.+.} ^ V H [ @.@.@.@.q < ",
"@.@.@.@.@.@.| } / K ~ } @.@.{ H f d p i e : - - - $ = * & & % # # & = = = - : w e e t t i d V / } +.@.@.} ~ V a C ( @.@.@.@.@.< ",
"@.@.@.@.@.@.@.@.{ H H { @.@.{ H f f d i t : : ; - - - - & # & % & = - - - - : e t t t t i d H { @.@.@.@.{ H j c F ) @.@.@.@.@.< ",
"@.@.@.@.@.@.@.@.{ H H [ @.@.{ H f f d i t t w : - - - - - = = = = - - - - - : e t t t t i d H { @.@.@.@.( C c R ) ` @.@.@.@.! < ",
"@.@.@.@.@.@.@.@.{ H H { @.@.} ~ V M d i t t t : : : : ; - - - - - - ; : : : : t t i i i p d H { @.@.+.} R c k 8 @.q @.< < < < < ",
"@.@.@.@.@.@.@.@.{ H H { @.@.+.} / V d i t t t t e e w : - - - - - - : w e e t t i p d d d f H { @.@.} ~ v a C ( =.@.=.=.@.@.@.< ",
"q @.@.@.@.@.@.@.[ H H { @.@.@.@.} ~ V a i t t t t t e : - - - - - - : e t t t t i d N V H H ~ } @.@.{ H M v F ) @.@.@.@.@.@.q < ",
"< < < < < < < < 3 y y 3 < < < < 2 3 4 a p i t t t t e : - - - - - - : e t t t t i d a 4 3 3 3 2 < < 3 a a 4 1 2 < < < < < < < < ",
"@.@.@.@.@.@.@.@.( v c R } +.q < q @.{ H d i t t t t t : : ; ; : : : : t t t t i p d H { @.@.q < q @.} ~ ' } =.=.=.:.:.:.=.=.@.@.",
"@.@.@.@.@.@.@.@.( C a v ~ } @.< @.@.{ H d i t t t t t t w : : w e e t t t t i p d f H { @.@.@.< @.@.| } } +.@.@.@.@.@.@.@.@.@.@.",
"@.@.@.@.q q q @.) b c a a 4 3 2 @.@.} ~ V a i i i t t t t : : t t i i i p h k x x m ~ } @.@.@.< @.@.@.@.@.@.@.@.@.@.@.@.@.@.@.@.",
"@.@.@.@.@.=.@.@.` %.] c a V S 3 @.@.+.} / x d d p i t t t t t t i p d d z n 8 I I I T | @.@.@.< @.@.@.@.@.@.@.@.@.@.@.@.@.@.@.@.",
"@.@.@.@.@.@.@.@.@.@.) F C H ~ 3 @.@.@.@.} m x x z a i i i i i i a z x x m U q q 0 U U | @.@.@.< @.@.@.@.@.@.@.@.@.@.@.@.@.@.@.@.",
"@.@.@.@.@.@.@.@.@.@.` ) ( [ } 2 @.@.@.@.+.U I I Z z d d d d d d a 4 3 5 U 0 q q U m m } @.@.@.< @.@.@.@.@.@.@.@.@.@.@.@.@.@.@.@.",
"@.@.@.@.@.@.@.@.@.@.@.@.@.@.q < q @.@.@.! q q q I x f f f f f f a 3 < < 7 q q q I x x E @.@.q < q @.@.@.@.@.@.@.@.@.@.@.@.@.@.@."
};
