/* XPM */
static char *_cf3273d11de4abd8ab56110fa46b4f7y2G7lkAXmNG8Qzt0[] = {
/* columns rows colors chars-per-pixel */
"50 50 135 2 ",
"   c #3F3851",
".  c #453A52",
"X  c #4B3952",
"o  c #543754",
"O  c #5B3755",
"+  c #533A52",
"@  c #5A3B51",
"#  c #783E4F",
"$  c #653757",
"%  c #643B52",
"&  c #6C3B52",
"*  c #6E3758",
"=  c #723757",
"-  c #743E50",
";  c #7B3B53",
":  c #783659",
">  c #7E3858",
",  c #4E4659",
"<  c #554254",
"1  c #594355",
"2  c #584B57",
"3  c #5A4A58",
"4  c #644253",
"5  c #6B4453",
"6  c #6C4B57",
"7  c #664958",
"8  c #6D4D5A",
"9  c #7B4551",
"0  c #714957",
"q  c #7D4853",
"w  c #734F5A",
"e  c #6F525C",
"r  c #70575F",
"t  c #725B61",
"y  c #746165",
"u  c #74666A",
"i  c #75696D",
"p  c #756C73",
"a  c #833F4F",
"s  c #833A56",
"d  c #8B3D54",
"f  c #8B375A",
"g  c #8F3958",
"h  c #933D54",
"j  c #9C3D55",
"k  c #943959",
"l  c #A23E54",
"z  c #86404F",
"x  c #94414F",
"c  c #98424F",
"v  c #884451",
"b  c #824B56",
"n  c #8E4A54",
"m  c #9B4651",
"M  c #914C53",
"N  c #9E4B52",
"B  c #84555B",
"V  c #885559",
"C  c #925257",
"Z  c #94575A",
"A  c #95585A",
"S  c #9A5D5D",
"D  c #AE444E",
"F  c #B0474F",
"G  c #A54152",
"H  c #A94151",
"J  c #A34E52",
"K  c #AF4F55",
"L  c #A45254",
"P  c #A7595A",
"I  c #AB5E5B",
"U  c #B75253",
"Y  c #BB5554",
"T  c #BE5955",
"R  c #B95758",
"E  c #BE5C5A",
"W  c #AE635D",
"Q  c #B1675F",
"!  c #BF605B",
"~  c #C25D56",
"^  c #C15D58",
"/  c #D35956",
"(  c #C4635B",
")  c #C6685E",
"_  c #C96B5E",
"`  c #D4625C",
"'  c #D8645D",
"]  c #C46C61",
"[  c #CB6A60",
"{  c #D56C62",
"}  c #DA6B61",
"|  c #C77162",
" . c #CD7263",
".. c #C87469",
"X. c #D47766",
"o. c #DD7366",
"O. c #DF7768",
"+. c #DC7B6B",
"@. c #E27F6D",
"#. c #E3826E",
"$. c #E48571",
"%. c #E68C74",
"&. c #E79076",
"*. c #E89177",
"=. c #EA9679",
"-. c #EB9B7C",
";. c #EDA07F",
":. c #EEA582",
">. c #EFA983",
",. c #F1AC86",
"<. c #F3B38A",
"1. c #F6BB8E",
"2. c #F7BE90",
"3. c #F8C293",
"4. c #FBC996",
"5. c #FBCA97",
"6. c #FBCC99",
"7. c #FCCF9C",
"8. c #FCD09D",
"9. c #FCD5A2",
"0. c #FDD7A4",
"q. c #FDD8A5",
"w. c #FDDBA8",
"e. c #FDDDAA",
"r. c #FDDCAB",
"t. c #FDDDAE",
"y. c #FDDFB2",
"u. c #FEE1AE",
"i. c #FEE2B0",
"p. c #FEE5B6",
"a. c #FEE7BA",
"s. c #FEE8BB",
"d. c #FEE8BC",
"f. c #FEEBC1",
"g. c #FEEDC4",
/* pixels */
"2                                                                                                 < ",
"  <.0.f.u.q.<.. %.1.5.i.d.u.6.i.a.8.u.5.1.$.1 *.3.g.w.0.6.5.-.w +.<.5.e.g.d.u.u.5.=.7 ,.8.u.f.e.1.t ",
"  5.5.5.5.5.5.. *.5.5.5.5.5.5.5.5.5.5.5.5.%.1 ;.5.5.5.5.5.5.,.w +.5.5.5.5.5.5.5.5.>.7 5.5.5.5.5.5.y ",
"  5.5.5.5.5.5.. %.1.5.5.5.5.5.5.5.5.5.5.<.$.1 *.3.5.5.5.5.5.=.w +.<.5.5.5.5.5.5.3.=.7 5.5.5.5.5.5.y ",
"  >.5.5.5.5.,.. @.%.1.3.3.3.3.3.3.3.3.<.%.@.1 @.=.3.3.3.3.=.@.w +.$.<.3.3.3.3.3.=.@.7 -.5.5.5.5.<.e ",
"  $.:.,.,.:.$.. o.@.@.@.@.@.@.@.@.@.@.@.@.o.1 O.@.@.@.@.@.@.O.0 { @.@.@.@.@.@.@.@.O.4 #.-.,.,.,.%.8 ",
"  } @.@.@.@.} . 5 w w w w w w w w w w w w 5 . 0 w w w w w w 0 X 5 w w w w w w w w 0 X ' @.@.@.@.o.5 ",
"  . . . . . .                                                                         . . . . . . . ",
"  %.*.%.@.o.5   o @ @ @ X = l D D l f O j D D H k   k H D D j O f l D D l = X @ @ + . . } @.$.*.%.8 ",
"  1.5.1.%.@.w   $ - - - o O - - - - & X - - - - &   & - - - - X & - - - - O o - - & X . @.%.<.5.3.t ",
"  5.5.5.1.@.w     O P Q Q Q Q z & I Q Q L X m Q Q Q Q L X m Q Q Q a & W Q Q Q L *     . @.>.5.5.9.i ",
"  u.5.5.3.@.w     - )  . . . .W B  . . . .+  . . . . . .<  . . . .W V  . . . . .x     . @.,.5.5.0.i ",
"  p.5.5.3.@.w     O Z S S S S # % Z S S n X v S S S S n X v S S S - % A S S S M $     . @.,.5.5.7.u ",
"  g.5.5.3.@.w   = z n S & & S S S S S & & S S S n   n S S S C + a S S S S & & M z ; X . @.,.5.5.t.p ",
"  i.5.5.3.@.w   D D )  .S S  . . . . .S A  . . . .   . . . . .6 ]  . . . .S S  .D D @ . @.,.5.5.q.i ",
"  5.5.5.1.@.w   s c J W # # W Q Q Q Q # - W Q Q N   N Q Q Q P @ x Q Q Q W # # L c d X . @.>.5.5.5.y ",
"  1.5.1.%.@.w     o 9 B B B q O   O - - & . . & - - - & .           o 9 B B B q O     . @.%.<.5.3.t ",
"  %.*.%.@.o.5     - (  . . ._ h   X @ @ + . . + @ @ @ + .           - (  . . ._ h     . } @.$.*.%.8 ",
"  . . . . . .     $ K | | | T :       . . . . . .   . . . . . .     $ K | | | T :       . . . . . . ",
"  %.=.%.@.O.0   @ % 4 6 + + 4 % O . . } @.@.@.o.5   ( X.X.X.[ 4   @ % % 6 + + 4 % O . . } @.%.=.*.8 ",
"  2.5.1.*.@.w   G D (  .C C ) D G + . @.@.*.,.,.t   ,.,.=.@.@.w   G D D  .C C ) D G + . @.%.<.5.3.t ",
"  5.5.5.1.@.w   k D Y  .v v T D j o . @.*.3.5.5.y   5.5.5.=.@.w   k D D  .v v T D j o . @.,.5.5.9.i ",
"  e.5.5.3.@.w     . + < < < + X     . @.,.5.5.5.y   5.5.5.3.@.w     . + < < < + X     . @.,.5.5.y.p ",
"  9.5.5.3.@.w     & ]  . . .( s     . o.,.5.q.t.u   w.w.6.3.O.0     & E  . . .( s     . @.,.5.5.t.p ",
"  u.5.5.3.@.w     & ]  . . .( s     . 5 t y i p ,   p p y t 5 X     & R  . . .( s     . @.,.5.5.6.y ",
"  5.5.5.3.@.w                                                                         . @.,.5.5.q.i ",
"  p.5.5.3.@.w   j D T  .n C F D l o . } ,.5.i.s.u   p.a.6.3.o.5   j D T  .n n ~ D l o . @.,.5.5.9.u ",
"  g.5.5.3.@.w   j D ^  .n C F D G + . @.,.5.5.5.y   5.5.5.3.@.w   j D ^  .n n ( D G + . @.,.5.5.8.u ",
"  i.5.5.3.@.w   X o + < X X o o X . . @.=.5.5.5.y   5.5.5.:.@.w   X o + < X X + o X . . @.,.5.5.6.y ",
"  5.5.5.=.@.w   o $ L  . . .~ >     . @.@.=.3.3.t   3.3.:.@.@.w     & U  . . .~ >     . @.*.3.5.5.y ",
"  -.,.=.@.O.0   + & I  . . .) d     . O.@.@.@.O.5   o.@.@.@.O.0     - !  . . .) d     . O.@.*.,.:.e ",
"  w w w w 0 X   . X 4 6 6 6 4 o     . 0 w w w 0 X   5 w w w 0 X     X 4 6 6 6 4 o     . 0 w w w w X ",
"  +.+.+.+.{ 5   g D U ] a                                         g D U ] a a Y D j o . ` +.+.+.+.6 ",
"  <.5.<.$.@.w   G D )  .Z               X @ @ @ o   o @ @ @ @ + . G D )  .Z Z _ D H @ . @.$.>.5.1.t ",
"  5.5.5.<.@.w   $ - 9 B %               o - - - $   $ - - - - & . $ - 9 B % % 9 - & X . @.;.5.5.5.y ",
"  e.5.5.3.@.w     O X L Q Q Q W & a Q Q Q m X L Q Q Q Q m X L Q Q I & z Q Q Q L *     . @.,.5.5.9.i ",
"  g.5.5.3.@.w     - +  . . . . .V W  . . . .<  . . . . . .+  . . . .B W  . . . .x     . @.,.5.5.y.p ",
"  q.5.5.3.@.w     O X M S S S A % - S S S v X n S S S S v X n S S Z % # S S S M $     . @.,.5.5.9.u ",
"  q.5.5.3.@.w   = z n S & & S S S S a + C S S S n   n S S S C + a S S S S & & M z ; X . @.,.5.5.9.u ",
"  u.5.5.3.@.w   D D )  .S S  . . . .] 6  . . . . .   . . . . .6 ]  . . . .S S  .D D @ . @.,.5.5.6.y ",
"  5.5.3.=.@.w   s c J W # # W Q Q Q x @ P Q Q Q N   N Q Q Q P @ x Q Q Q W # # L c d X . @.&.1.5.5.t ",
"  =.>.=.@.O.0     o - - - - - O             $ - - - - & .           o - - - - - O     . o.@.%.>.-.e ",
"  7 7 7 7 4 X     X @ @ @ @ @ X             o @ @ @ @ + .           X @ @ @ @ @ X     . 4 7 7 7 7 X ",
"  ' @.@.@.@.' . . . . . . . . . . .   . . . . . . . . . . . . . . . . . . . . . . . . / @.@.@.@.} 4 ",
"  #.*.=.=.*.#.. } @.@.@.@.@.@.@.@.} . } @.@.@.@.@.@.O.b E @.@.@.@.@.@.@.@.@.@.@.@.o.4 @.%.=.=.=.$.8 ",
"  -.3.5.5.3.;.. @.%.>.,.,.,.,.>.%.@.. @.%.,.,.,.,.=.@.V ..#.-.,.,.,.,.,.,.,.,.,.&.@.7 =.2.5.5.5.,.e ",
"  5.5.5.5.5.5.. $.<.5.5.5.5.5.5.<.$.. %.<.5.5.5.5.5.=.V ..:.5.5.5.5.5.5.5.5.5.5.1.%.7 5.5.5.5.5.5.y ",
"  5.5.5.5.5.5.. *.5.5.5.5.5.5.5.5.*.. =.5.5.5.5.5.5.<.V ..5.5.5.5.5.5.5.5.5.5.5.5.>.7 5.5.5.5.5.5.y ",
"  1.8.y.q.8.2.. %.3.5.0.7.t.q.5.3.%.. *.3.5.9.8.t.5.,.V ..1.5.9.6.w.e.6.q.w.w.6.5.-.7 1.7.q.y.9.3.t ",
"< t u p i u t . 8 t y i u p i y t 8 . 8 t y i u p y e < 7 r y u y p p y i p p y t e X r y i p i t 3 "
};
