/* XPM */
static char *xpm_[] = {
/* columns rows colors chars-per-pixel */
"64 64 201 2 ",
"   c #3C3751",
".  c #3E3851",
"X  c #433752",
"o  c #4B3752",
"O  c #433951",
"+  c #4C3B52",
"@  c #543753",
"#  c #5B3754",
"$  c #523B52",
"%  c #5B3A52",
"&  c #743D4F",
"*  c #613754",
"=  c #643B52",
"-  c #6B3C51",
";  c #793756",
":  c #733C52",
">  c #7B3B53",
",  c #4E4154",
"<  c #4E4658",
"1  c #524455",
"2  c #5B4354",
"3  c #524857",
"4  c #594A57",
"5  c #524A58",
"6  c #5A4C59",
"7  c #5A515D",
"8  c #644253",
"9  c #6B4453",
"0  c #664A57",
"q  c #6E4956",
"w  c #6A4D59",
"e  c #744352",
"r  c #7B4353",
"t  c #734A56",
"y  c #7C4A56",
"u  c #714D59",
"i  c #7A4F58",
"p  c #6E565D",
"a  c #72535B",
"s  c #7D535A",
"d  c #7A5A5E",
"f  c #695E65",
"g  c #735B61",
"h  c #795D61",
"j  c #766365",
"k  c #7C6565",
"l  c #75696C",
"z  c #796A6B",
"x  c #7D6C6C",
"c  c #7B6E70",
"v  c #7E7273",
"b  c #893F4F",
"n  c #853D52",
"m  c #8C3C53",
"M  c #943F51",
"N  c #9B3F52",
"B  c #96404F",
"V  c #9A424F",
"C  c #824553",
"Z  c #8B4554",
"A  c #834B55",
"S  c #8C4C54",
"D  c #8D4A58",
"F  c #944251",
"G  c #9A4350",
"H  c #924C54",
"J  c #9D4B55",
"K  c #865057",
"L  c #8C5157",
"P  c #855259",
"I  c #8C545A",
"U  c #8B595D",
"Y  c #935156",
"T  c #9C5356",
"R  c #925559",
"E  c #9A5558",
"W  c #935B5D",
"Q  c #9D5C5B",
"!  c #A9424F",
"~  c #B2454E",
"^  c #A44351",
"/  c #A94151",
"(  c #A44951",
")  c #AE4B51",
"_  c #B44D51",
"`  c #A45456",
"'  c #AD5656",
"]  c #AE5856",
"[  c #A45758",
"{  c #AA5558",
"}  c #A35B5B",
"|  c #AB5D5B",
" . c #B25455",
".. c #BA5B57",
"X. c #B35D5A",
"o. c #BB5C5A",
"O. c #A5625E",
"+. c #AD625D",
"@. c #B2655E",
"#. c #BC645D",
"$. c #B7685F",
"%. c #BD695F",
"&. c #9A5F60",
"*. c #846361",
"=. c #8E6964",
"-. c #9C6562",
";. c #A86A63",
":. c #B26760",
">. c #BC6661",
",. c #B16961",
"<. c #BC6B63",
"1. c #AC7267",
"2. c #AF796B",
"3. c #BD7367",
"4. c #B3776A",
"5. c #BC7468",
"6. c #BC7A6B",
"7. c #C25E58",
"8. c #C4635B",
"9. c #C3695E",
"0. c #C36E64",
"q. c #CC6D62",
"w. c #D36F64",
"e. c #C67063",
"r. c #CB7263",
"t. c #C57568",
"y. c #C37B6C",
"u. c #C97C6C",
"i. c #D17365",
"p. c #D3796B",
"a. c #DC7B6A",
"s. c #E47D6C",
"d. c #B78A73",
"f. c #BE9278",
"g. c #C6846F",
"h. c #CA826F",
"j. c #D6816E",
"k. c #DA836F",
"l. c #CB8370",
"z. c #CC8D75",
"x. c #D98671",
"c. c #D08D75",
"v. c #DC8B74",
"b. c #CD9679",
"n. c #CA987B",
"m. c #D29579",
"M. c #D49C7E",
"N. c #DE9C7D",
"B. c #E5816E",
"V. c #E58670",
"C. c #E68B73",
"Z. c #E88E75",
"A. c #E99177",
"S. c #E79579",
"D. c #EA9478",
"F. c #EC9D7D",
"G. c #EDA07E",
"H. c #B9A388",
"J. c #BBAB91",
"K. c #C0A88E",
"L. c #D2A481",
"P. c #D4AA85",
"I. c #D9AB86",
"U. c #D4AE89",
"Y. c #DAAE88",
"T. c #D6B38C",
"R. c #DBB28B",
"E. c #D6B790",
"W. c #DBB790",
"Q. c #D6BB94",
"!. c #DCBA94",
"~. c #D6BF9A",
"^. c #DCBE99",
"/. c #E0A581",
"(. c #EEA381",
"). c #F0A782",
"_. c #F2AD86",
"`. c #F2AF88",
"'. c #E7B38A",
"]. c #EAB58B",
"[. c #E7B98D",
"{. c #E9BB8E",
"}. c #F4B48A",
"|. c #F6BA8E",
" X c #F8BA8E",
".X c #F7BE90",
"XX c #F8BE90",
"oX c #D7C29D",
"OX c #DCC19D",
"+X c #F9C494",
"@X c #FBC997",
"#X c #FBCA97",
"$X c #FDCC99",
"%X c #FDCD9A",
"&X c #FED19E",
"*X c #D7C5A4",
"=X c #DAC3A0",
"-X c #FED5A3",
";X c #FFD9A6",
":X c #FFDCAB",
">X c #FFDFB1",
/* pixels */
"4 , 1 1 5 5 5 1 , O , , , 5 3 5 1 3 1 5 5 5 3 1 3 1 , + O + + < 5 3 1 1 1 1 , + X o $ 5 3 3 5 5 5 5 5 1 $ + X $ 1 5 5 5 5 1 1 5 ",
"1 d.P.Q.*XoXE.U.z.p +.z.M.U.oXoX*XQ.U.Q.*X~.E.Q.T.L.b.5.i -.z.U.*X~.E.T.T.P.b.1.h ,.z.L.U.Q.*X*X*XQ.Q.U.b.1.h d.P.E.oX*XQ.U.d.p ",
"1 L.$X-X:X:X-X$X'.k y._.#X$X&X:X:X;X&X;X:X;X$X-X&X#X XC.U 6._.#X>X;X-X-X$X#X|.z.&.p.`.#X$X;X>X>X:X;X:X$X Xc.=.'.$X%X:X:X:X$XY.k ",
"1 P.$X#X+X#X$X$X{.k y._.#X#X#X#X#X#X+X#X#X#X#X#X+X$X|.v.U 6._.#X#X#X+X$X#X#X|.z.U p.].#X#X#X+X$X#X#X#X#X}.c.=.{.$X@X$X@X#X$XR.k ",
"1 P.#X#X#X#X#X#X[.k t.(.+X#X#X#X#X#X#X#X#X+X#X#X$X+X).v.I 5.(.XX+X#X#X#X#X+X_.h.Q r.(..X#X#X#X#X#X#X+X+X_.u.=.{.@X@X$X@X#X@XY.k ",
", b.|.#X#X+X#X+X/.d e.C.F.|.+X+X+X.X+X.X+X+X+X+X|.).D.a.U ,.Z.(.XX+X+X.X+X).A.t.U p.Z.(.}.+X+X+X+X+X.X_.S.t.U /.XX@X@X#X#X+XM.h ",
"+ g.).}.|.XX|.).v.s 0.s.C.F.F.G.(.(.(.(.F.(.(.F.F.A.B.p.I :.s.C.(.(.(.(.(.Z.B.0.I w.a.C.F.F.G.G.F.(.(.Z.V.0.U x.).}. X|.|._.z.s ",
"$ <.V.F.F.F.F.Z.i.q [ 0.3.e.e.<.<.0.0.0.0.0.0.0.0.t.0.#.y E 0.0.0.>.0.0.0.e.0.} y @.0.t.0.0.e.0.0.0.0.0.0.| y i.V.F.F.F.F.Z.t.u ",
"o | q.i.p.p.p.i.#.8 8 q u w u u t u u u u u u u q q t 9 $ 2 t u u w u u t u u 8 $ 8 t u q a u u u w u q u 8 9 o.w.p.p.p.p.i.@.9 ",
"X 8 i i t i t t 8 + O + + + + + o o + $ $ $ $ $ + + $ $ o $ + + + + + $ $ $ $ + X + + $ $ $ + + + + + + O + X 8 t t t t t i 9 + ",
"+ ;.u.u.t.0.0.} 8 O o + $ $ + + @ - Z B F M m ; * - m M M M F ; o : m M M M M : # ; m F B B m : % O $ $ $ o X O T 8.0.t.u.u.1.0 ",
"+ z._.`.(.Z.s.0.q + @ = = - = @ # - m B V F M ; * - m B B B m > o : m M N M m : # ; m M B B m > # @ * - = # + + >.s.C.(._._.m.h ",
"< L.$X#X|.(.C.0.u + @ = & A S r i y A r & r A A t r r - r C S A t y Z r - r A A y y r & e C K y y y C : - # + + <.V.(.}.+X#XY.k ",
"1 U.$X+X#X.XF.0.u +   @ r } @.@.@.@.+.Y r A | +.@.| J 8 S ] @.+.:.:.| Y = H | :.@.+.Y r C +.@.@.@.+.{ C # X . < <.Z._.+X@X%X!.c ",
"5 E.-X#X#X+X(.e.w + . % S %.e.e.e.e.e.@.L E e.r.e.r.@.q +.e.e.e.0.0.q.+.t +.9.q.r.e.+.R Q 9.r.e.e.e.9.J - X   $ <.D.}.@X+X-X!.=.",
"5 oX:X#X#X.X(.0.w +   $ r O.@.@.@.@.@.E y K O.@.@.+.E 8 T +.@.@.:.:.:.E 8 T @.@.@.@.T y K +.@.@.@.@.| D # X   + <.D.}.+X$X-XQ.c ",
"5 *X:X#X#X+XG.e.u + + # e S W I S L W K y K W W R K r t A R W R K L Y K i A T I L L K y A W W I I S S r = @ O + <.D.}.#X#X$XQ.c ",
"5 *X>X#X#X+XG.0.u + : m F T } I t A O.O.O.O.O.O.L e A Q O.O.O.Y 2 A } O.O.O.O.K 9 S } O.O.O.O.L e y T B b & $ $ <.D.}.#X#X-XOXv ",
"5 oX;X+X#X+XG.0.u + m /  .8.0.+.I } 9.e.e.e.r.e.+.I Q 9.r.e.e.@.9 O.e.e.e.e.r.+.K @.e.e.r.e.e.+.R Q %. .! B % % <.D.}.+X#X-X^.v ",
"1 T.&X#X#X.XF.t.u $ > G ( ' :.E C L @.%.%.$.%.$.E A L @.%.%.$.` 2 H @.%.$.$.$.T e T $.$.%.$.<.E y S ] ( G n $ , 0.D.`.#X#X$XW.k ",
", L.$X+X.X_.Z.t.u + % - > S W P y A R I K K I R C & e A K R Y C - r H L K K A 9 $ - A K L E W K r y C C & * O $ <.C.(.|.+X#XY.k ",
", b.|..X_.A.V.<.q +   + e Y Q Q Q Q E r % O % - 9 - = X X @ = - - - - % O . . . O .   $ 9 Y Q Q O.Q T r $ . O + <.B.Z.(.XX|.M.d ",
"+ 5.v.v.x.a.i.X.9 X   $ Z #.0.r.r.e.9.J - X + $ % @ + X X + # % % % % $ O O . O . .   $ Z #.e.r.r.r.9.J - . . + | w.p.x.v.v.6.a ",
"X w P s s i y q + X X $ n  .9.r.e.9...F * X X O + $ $ 1 + $ + X O + $ + + + + O X . X @ C ] 9.e.e.9.#.F * O . O 8 y s s P s q $ ",
"+ ;.6.6.5.<.>.Q = O o # - A R I I L S e # + X + T #.<.<.0.>.} = + S +.@.@.$.+.Y # O + @ - Z R I L L S e # + X + T #.<.5.6.y.;.0 ",
", z._.).(.C.s.0.w + : n Z H E K e y H Z b : @ + #.s.B.V.A.D.u.w 1 $.v.S.k.k.a.$.q + : n m C T A e y H Z Z ; + $ >.s.C.F.).`.m.h ",
"5 M.#X+X.X(.C.0.u $ m / _ 7.0.| H T #._ ! M % $ <.B.C.F._.}.L.g 4 n. XG.G.Z.B.e.u + m / ! _ 9.+.S E 7._ / M # 1 >.V.F.|.$X+XY.k ",
"1 P.$X$X#XXXF.t.u + > G ) ..9.[ C H  ._ ^ m $ , <.V.F.|.+X#XI.j 4 M.#X#X+XG.C.9.u + n N ! ) 8.[ C H  .) N m @ $ <.D.`.+X#X-X!.c ",
"5 T.&X$X#X+XF.e.u + @ = : y P t 8 9 e e = % O $ <.D._.+X$X$XY.k 6 P.$X#X#X|.F.e.w + @ = & e y t = 9 r : - # O < <.D.`.+X+X;X^.v ",
"5 E.&X#X#X+X(.<.u X   + e E } } O.} T r @   . + >.D.}.$X-X-X!.z 6 T.-X;X#X#XF.0.t +   + - Y } O.O.} T r @   . + <.S.}.@X$X;X=Xv ",
"1 E.&X#X#X+X(.e.u +   @ D 0.q.r.r.r.8.J - . X + } u.L.Y.!.^.J.f 5 H.oX^.R.P.z.| 0 O . @ Z o.r.r.i.r.8.J - X X + <.D.}.#X+X;X^.c ",
"5 Q.;X#X+X+XF.0.u +   + y :.>.0.9.$.#.F # X . X % u g j z c f 1 X f x l j j a 8 + X . $ r { $.e.9.<...Z #     $ <.D.}.#X#X&X^.*.",
"< U.$X#X#X.X(.0.u O X o % 0 9 q 9 9 9 % $ X . . $ 1 4 6 7 7 5 , O 5 7 7 5 6 2 + X   O o % 8 q q 9 9 8 % o X X + %.D.}.+X$X-XQ.=.",
"3 Q.;X#X#X.X(.0.u $ : m F ( +.L e r B V m > $ + T 5.n.P.Q.oXJ.f 5 H.oXQ.R.L.g.[ 8 o : m H ( } Y & C T G m > @ $ <.D.}.#X#X%XQ.v ",
"3 *X>X#X#X+X(.0.q + b / _ 8.q.' Y T ) ~ ! M % $ #.C.}.#X-X:XOXk 7 E.:X:X$X#XG.0.t + m / _ 7.9.+.S T 7._ ! M % 1 <.D.}.#X#X&XQ.c ",
"5 *X>X#X+X+X(.t.u $ > M ( ' @.T y S V G N n @ $ <.A.`.#X#X$XY.j 6 P.$X$X#X.XF.0.u + > M ^ ] #.E r S ] ( N n $ $ <.D.}.#X#X&XW.x ",
"3 ~.;X#X#XXX(.0.u O $ % = q t t 8 q 9 = # $ O 1 <.C.(.+X#X#XY.j 6 I.#X#X+X_.C.t.q + + % 8 9 t q 9 9 9 = % @ X , <.D.`.+X#X#XR.x ",
"3 U.$X#X+X).C.0.u + + @ e T @.@.%.@.' Z # X X + <.B.C.(.|.#XP.j 6 L.+X}._.C.B.t.a + . $ & ` $.%.%.@.' Z # X X $ <.C.G.+X+X$XY.k ",
"+ b.}.}._.D.V.0.t + + # y ] r.r.i.r.8.J -   O + >.s.B.C.D.G.z.w 1 h.(.(.C.V.s.<.q O X $ F ..r.i.i.r.8.J - . . + <.B.Z.(.|.|.M.h ",
"+ 1.c.b.g.t.0.} 8 O + % e R +.@.#.@.' Z *     + Q 0.t.e.e.9.+.8 + } 0.0.0.0.0.O.9 O . + r [ +.@.@.@.+.S # . . + Q 0.t.u.z.z.2.w ",
"+ s &.U U U W y % X $ # - r K y q q 8 % O . X O = t t u u t 8 $ X 8 q u t t q 8 + O + % - r s i t t y : # @ X X e R U U &.&.h # ",
"+ ,.p.p.p.p.i.X.8 + : M ^  .$.T 9 O X X X . . . O O + O O , O . X X + + + O , O O O > M ! ' #.T r H _ ^ G n @ + { q.i.i.u.p.5.a ",
"< z.`.`.(.C.s.<.q $ b ! _ #.9.@.y O .   . . . .   . O $ $ $ $ + X X + $ + $ $ $ + o m ! _ 8.9.+.P T 8. ./ M % 1 >.s.V.(.`.}.b.g ",
"< L.#X#X.X(.C.t.u + > B G | +.R 9       . .       X @ = - = = % X @ * = - - - = @ O > M J [ +.R C A [ J M n $ $ <.V.F.}.#X#XI.k ",
"5 U.$X#X+X.XS.0.u + % * - e K K y q q q 2 $ % 9 w q y r & r C y t y A A C & & C r t r e e r U K y A A r - # + + <.Z._.@X+X$XY.x ",
"< E.:X+X$X.X(.0.q , . $ % 8 T +.@.+.@.+.L e S +.@.@.+.T 9 A +.+.+.@.@.+.T = S +.@.@.+.R e H +.@.@.+.` C # X   1 <.D.`.+X#X;X!.x ",
"5 *X>X#X#X+X(.0.t O . % - 8 @.r.e.r.e.e.+.L } 9.r.r.e.#.r E e.r.0.e.r.e.#.i E 9.e.e.e.+.K O.9.e.e.e.9.( -   X + <.D.}.@X@X-XoXv ",
"5 ~.:X$X+X.X(.0.q + . % % % Q +.@.@.@.+.R y L +.@.@.+.} 9 L +.@.@.,.@.+.` 9 K +.@.@.+.R r T +.@.@.@.] S # X   $ <.D.}.@X#X;X^.v ",
"3 E.-X#X#X+X(.0.u o o * - e S K L L W W L y K L P U R L y K L L P L E R K i A S K L R L y A W I P I S r - @ X $ %.D.}.#X+X&XW.x ",
"3 Q.-X#X#X+X(.0.u + : n F E } L e A Q O.O.O.Q T e y [ O.O.O.O.Y 2 C O.O.O.O.} K 9 H Q O.O.O.O.L t C T F b & @ + <.D.`.#X$X&XW.x ",
"3 Q.-X#X#X.X(.0.u $ m / ) 8.0.+.I Q 9.e.r.e.e.%.I E 9.e.e.e.r.@.9 O.e.e.e.r.r.+.K @.e.e.r.e.e.+.L Q %. .! B % , 3.A.}.#X#X#XR.z ",
"1 T.$X+XXX_.C.t.u + ; G ( ' :.E A L $.%.%.%.$.[ y K @.%.%.#.@.` 2 H @.%.%.$.$.T e T @.%.%.$.>.E A H ] ( M b % $ <.C.G.XX#X#XY.k ",
"1 b.}. X_.D.s.q.q + % - r Z Y A & r Y L I P P : % 8 y K L T H C - r S Y K K A 9 % - A K P R Y A & r Z C & % + + >.s.A.).|. XM.d ",
"+ 1.c.z.u.t.0.O.8 + . O # - - - - - - % o     . . . . O $ = e - - - - % O . . .   . . X # = - - - - - % o X . O } 0.t.u.c.c.4.w ",
"X t U U U I I y 9 X   X + % % $ % % % @ X X   X O O . O $ $ % % % % % + O O . O . . . O + % $ # % % % $ O . O 8 y K A U U I i 1 ",
"+ { q.p.p.p.p.i...8 + $ + $ , % $ 1 $ < $ + + X O + + , $ $ $ , , $ + + + + , + , $ , , $ $ 1 $ , % , , $ O = _ w.p.p.p.u.i.X.q ",
"$ >.B.Z.Z.Z.Z.V.r.t E >.<.<.<.<.<.<.<.<.<.<.{ 9 H >.<.<.<.<.<.<.%.%.Q A T @.<.<.<.<.<.<.<.<.>.<.<.<.<.<.>.` y q.B.C.C.Z.Z.V.0.t ",
"+ y.F.)._.}.).(.j.s >.s.V.Z.D.D.D.S.D.A.C.s.w.y >.s.C.Z.D.D.D.D.V.B.%.R 0.s.C.Z.D.D.D.D.D.D.D.D.D.S.D.V.s.0.U p.F.)._.`.`.(.l.a ",
"1 z.}.#X+X$X#X XN.d 0.C.F.`.}.}.`.}.}.`.(.Z.p.i <.C.(.).}.}.`.`.G.Z.3.&.t.k.F._.}.}.}.}.}.}.}.}.}.}.}.G.A.e.U N.|.+X#X#X+X XM.h ",
"1 L.#X#X$X+X#X#X[.k e.F.|.+X#X#X#X$X+X@X.X(.k.s <.(.|.+X@X@X@X#X+XG.g.Q u.F.}.#X+X$X+X#X#X+X@X@X#X#X#X|._.u.=.].#X$X+X$X$X#XI.k ",
"1 P.$X#X$X#X#X$X[.*.u._.+X+X$X#X@X@X@X#X#X}.x.h y._.+X+X#X#X@X+X#X|.z.&.u.}.#X#X#X#X#X#X#X#X#X#X#X+X#X#X|.z.=.{.#X#X#X#X$X#XY.k ",
"1 P.$X&X-X-X%X$X[.*.u.`.#X$X-X$X&X;X-X#X+X Xv.P 6.}.$X$X%X-X-X-X#XXXz.&.u.}.$X$X&X$X-X-X-X#X-X-X-X-X$X#X Xc.=.].$X$X-X:X-X$XY.k ",
"1 d.Y.Q.=X^.!.R.n.p ;.m.Y.R.W.W.~.=X^.R.Y.L.y.w ;.m.I.Y.^.!.!.^.W.L.4.U 1.b.I.R.!.R.!.=X^.W.~.=X^.^.R.Y.M.4.d n.Y.!.*X*X^.R.f.g ",
"5 f x *.v v x z g , 0 h k k x x v v =.z *.h w $ 0 h z *.c *.c c k h w 2 w g k k c *.c v c k v v =.c x k h w 1 g k x v =.c k g 6 "
};
